<svg width="80" height="20" viewBox="0 0 80 20" fill="none" xmlns="http://www.w3.org/2000/svg">
<path d="M12.8595 5.25659H11.2872C10.852 5.25659 10.5011 5.60635 10.5011 6.04004V6.35833C9.26574 5.55388 7.74964 5.13418 6.13525 5.28807C2.96616 5.58886 0.390182 8.10711 0.0427401 11.2619C-0.409986 15.3365 2.7942 18.799 6.79504 18.799C8.16372 18.799 9.43771 18.3934 10.5046 17.6973V17.9876C10.5046 18.4213 10.8556 18.7711 11.2907 18.7711H12.8629C13.2982 18.7711 13.6491 18.4213 13.6491 17.9876V6.04004C13.6491 5.60635 13.2982 5.25659 12.8629 5.25659H12.8595ZM6.7915 15.6618C4.78058 15.6618 3.14514 14.0319 3.14514 12.0278C3.14514 10.0237 4.78058 8.3939 6.7915 8.3939C8.80248 8.3939 10.4379 10.0237 10.4379 12.0278C10.4379 14.0319 8.80248 15.6618 6.7915 15.6618Z" fill="white"/>
<path d="M70.008 18.799C66.2635 18.799 63.2136 15.7632 63.2136 12.0278C63.2136 8.29244 66.2598 5.25659 70.008 5.25659C73.7563 5.25659 76.8025 8.29244 76.8025 12.0278C76.8025 15.7632 73.7563 18.799 70.008 18.799ZM70.008 8.3939C67.9969 8.3939 66.3615 10.0237 66.3615 12.0278C66.3615 14.0319 67.9969 15.6618 70.008 15.6618C72.0192 15.6618 73.6546 14.0319 73.6546 12.0278C73.6546 10.0237 72.0192 8.3939 70.008 8.3939Z" fill="white"/>
<path d="M45.0313 5.25659C43.6942 5.25659 42.4483 5.64482 41.3955 6.31285V6.04354C41.3955 5.60984 41.0445 5.26009 40.6094 5.26009H39.0371C38.6019 5.26009 38.251 5.60984 38.251 6.04354V17.9911C38.251 18.4248 38.6019 18.7746 39.0371 18.7746H40.6094C41.0445 18.7746 41.3955 18.4248 41.3955 17.9911V11.8075C41.5113 9.90833 43.0976 8.39739 45.0313 8.39739H45.4209C45.8561 8.39739 46.207 8.04763 46.207 7.61395V6.04704C46.207 5.61334 45.8561 5.26359 45.4209 5.26359H45.0313V5.25659Z" fill="white"/>
<path d="M31.6247 14.6684C31.4492 14.6684 31.2738 14.7243 31.1369 14.8362C30.5087 15.3503 29.705 15.6617 28.8312 15.6617C27.3642 15.6617 26.1007 14.7908 25.5216 13.5456H34.7903C35.1904 13.5456 35.5238 13.2483 35.5729 12.8496C35.6747 12.0417 35.6291 11.1883 35.401 10.3139C34.685 7.57883 32.295 5.54678 29.4699 5.28447C25.2304 4.89624 21.6893 8.41477 22.0613 12.6363C22.3526 15.9135 25.0408 18.5436 28.3328 18.778C30.8315 18.9563 33.0741 17.7777 34.3902 15.91C34.7587 15.3854 34.3972 14.6648 33.7515 14.6648H31.6212L31.6247 14.6684ZM28.8312 8.3938C30.256 8.3938 31.4913 9.21569 32.0914 10.4084H25.5708C26.171 9.21569 27.4028 8.3938 28.8312 8.3938Z" fill="white"/>
<path d="M59.7709 5.25659H49.5758C49.1406 5.25659 48.7897 5.60635 48.7897 6.04004V7.60692C48.7897 8.0406 49.1406 8.39036 49.5758 8.39036H56.0824L49.0178 15.4274C48.8704 15.5744 48.7861 15.7737 48.7861 15.9835V18.0121C48.7861 18.4458 49.1371 18.7956 49.5723 18.7956H59.7744C60.2096 18.7956 60.5606 18.4458 60.5606 18.0121V16.4452C60.5606 16.0115 60.2096 15.6618 59.7744 15.6618H53.2362L60.3009 8.62123C60.4483 8.47434 60.529 8.27844 60.5325 8.07563L60.5535 6.05053C60.557 5.61334 60.2026 5.26009 59.7674 5.26009L59.7709 5.25659Z" fill="white"/>
<path d="M18.6324 0.0834961H17.0566C16.6225 0.0834961 16.2705 0.43426 16.2705 0.866942V17.9909C16.2705 18.4236 16.6225 18.7743 17.0566 18.7743H18.6324C19.0666 18.7743 19.4185 18.4236 19.4185 17.9909V0.866942C19.4185 0.43426 19.0666 0.0834961 18.6324 0.0834961Z" fill="white"/>
<path d="M78.4279 8.39383C79.2962 8.39383 80 7.69226 80 6.82689C80 5.96154 79.2962 5.26001 78.4279 5.26001C77.5597 5.26001 76.8552 5.96154 76.8552 6.82689C76.8552 7.69226 77.5597 8.39383 78.4279 8.39383Z" fill="white"/>
</svg>
