<svg width="100" height="23" viewBox="0 0 100 23" fill="none" xmlns="http://www.w3.org/2000/svg">
<g clip-path="url(#clip0_120_691)">
<path d="M44.7047 16.218C43.9826 17.0912 43.1305 17.7574 42.15 18.2136C41.1694 18.6711 40.073 18.8992 38.8591 18.8992C37.7682 18.8992 36.7569 18.7019 35.8239 18.3059C34.8908 17.9099 34.0834 17.371 33.4018 16.6882C32.7202 16.0052 32.1824 15.1964 31.7871 14.2616C31.3918 13.3268 31.1948 12.3192 31.1948 11.2416C31.1948 10.1641 31.3918 9.15648 31.7871 8.22167C32.1824 7.28686 32.7202 6.47799 33.4018 5.79507C34.0834 5.11216 34.8908 4.57338 35.8239 4.17735C36.7569 3.78131 37.7696 3.58398 38.8591 3.58398C40.031 3.58398 41.0632 3.7883 41.9545 4.19833C42.847 4.60837 43.6403 5.20172 44.3359 5.9798L42.3945 7.86342C41.9587 7.35823 41.4572 6.95519 40.8915 6.65572C40.3258 6.35485 39.6553 6.2051 38.8787 6.2051C38.1971 6.2051 37.5573 6.32405 36.9581 6.56336C36.3588 6.80265 35.8364 7.13992 35.3936 7.57654C34.9508 8.01316 34.6002 8.54214 34.3418 9.16348C34.0834 9.78481 33.9535 10.4775 33.9535 11.2416C33.9535 12.0057 34.0834 12.6984 34.3418 13.3197C34.6002 13.9411 34.9508 14.4701 35.3936 14.9067C35.8364 15.3433 36.3574 15.682 36.9581 15.9199C37.5573 16.1592 38.1985 16.2782 38.8787 16.2782C39.6958 16.2782 40.4221 16.1102 41.0549 15.7757C41.6876 15.4413 42.2505 14.9669 42.7408 14.3525L44.7047 16.218ZM52.7978 17.262H52.6345C52.3216 17.7671 51.8983 18.166 51.3675 18.4598C50.8353 18.7537 50.2291 18.9006 49.5488 18.9006C48.2819 18.9006 47.3377 18.5116 46.7189 17.7335C46.0988 16.9555 45.7887 15.9185 45.7887 14.6212V8.53934H48.4663V14.2938C48.4663 15.0173 48.627 15.5533 48.9469 15.9003C49.2667 16.2488 49.7332 16.4223 50.3464 16.4223C50.7152 16.4223 51.0379 16.3439 51.3173 16.1871C51.5966 16.0304 51.8355 15.8192 52.0324 15.5533C52.2293 15.2873 52.3802 14.9724 52.4822 14.6114C52.5842 14.2489 52.6359 13.8641 52.6359 13.4541V8.53934H55.3135V18.5718H52.7992V17.262H52.7978ZM84.6199 16.0136C84.1841 16.8603 83.5737 17.553 82.7901 18.0918C82.0064 18.6306 81.0287 18.9006 79.8582 18.9006C79.0816 18.9006 78.3691 18.7677 77.7224 18.5019C77.0758 18.2359 76.517 17.8636 76.0462 17.3865C75.577 16.9092 75.2082 16.3453 74.9428 15.6974C74.6774 15.0494 74.5447 14.3357 74.5447 13.5577C74.5447 12.7796 74.6774 12.0631 74.9428 11.4081C75.2082 10.7533 75.577 10.1893 76.0462 9.71908C76.517 9.24745 77.0758 8.8794 77.7224 8.61351C78.3691 8.34762 79.0816 8.21468 79.8582 8.21468C81.0161 8.21468 81.9897 8.48057 82.7802 9.01374C83.5709 9.54689 84.1491 10.2355 84.5179 11.0821L82.0651 12.105C81.8332 11.6404 81.5372 11.2892 81.1754 11.0513C80.8136 10.812 80.361 10.693 79.8162 10.693C79.4615 10.693 79.129 10.7616 78.8147 10.8974C78.5018 11.0331 78.2253 11.2248 77.9864 11.4697C77.7475 11.716 77.5604 12.0155 77.4235 12.371C77.288 12.7264 77.2196 13.1224 77.2196 13.5591C77.2196 13.9957 77.288 14.3917 77.4235 14.7472C77.5604 15.1026 77.7475 15.4021 77.9864 15.6484C78.2253 15.8947 78.5004 16.085 78.8147 16.2222C79.129 16.3593 79.4615 16.4265 79.8162 16.4265C80.375 16.4265 80.8485 16.3005 81.2368 16.0473C81.6251 15.7954 81.9352 15.4301 82.1671 14.9515L84.6199 16.0136ZM95.2262 16.1564C94.7636 16.9751 94.1393 17.6384 93.3555 18.1422C92.5719 18.6474 91.6151 18.8992 90.485 18.8992C89.7224 18.8992 89.017 18.7663 88.3703 18.5004C87.7236 18.2345 87.1606 17.8622 86.6844 17.3851C86.2066 16.9078 85.8365 16.3439 85.5711 15.696C85.3057 15.048 85.1731 14.3343 85.1731 13.5563C85.1731 12.8327 85.3029 12.1471 85.5613 11.4991C85.8197 10.8512 86.1815 10.2844 86.6438 9.80026C87.1061 9.31602 87.6551 8.92978 88.2893 8.6429C88.922 8.35602 89.6204 8.21327 90.3845 8.21327C91.1876 8.21327 91.9028 8.34622 92.53 8.61211C93.1572 8.878 93.6823 9.24745 94.1038 9.71767C94.5262 10.1893 94.8477 10.7448 95.0655 11.3857C95.2832 12.0267 95.3916 12.7236 95.3916 13.4737V13.72C95.3776 13.8012 95.3711 13.8768 95.3711 13.9453C95.3571 14.0138 95.3515 14.0881 95.3515 14.1706H87.8102C87.8646 14.5807 87.9778 14.9319 88.1482 15.2258C88.3186 15.5196 88.5295 15.7646 88.781 15.9633C89.0338 16.1606 89.3089 16.3048 89.6092 16.3929C89.9096 16.4811 90.2155 16.5258 90.5298 16.5258C91.143 16.5258 91.65 16.3859 92.0523 16.106C92.4546 15.8261 92.7717 15.4749 93.0021 15.0522L95.2262 16.1564ZM70.8642 17.5082H70.7007C70.3878 17.8902 70.0093 18.2178 69.5665 18.4906C69.1237 18.7636 68.5552 18.9006 67.8596 18.9006C67.3414 18.9006 66.8539 18.8153 66.3986 18.6445C65.9417 18.4739 65.5437 18.2387 65.2029 17.9379C64.862 17.637 64.5967 17.2759 64.4053 16.8533C64.2139 16.4293 64.1189 15.9661 64.1189 15.4608C64.1189 14.9417 64.2209 14.4743 64.4248 14.0587C64.6288 13.6416 64.9151 13.2834 65.2839 12.9839C65.6513 12.683 66.0843 12.4549 66.5816 12.2982C67.0788 12.1415 67.6207 12.0631 68.206 12.0631C68.8597 12.0631 69.3988 12.1135 69.8207 12.217C70.2426 12.3192 70.5903 12.4255 70.8628 12.5347V12.2268C70.8628 11.695 70.6518 11.2542 70.2286 10.9058C69.8068 10.5573 69.2816 10.3838 68.6558 10.3838C67.7297 10.3838 66.946 10.7728 66.3049 11.5509L64.3634 10.22C65.4263 8.8822 66.8762 8.21327 68.7159 8.21327C70.2691 8.21327 71.455 8.57853 72.2721 9.30902C73.0892 10.0395 73.4985 11.1212 73.4985 12.5543V18.5746H70.8628V17.5082H70.8642ZM96.6982 3.91146H99.3758V18.5718H96.6982V3.91146ZM57.1922 8.53934H59.7064V9.93172H59.8699C59.9928 9.68546 60.1562 9.46018 60.3601 9.25585C60.5641 9.05153 60.7931 8.8724 61.0445 8.72127C61.2974 8.56873 61.5698 8.44558 61.8617 8.35181C62.155 8.25806 62.4442 8.21188 62.7305 8.21188C63.0853 8.21188 63.3885 8.24966 63.6399 8.32662C63.8927 8.4022 64.1064 8.50015 64.2838 8.62191L63.5687 11.0177C63.4052 10.9366 63.225 10.8708 63.0267 10.8232C62.8297 10.7756 62.5867 10.7518 62.3017 10.7518C61.9344 10.7518 61.6005 10.8232 61.3002 10.9673C60.9999 11.1115 60.7457 11.313 60.5333 11.5747C60.3224 11.835 60.159 12.1401 60.0431 12.4913C59.9272 12.8412 59.8699 13.2218 59.8699 13.6332V18.5732H57.1922V8.53934ZM70.8642 14.4981C70.5513 14.3484 70.2272 14.228 69.8933 14.1399C69.5595 14.0517 69.1949 14.0069 68.7997 14.0069C68.1599 14.0069 67.6655 14.1468 67.3176 14.4267C66.9699 14.7066 66.7966 15.0522 66.7966 15.4608C66.7966 15.871 66.9629 16.1984 67.2981 16.4432C67.6319 16.6896 68.0174 16.8113 68.4532 16.8113C68.808 16.8113 69.1349 16.747 69.4338 16.6168C69.7341 16.4867 69.9883 16.3159 70.2006 16.1047C70.4116 15.8933 70.575 15.647 70.6909 15.3671C70.8069 15.0886 70.8642 14.7975 70.8642 14.4981ZM92.794 12.266C92.78 12.0883 92.7228 11.891 92.6208 11.6712C92.5188 11.453 92.3693 11.2487 92.171 11.0569C91.9741 10.8651 91.7282 10.7084 91.4349 10.5853C91.1415 10.4621 90.791 10.4005 90.383 10.4005C89.8104 10.4005 89.3061 10.5643 88.8703 10.8917C88.4345 11.2193 88.1273 11.6768 87.9499 12.2632H92.794V12.266Z" fill="white"/>
<path d="M24.5459 7.86169C24.5459 7.86169 24.5445 7.86303 24.5405 7.86437V7.86035L24.5459 7.86169Z" fill="white"/>
<path d="M23.1828 17.2917C20.7495 18.74 14.2292 22.4723 14.2292 22.4723V17.4833C14.2292 15.2737 15.3775 13.2249 17.2604 12.0746C17.7674 11.7807 18.2478 11.5008 18.7033 11.2363C19.7034 11.8143 20.8543 12.4762 20.8543 12.4762C22.1562 13.2347 24.1578 15.1827 23.1828 17.2917Z" fill="#636080"/>
<path d="M23.2177 5.21005C19.4924 3.04934 14.2292 0 14.2292 0V4.98754C14.2292 7.21682 15.3984 9.28236 17.3092 10.4271C17.481 10.5306 18.0607 10.8665 18.7033 11.236C19.7034 11.814 20.8543 12.4758 20.8543 12.4758C22.1562 13.2344 24.1578 15.1823 23.1828 17.2913C23.2317 17.2619 23.2806 17.2325 23.3252 17.2059C23.3602 17.1849 23.3951 17.1625 23.43 17.1387C25.4219 15.8498 26.6329 13.6317 26.6329 11.2416C26.6329 8.76877 25.3366 6.47932 23.2177 5.21005ZM24.5405 7.85915L24.5461 7.86055C24.5461 7.86055 24.5447 7.86195 24.5405 7.86334V7.85915Z" fill="white"/>
<path d="M3.45017 5.18066C5.8834 3.73226 12.4037 0 12.4037 0V4.98894C12.4037 7.19862 11.2555 9.24738 9.37258 10.3977C8.86559 10.6916 8.38509 10.9714 7.92973 11.236C6.92961 10.658 5.77865 9.99607 5.77865 9.99607C4.47683 9.23758 2.4752 7.28959 3.45017 5.18066Z" fill="#636080"/>
<path d="M3.41519 17.2619C7.14047 19.4226 12.4036 22.4719 12.4036 22.4719V17.4844C12.4036 15.2551 11.2345 13.1895 9.32368 12.0449C9.15187 11.9413 8.5722 11.6054 7.92967 11.236C6.92955 10.658 5.77859 9.99608 5.77859 9.99608C4.47677 9.23759 2.47514 7.2896 3.45011 5.18066C3.40122 5.21006 3.35234 5.23944 3.30764 5.26603C3.27272 5.28702 3.23779 5.30941 3.20288 5.3332C1.21103 6.62207 0 8.84016 0 11.2303C0 13.7031 1.29623 15.9926 3.41519 17.2619ZM2.09241 14.6127L2.08683 14.6113C2.08683 14.6113 2.08822 14.6099 2.09241 14.6085V14.6127Z" fill="white"/>
<path d="M23.1829 17.2905C23.2318 17.2611 23.2807 17.2317 23.3254 17.2051C23.2779 17.2359 23.2304 17.2653 23.1815 17.2933L23.1829 17.2905Z" fill="white"/>
<path d="M24.5459 7.86169C24.5459 7.86169 24.5445 7.86303 24.5405 7.86437V7.86035L24.5459 7.86169Z" fill="white"/>
</g>
<defs>
<clipPath id="clip0_120_691">
<rect width="100" height="22.4719" fill="white"/>
</clipPath>
</defs>
</svg>
