<svg width="60" height="24" viewBox="0 0 60 24" fill="none" xmlns="http://www.w3.org/2000/svg">
<g clip-path="url(#clip0_120_964)">
<path d="M12.9159 7.64241L9.69104 14.2185L4.34033 6.94946H13.2572L19.3462 15.2225L15.6273 22.8027H6.24139L9.96023 15.2225H18.4941L12.9159 7.64241Z" fill="white"/>
<path d="M3.71885 7.2605L0 14.8406L5.63101 22.4914L9.34985 14.9141L3.71885 7.2605Z" fill="white"/>
<path d="M26.3955 2.78597C26.3955 4.02198 27.9441 6.00185 29.3262 7.4104H32.6232V8.64358C31.5176 8.66302 30.413 8.56823 29.3262 8.36077V21.5128L30.65 22.6442V22.8167H23.0707V22.6272L24.3668 21.4959L24.2807 8.54458L22.5906 7.58296V7.4104H24.2807L24.2252 6.50533C23.9144 0.975796 29.2707 0 30.0866 0C32.3706 0 34.033 0.975796 35.1043 2.32495L32.6509 6.4035L32.4816 6.37523C31.3604 3.76177 29.0153 1.49339 27.5777 1.49339C26.7063 1.49339 26.3955 2.09585 26.3955 2.78597Z" fill="white"/>
<path d="M45.7114 18.6674C43.3524 21.2893 41.357 23.0938 40.4134 23.091C35.973 23.091 32.5511 20.1438 32.5566 15.3723C32.5566 8.68025 38.6067 7.22081 40.1581 7.22364C43.6493 7.22364 45.309 9.46094 45.5254 12.2837C45.5254 13.0756 41.8371 14.7925 40.6742 14.7896H37.1275C38.1515 17.1626 40.1136 19.3151 42.9555 19.3151C43.7326 19.3151 44.4542 19.1199 45.5615 18.5288L45.7114 18.6674ZM36.3032 11.0307C36.3253 12.1425 36.5395 13.2416 36.936 14.2777H40.5632C40.5133 11.0024 39.3255 8.51623 37.8019 8.51341C36.9998 8.5021 36.306 9.33362 36.3032 11.0307Z" fill="white"/>
<path d="M59.6152 7.69608L51.953 22.2567C55.1362 22.2284 56.0936 20.5597 59.0521 14.4758H59.2211V22.6018L59.1658 22.8026H46.7104V22.6273L54.0094 8.03837C51.3313 8.09491 50.5431 8.81335 47.3294 15.2197H47.1323L47.1045 7.66498L47.2184 7.52075H59.6152V7.69608Z" fill="white"/>
</g>
<defs>
<clipPath id="clip0_120_964">
<rect width="60" height="23.0769" fill="white"/>
</clipPath>
</defs>
</svg>
