<svg width="80" height="26" viewBox="0 0 80 26" fill="none" xmlns="http://www.w3.org/2000/svg">
<g clip-path="url(#clip0_120_1415)">
<mask id="mask0_120_1415" style="mask-type:luminance" maskUnits="userSpaceOnUse" x="12" y="1" width="11" height="8">
<path d="M12.4583 8.10828C12.7791 8.07495 13.1124 8.04995 13.4666 8.02495C15.8458 7.84995 19.3666 7.53328 22.6374 4.53328C21.7916 3.53328 20.7874 2.66245 19.6458 1.94995C18.1166 2.71662 15.3124 4.47912 12.4583 8.10828Z" fill="white"/>
</mask>
<g mask="url(#mask0_120_1415)">
<path d="M13.4582 -1.0791L24.4707 2.5584L21.6374 11.1417L10.6249 7.50423L13.4582 -1.0791Z" fill="white"/>
</g>
<mask id="mask1_120_1415" style="mask-type:luminance" maskUnits="userSpaceOnUse" x="6" y="11" width="20" height="11">
<path d="M12.3666 16.6378C11.1541 16.6753 10.1083 16.7086 9.49993 16.9128C7.42909 17.6044 6.87909 18.6253 6.73743 18.9794C6.49993 19.6753 6.27076 20.3961 6.04993 21.1419C6.23743 21.0919 6.42909 21.0419 6.63326 21.0003C7.55409 20.8044 8.70826 20.8503 10.1666 20.9086C14.2333 21.0711 20.4374 21.4628 25.2749 16.0669C25.6499 14.6211 25.7666 13.1628 25.6458 11.7461C21.2166 16.1336 15.9958 16.5253 12.3666 16.6378Z" fill="white"/>
</mask>
<g mask="url(#mask1_120_1415)">
<path d="M7.98739 5.875L28.6582 12.7042L23.8249 27.3375L3.15405 20.5083L7.98739 5.875Z" fill="white"/>
</g>
<mask id="mask2_120_1415" style="mask-type:luminance" maskUnits="userSpaceOnUse" x="8" y="6" width="18" height="9">
<path d="M13.6497 10.5461C12.7497 10.6128 11.9789 10.6836 11.5456 10.8419C10.0664 11.3794 9.53724 12.6128 9.47057 12.6836C9.14141 13.2878 8.82057 13.9253 8.50391 14.5919C8.56641 14.5669 8.62891 14.5378 8.69141 14.5128C9.63724 14.1461 10.8747 14.1544 12.2831 14.1086C15.7914 14.0003 20.6081 13.9836 25.2414 9.50443C24.9247 8.33359 24.4456 7.21693 23.8206 6.18359C20.4914 9.45443 16.2622 10.3586 13.6497 10.5461Z" fill="white"/>
</mask>
<g mask="url(#mask2_120_1415)">
<path d="M10.1539 1.2002L27.7498 7.01269L23.5998 19.5794L5.99976 13.7669L10.1539 1.2002Z" fill="white"/>
</g>
<mask id="mask3_120_1415" style="mask-type:luminance" maskUnits="userSpaceOnUse" x="-1" y="0" width="18" height="22">
<path d="M0.649962 8.81667C-0.854205 13.3625 0.329128 18.15 3.32913 21.4667C3.56663 20.5958 3.81663 19.75 4.07496 18.9458C4.07913 18.9375 4.07913 18.9292 4.08329 18.9208C7.63329 7.975 13.2416 2.87917 16.8041 0.629167C15.4916 0.204167 14.1541 0 12.8416 0C7.45413 0 2.43329 3.41667 0.649962 8.81667Z" fill="white"/>
</mask>
<g mask="url(#mask3_120_1415)">
<path d="M0.88724 -5.25879L23.1997 2.11204L15.0664 26.7245L-7.24609 19.3537L0.88724 -5.25879Z" fill="white"/>
</g>
<mask id="mask4_120_1415" style="mask-type:luminance" maskUnits="userSpaceOnUse" x="5" y="19" width="19" height="7">
<path d="M10.0708 23.2416C8.82914 23.1916 7.75414 23.1499 7.12081 23.2832C6.62081 23.3916 6.22498 23.5207 5.91248 23.6541C6.79998 24.2249 7.77498 24.6916 8.82081 25.0374C14.6041 26.9499 20.775 24.5166 23.8125 19.5291C18.9125 24.1499 13.975 23.3999 10.0708 23.2416Z" fill="white"/>
</mask>
<g mask="url(#mask4_120_1415)">
<path d="M7.67078 14.196L26.0208 20.2585L22.0458 32.2794L3.69995 26.221L7.67078 14.196Z" fill="white"/>
</g>
<path d="M39.4249 4.4583L39.1874 5.19164C39.0708 5.5458 38.8458 5.65414 38.5083 5.6583C38.2708 5.6583 38.0333 5.6583 37.7291 5.6583C36.7874 5.6583 35.9374 6.17914 35.7249 7.39164L35.5041 8.5708L35.3916 9.1708H37.8416C38.1499 9.1708 38.3124 9.4083 38.1499 9.76247C37.6958 10.8 37.0999 10.7458 36.5708 10.7583H35.1333L34.6999 13.1125L32.7374 23.75C32.4166 25.425 31.7958 25.6791 31.2041 25.7041H30.6916C30.4166 25.7041 30.3999 25.6041 30.4624 25.2125L32.1041 15.9333L32.9083 11.3541L33.0208 10.7541H31.6041C31.2958 10.7541 31.1333 10.5166 31.2958 10.1625C31.5249 9.20414 32.4208 9.1708 32.7749 9.1708L33.2708 9.17497V9.16664L33.5999 7.29997C33.6291 7.1333 33.6666 6.9708 33.7124 6.81247C34.1249 5.36247 35.1374 4.42497 36.3083 3.99164C36.8124 3.8083 37.3416 3.71247 37.8666 3.71247C38.4083 3.71247 38.8333 3.6708 39.0666 3.7458C39.3791 3.81664 39.5458 4.09997 39.4249 4.4583Z" fill="white"/>
<path d="M41.7458 4.39164C41.8166 4.01247 42.0166 3.70414 42.4458 3.70414H43.2999C43.7999 3.6833 43.9666 3.98747 43.8874 4.3208L41.0583 20.6208C40.9874 21 40.7041 21.2375 40.3499 21.2375H39.4083C39.0541 21.2375 38.8666 21 38.9374 20.6208L41.7458 4.39164Z" fill="white"/>
<path d="M46.4127 9.65827C46.4835 9.2541 46.7419 9.0166 47.096 9.0166H48.0377C48.3919 9.0166 48.6044 9.2541 48.5335 9.65827L47.3335 16.4666C46.9794 18.5791 47.7794 19.6208 49.2169 19.6208C50.6544 19.6208 51.8794 18.5791 52.2335 16.4666L53.4335 9.63327C53.5044 9.2541 53.7877 9.0166 54.1419 9.0166H55.0835C55.4377 9.0166 55.6252 9.2541 55.5544 9.65827L54.3502 16.5874C53.7835 19.8166 51.6377 21.5458 48.9044 21.5458C46.3585 21.5458 44.6127 19.8166 45.1794 16.5874L46.4127 9.65827Z" fill="white"/>
<path d="M58.2916 13.6712C58.8332 10.4462 60.9791 8.71289 63.7374 8.71289C66.0249 8.71289 68.0041 10.4462 67.4374 13.6712L66.2374 20.6212C66.1666 21.0004 65.8832 21.2379 65.5291 21.2379H64.5874C64.2332 21.2379 64.0457 21.0004 64.1166 20.6212L65.2957 13.7879C65.6749 11.6754 64.7999 10.6337 63.3874 10.6337C61.9249 10.6337 60.7707 11.6754 60.4166 13.7879L59.2166 20.5962C59.1457 21.0004 58.8624 21.2379 58.5082 21.2379H57.5666C57.2124 21.2379 57.0249 21.0004 57.0957 20.6212L58.2916 13.6712Z" fill="white"/>
<path d="M70.0541 16.4212L70.5 13.8129C71.0666 10.5171 73.2333 8.71289 76.0875 8.71289C78.375 8.71289 80.4708 10.5171 79.9041 13.8129L78.725 20.6212C78.6541 21.0254 78.3958 21.2379 78.0166 21.2379H77.3791C76.9541 21.2379 76.7666 21.0004 76.7916 20.5754L76.8333 20.2046C76.175 20.9379 75.0708 21.5504 73.5875 21.5504C71.4458 21.5462 69.4416 19.9337 70.0541 16.4212ZM77.3291 16.3754L77.7625 13.9296C78.1625 11.7004 77.1958 10.6337 75.7583 10.6337C74.3458 10.6337 73 11.7004 72.6 13.9296L72.2 16.3004C71.775 18.7462 72.7208 19.5962 74.1083 19.5962C75.3125 19.6004 76.8583 18.4879 77.3291 16.3754Z" fill="white"/>
</g>
<defs>
<clipPath id="clip0_120_1415">
<rect width="80" height="25.7" fill="white"/>
</clipPath>
</defs>
</svg>
