<svg width="120" height="31" viewBox="0 0 120 31" fill="none" xmlns="http://www.w3.org/2000/svg">
<path fill-rule="evenodd" clip-rule="evenodd" d="M0 0H30.0185V30.0185H0V0ZM2.00123 2.00123V28.0172H28.0172V2.00123H2.00123Z" fill="white"/>
<path fill-rule="evenodd" clip-rule="evenodd" d="M11.4614 11.8254V10.8387C12.3327 10.3152 13.0241 9.36297 13.3804 8.18677H14.0084V11.8254H11.4614ZM14.0084 11.8254L11.4614 14.3724V16.3736C11.4614 19.2875 13.8236 21.6496 16.7374 21.6496H18.7386V19.1026H16.7374C15.2302 19.1026 14.0084 17.8808 14.0084 16.3736V14.3724H18.7386V11.8254H14.0084Z" fill="white"/>
<path d="M41.8294 23.0324C40.7232 23.0324 39.8209 22.7268 39.1223 22.1155C38.4382 21.4897 38.0962 20.5873 38.0962 19.4084V14.147H35.8257V12.0075H38.0962V8.97287H40.4976V12.0075H43.6196V14.147H40.4976V19.0154C40.4976 19.6849 40.6432 20.1652 40.9343 20.4563C41.2254 20.7328 41.6911 20.8711 42.3315 20.8711C42.8555 20.8711 43.2848 20.7983 43.6196 20.6528V22.7923C43.0956 22.9524 42.4989 23.0324 41.8294 23.0324Z" fill="white"/>
<path d="M50.2233 23.1416C48.7387 23.1416 47.4871 22.5885 46.4683 21.4824C45.464 20.3763 44.9619 19.0372 44.9619 17.4654C44.9619 15.8935 45.464 14.5545 46.4683 13.4484C47.4871 12.3422 48.7387 11.7891 50.2233 11.7891C50.9656 11.7891 51.6496 11.9565 52.2755 12.2913C52.9013 12.6115 53.3816 13.0044 53.7164 13.4702V12.0075H56.1178V22.9233H53.7164V21.4606C53.3816 21.9263 52.9013 22.3265 52.2755 22.6613C51.6496 22.9815 50.9656 23.1416 50.2233 23.1416ZM48.3239 19.9542C48.9352 20.6237 49.7139 20.9584 50.6599 20.9584C51.606 20.9584 52.3846 20.6237 52.9959 19.9542C53.6072 19.2847 53.9128 18.4551 53.9128 17.4654C53.9128 16.4757 53.6072 15.6461 52.9959 14.9766C52.3846 14.3071 51.606 13.9723 50.6599 13.9723C49.7139 13.9723 48.9352 14.3071 48.3239 14.9766C47.7127 15.6461 47.407 16.4757 47.407 17.4654C47.407 18.4551 47.7127 19.2847 48.3239 19.9542Z" fill="white"/>
<path d="M59.3713 22.9233V6.54956H61.7727V22.9233H59.3713Z" fill="white"/>
<path d="M68.4709 23.1416C67.4667 23.1416 66.5789 22.9524 65.8075 22.574C65.0361 22.181 64.4612 21.5988 64.0828 20.8274L65.8511 19.5612C66.0695 20.0269 66.4188 20.3981 66.8991 20.6746C67.3794 20.9366 67.9033 21.0676 68.4709 21.0676C68.9221 21.0676 69.2933 20.9657 69.5844 20.7619C69.89 20.5582 70.0428 20.2744 70.0428 19.9105C70.0428 19.5903 69.9191 19.3283 69.6717 19.1246C69.4388 18.9208 69.0022 18.7171 68.3618 18.5133L67.4012 18.2513C65.4655 17.7274 64.5121 16.6139 64.5413 14.9111C64.5413 13.965 64.9124 13.2082 65.6547 12.6406C66.3969 12.073 67.3284 11.7891 68.4491 11.7891C70.1374 11.7891 71.3673 12.4077 72.1387 13.6448L70.4795 14.9111C69.9264 14.1688 69.2351 13.7977 68.4054 13.7977C68.0125 13.7977 67.6705 13.8923 67.3794 14.0815C67.0883 14.2561 66.9427 14.5035 66.9427 14.8237C66.9427 15.1148 67.0373 15.3623 67.2265 15.566C67.4157 15.7698 67.7578 15.9517 68.2526 16.1118L69.366 16.4393C70.3848 16.7449 71.149 17.1597 71.6584 17.6837C72.1678 18.1931 72.4225 18.8844 72.4225 19.7577C72.4225 20.7911 72.0513 21.6134 71.3091 22.2247C70.5668 22.8359 69.6207 23.1416 68.4709 23.1416Z" fill="white"/>
<path d="M79.5017 23.0324C78.3956 23.0324 77.4932 22.7268 76.7946 22.1155C76.1105 21.4897 75.7685 20.5873 75.7685 19.4084V14.147H73.498V12.0075H75.7685V8.97287H78.17V12.0075H81.2919V14.147H78.17V19.0154C78.17 19.6849 78.3155 20.1652 78.6066 20.4563C78.8977 20.7328 79.3634 20.8711 80.0038 20.8711C80.5278 20.8711 80.9572 20.7983 81.2919 20.6528V22.7923C80.7679 22.9524 80.1712 23.0324 79.5017 23.0324Z" fill="white"/>
<path d="M87.8956 23.1416C86.4111 23.1416 85.1594 22.5885 84.1406 21.4824C83.1363 20.3763 82.6342 19.0372 82.6342 17.4654C82.6342 15.8935 83.1363 14.5545 84.1406 13.4484C85.1594 12.3422 86.4111 11.7891 87.8956 11.7891C88.6379 11.7891 89.322 11.9565 89.9478 12.2913C90.5736 12.6115 91.0539 13.0044 91.3887 13.4702V12.0075H93.7902V22.9233H91.3887V21.4606C91.0539 21.9263 90.5736 22.3265 89.9478 22.6613C89.322 22.9815 88.6379 23.1416 87.8956 23.1416ZM85.9963 19.9542C86.6076 20.6237 87.3862 20.9584 88.3323 20.9584C89.2783 20.9584 90.057 20.6237 90.6682 19.9542C91.2795 19.2847 91.5852 18.4551 91.5852 17.4654C91.5852 16.4757 91.2795 15.6461 90.6682 14.9766C90.057 14.3071 89.2783 13.9723 88.3323 13.9723C87.3862 13.9723 86.6076 14.3071 85.9963 14.9766C85.385 15.6461 85.0793 16.4757 85.0793 17.4654C85.0793 18.4551 85.385 19.2847 85.9963 19.9542Z" fill="white"/>
<path d="M102.021 23.1416C100.377 23.1416 99.0011 22.6031 97.895 21.5261C96.8034 20.4345 96.2576 19.0809 96.2576 17.4654C96.2576 15.8498 96.8034 14.5035 97.895 13.4265C99.0011 12.3349 100.377 11.7891 102.021 11.7891C103.142 11.7891 104.146 12.0584 105.034 12.5969C105.936 13.1354 106.628 13.8704 107.108 14.8019L105.012 15.9372C104.736 15.355 104.335 14.8892 103.811 14.5399C103.287 14.1906 102.691 14.016 102.021 14.016C101.061 14.016 100.267 14.3507 99.6415 15.0202C99.0157 15.6752 98.7028 16.4902 98.7028 17.4654C98.7028 18.4405 99.0157 19.2628 99.6415 19.9323C100.267 20.5873 101.061 20.9148 102.021 20.9148C102.691 20.9148 103.287 20.7401 103.811 20.3908C104.335 20.0415 104.736 19.5758 105.012 18.9936L107.108 20.1288C106.628 21.0603 105.936 21.7953 105.034 22.3338C104.146 22.8723 103.142 23.1416 102.021 23.1416Z" fill="white"/>
<path d="M116.922 22.9233L111.704 17.6619V22.9233H109.303V6.54956H111.704V16.1555L115.874 12.0075H118.908L114.04 16.8759L120 22.9233H116.922Z" fill="white"/>
</svg>
