<svg id="logo" width="120" height="31" viewBox="0 0 120 31" fill="none" xmlns="http://www.w3.org/2000/svg">
<path fill-rule="evenodd" clip-rule="evenodd" d="M0 0H30.0185V30.0185H0V0ZM2.00123 2.00123V28.0172H28.0172V2.00123H2.00123Z" fill="#1A182B"/>
<path fill-rule="evenodd" clip-rule="evenodd" d="M11.4614 11.8251V10.8385C12.3327 10.315 13.0241 9.36272 13.3804 8.18652H14.0084V11.8251H11.4614ZM14.0084 11.8251L11.4614 14.3721V16.3734C11.4614 19.2872 13.8236 21.6494 16.7374 21.6494H18.7386V19.1023H16.7374C15.2302 19.1023 14.0084 17.8805 14.0084 16.3734V14.3721H18.7386V11.8251H14.0084Z" fill="#1A182B"/>
<path d="M41.8294 23.0327C40.7232 23.0327 39.8209 22.727 39.1223 22.1157C38.4382 21.4899 38.0962 20.5875 38.0962 19.4086V14.1472H35.8257V12.0077H38.0962V8.97311H40.4976V12.0077H43.6196V14.1472H40.4976V19.0157C40.4976 19.6852 40.6432 20.1655 40.9343 20.4565C41.2254 20.7331 41.6911 20.8713 42.3315 20.8713C42.8555 20.8713 43.2848 20.7986 43.6196 20.653V22.7925C43.0956 22.9526 42.4989 23.0327 41.8294 23.0327Z" fill="#1A182B"/>
<path d="M50.2233 23.1418C48.7387 23.1418 47.4871 22.5888 46.4683 21.4826C45.464 20.3765 44.9619 19.0375 44.9619 17.4656C44.9619 15.8937 45.464 14.5547 46.4683 13.4486C47.4871 12.3425 48.7387 11.7894 50.2233 11.7894C50.9656 11.7894 51.6496 11.9568 52.2755 12.2915C52.9013 12.6117 53.3816 13.0047 53.7164 13.4704V12.0077H56.1178V22.9235H53.7164V21.4608C53.3816 21.9265 52.9013 22.3268 52.2755 22.6615C51.6496 22.9817 50.9656 23.1418 50.2233 23.1418ZM48.3239 19.9544C48.9352 20.6239 49.7139 20.9587 50.6599 20.9587C51.606 20.9587 52.3846 20.6239 52.9959 19.9544C53.6072 19.2849 53.9128 18.4553 53.9128 17.4656C53.9128 16.4759 53.6072 15.6463 52.9959 14.9768C52.3846 14.3073 51.606 13.9726 50.6599 13.9726C49.7139 13.9726 48.9352 14.3073 48.3239 14.9768C47.7127 15.6463 47.407 16.4759 47.407 17.4656C47.407 18.4553 47.7127 19.2849 48.3239 19.9544Z" fill="#1A182B"/>
<path d="M59.3713 22.9235V6.5498H61.7727V22.9235H59.3713Z" fill="#1A182B"/>
<path d="M68.4709 23.1418C67.4667 23.1418 66.5789 22.9526 65.8075 22.5742C65.0361 22.1812 64.4612 21.5991 64.0828 20.8277L65.8511 19.5615C66.0695 20.0272 66.4188 20.3983 66.8991 20.6749C67.3794 20.9368 67.9033 21.0678 68.4709 21.0678C68.9221 21.0678 69.2933 20.966 69.5844 20.7622C69.89 20.5584 70.0428 20.2746 70.0428 19.9108C70.0428 19.5906 69.9191 19.3286 69.6717 19.1248C69.4388 18.9211 69.0022 18.7173 68.3618 18.5135L67.4012 18.2516C65.4655 17.7276 64.5121 16.6142 64.5413 14.9113C64.5413 13.9653 64.9124 13.2084 65.6547 12.6408C66.3969 12.0732 67.3284 11.7894 68.4491 11.7894C70.1374 11.7894 71.3673 12.408 72.1387 13.6451L70.4795 14.9113C69.9264 14.169 69.2351 13.7979 68.4054 13.7979C68.0125 13.7979 67.6705 13.8925 67.3794 14.0817C67.0883 14.2564 66.9427 14.5038 66.9427 14.824C66.9427 15.1151 67.0373 15.3625 67.2265 15.5663C67.4157 15.77 67.7578 15.952 68.2526 16.1121L69.366 16.4395C70.3848 16.7452 71.149 17.16 71.6584 17.6839C72.1678 18.1933 72.4225 18.8847 72.4225 19.7579C72.4225 20.7913 72.0513 21.6136 71.3091 22.2249C70.5668 22.8362 69.6207 23.1418 68.4709 23.1418Z" fill="#1A182B"/>
<path d="M79.5017 23.0327C78.3956 23.0327 77.4932 22.727 76.7946 22.1157C76.1105 21.4899 75.7685 20.5875 75.7685 19.4086V14.1472H73.498V12.0077H75.7685V8.97311H78.17V12.0077H81.2919V14.1472H78.17V19.0157C78.17 19.6852 78.3155 20.1655 78.6066 20.4565C78.8977 20.7331 79.3634 20.8713 80.0038 20.8713C80.5278 20.8713 80.9572 20.7986 81.2919 20.653V22.7925C80.7679 22.9526 80.1712 23.0327 79.5017 23.0327Z" fill="#1A182B"/>
<path d="M87.8956 23.1418C86.4111 23.1418 85.1594 22.5888 84.1406 21.4826C83.1363 20.3765 82.6342 19.0375 82.6342 17.4656C82.6342 15.8937 83.1363 14.5547 84.1406 13.4486C85.1594 12.3425 86.4111 11.7894 87.8956 11.7894C88.6379 11.7894 89.322 11.9568 89.9478 12.2915C90.5736 12.6117 91.0539 13.0047 91.3887 13.4704V12.0077H93.7902V22.9235H91.3887V21.4608C91.0539 21.9265 90.5736 22.3268 89.9478 22.6615C89.322 22.9817 88.6379 23.1418 87.8956 23.1418ZM85.9963 19.9544C86.6076 20.6239 87.3862 20.9587 88.3323 20.9587C89.2783 20.9587 90.057 20.6239 90.6682 19.9544C91.2795 19.2849 91.5852 18.4553 91.5852 17.4656C91.5852 16.4759 91.2795 15.6463 90.6682 14.9768C90.057 14.3073 89.2783 13.9726 88.3323 13.9726C87.3862 13.9726 86.6076 14.3073 85.9963 14.9768C85.385 15.6463 85.0793 16.4759 85.0793 17.4656C85.0793 18.4553 85.385 19.2849 85.9963 19.9544Z" fill="#1A182B"/>
<path d="M102.021 23.1418C100.377 23.1418 99.0011 22.6033 97.895 21.5263C96.8034 20.4347 96.2576 19.0812 96.2576 17.4656C96.2576 15.8501 96.8034 14.5038 97.895 13.4268C99.0011 12.3352 100.377 11.7894 102.021 11.7894C103.142 11.7894 104.146 12.0587 105.034 12.5972C105.936 13.1357 106.628 13.8707 107.108 14.8022L105.012 15.9374C104.736 15.3552 104.335 14.8895 103.811 14.5402C103.287 14.1909 102.691 14.0162 102.021 14.0162C101.061 14.0162 100.267 14.351 99.6415 15.0205C99.0157 15.6754 98.7028 16.4905 98.7028 17.4656C98.7028 18.4408 99.0157 19.2631 99.6415 19.9326C100.267 20.5875 101.061 20.915 102.021 20.915C102.691 20.915 103.287 20.7404 103.811 20.3911C104.335 20.0417 104.736 19.576 105.012 18.9938L107.108 20.1291C106.628 21.0606 105.936 21.7956 105.034 22.3341C104.146 22.8726 103.142 23.1418 102.021 23.1418Z" fill="#1A182B"/>
<path d="M116.922 22.9235L111.704 17.6621V22.9235H109.303V6.5498H111.704V16.1557L115.874 12.0077H118.908L114.04 16.8762L120 22.9235H116.922Z" fill="#1A182B"/>
</svg>
