<svg width="28" height="44" viewBox="0 0 28 44" fill="none" xmlns="http://www.w3.org/2000/svg">
<path d="M11.977 31.1006C15.2312 30.3562 18.6361 28.7075 21.3215 26.4639C24.2284 24.0352 26.5 20.7224 26.5 16.9067C26.5 13.0911 24.2284 9.77834 21.3215 7.34962C18.3967 4.906 14.6186 3.16822 11.1112 2.53558C9.95009 2.32615 9.03899 3.04287 8.74189 3.92983C8.67106 4.14126 8.63321 4.36496 8.62991 4.59121C6.29059 4.39381 4.25479 6.14221 4.05297 8.47107L1.51619 37.7436C1.31405 40.0761 3.02418 42.1559 5.36856 42.363L6.7329 42.4835C9.07928 42.6907 11.1244 40.9395 11.3267 38.6051L11.977 31.1006ZM12.4809 25.2858L13.8463 9.53034C14.4482 10.0084 15.0485 10.5161 15.6224 11.0521C17.7351 13.0254 19.0841 15.0248 19.0841 16.9067C19.0841 18.7219 17.7995 20.6583 15.7586 22.5916C14.7085 23.5863 13.5637 24.4858 12.4809 25.2858Z" stroke="white" stroke-width="3"/>
</svg>
