<svg width="348" height="251" viewBox="0 0 348 251" fill="none" xmlns="http://www.w3.org/2000/svg">
<path d="M25 40C25 17.9086 42.9086 0 65 0H295C317.091 0 335 17.9086 335 40V251H25V40Z" fill="white"/>
<path d="M41 40C41 26.7452 51.7452 16 65 16H295C308.255 16 319 26.7452 319 40V251H41V40Z" fill="#F1EFF0"/>
<rect x="183" y="64" width="165" height="42" rx="20" fill="#1A182B"/>
<path d="M216.54 88.62H210.7L209.54 92H207.12L212.38 77.7H214.88L220.12 92H217.7L216.54 88.62ZM211.36 86.64H215.9L213.66 79.88H213.62L211.36 86.64ZM227.162 81.5C229.062 81.5 230.562 82.6 230.562 84.94V92H228.442V85.54C228.442 84.16 227.862 83.28 226.422 83.28C224.802 83.28 223.762 84.26 223.762 85.78V92H221.662V81.78H223.762V83.1H223.802C224.342 82.3 225.402 81.5 227.162 81.5ZM238.382 81.5C240.282 81.5 241.782 82.6 241.782 84.94V92H239.662V85.54C239.662 84.16 239.082 83.28 237.642 83.28C236.022 83.28 234.982 84.26 234.982 85.78V92H232.882V81.78H234.982V83.1H235.022C235.562 82.3 236.622 81.5 238.382 81.5ZM250.822 81.78H252.922V92H250.822V90.68H250.782C250.242 91.48 249.182 92.28 247.422 92.28C245.522 92.28 244.022 91.18 244.022 88.84V81.78H246.142V88.24C246.142 89.62 246.722 90.5 248.162 90.5C249.782 90.5 250.822 89.52 250.822 88V81.78ZM261.503 84.46C261.503 83.72 261.063 83.16 259.663 83.16C257.983 83.16 257.363 83.68 257.263 85H255.223C255.323 83.04 256.583 81.5 259.663 81.5C261.923 81.5 263.603 82.36 263.603 85.08V89.94C263.603 90.66 263.763 91.04 264.583 90.96V91.96C264.103 92.14 263.763 92.18 263.363 92.18C262.243 92.18 261.723 91.78 261.523 90.78H261.483C260.843 91.68 259.683 92.3 258.103 92.3C256.023 92.3 254.743 91.1 254.743 89.38C254.743 87.14 256.403 86.44 258.963 85.94C260.543 85.64 261.503 85.44 261.503 84.46ZM258.563 90.64C260.303 90.64 261.503 89.78 261.503 88.12V86.58C261.163 86.82 260.343 87.06 259.363 87.26C257.623 87.64 256.863 88.14 256.863 89.18C256.863 90.12 257.423 90.64 258.563 90.64ZM266.251 77.7H268.371V92H266.251V77.7ZM275.239 92V77.7H281.319C284.059 77.7 286.039 78.98 286.039 81.98C286.039 84.98 284.059 86.28 281.319 86.28H277.619V92H275.239ZM277.619 79.72V84.24H281.219C282.819 84.24 283.659 83.56 283.659 81.98C283.659 80.42 282.819 79.72 281.219 79.72H277.619ZM287.842 77.7H289.962V92H287.842V77.7ZM298.581 84.46C298.581 83.72 298.141 83.16 296.741 83.16C295.061 83.16 294.441 83.68 294.341 85H292.301C292.401 83.04 293.661 81.5 296.741 81.5C299.001 81.5 300.681 82.36 300.681 85.08V89.94C300.681 90.66 300.841 91.04 301.661 90.96V91.96C301.181 92.14 300.841 92.18 300.441 92.18C299.321 92.18 298.801 91.78 298.601 90.78H298.561C297.921 91.68 296.761 92.3 295.181 92.3C293.101 92.3 291.821 91.1 291.821 89.38C291.821 87.14 293.481 86.44 296.041 85.94C297.621 85.64 298.581 85.44 298.581 84.46ZM295.641 90.64C297.381 90.64 298.581 89.78 298.581 88.12V86.58C298.241 86.82 297.421 87.06 296.441 87.26C294.701 87.64 293.941 88.14 293.941 89.18C293.941 90.12 294.501 90.64 295.641 90.64ZM308.789 81.5C310.689 81.5 312.189 82.6 312.189 84.94V92H310.069V85.54C310.069 84.16 309.489 83.28 308.049 83.28C306.429 83.28 305.389 84.26 305.389 85.78V92H303.289V81.78H305.389V83.1H305.429C305.969 82.3 307.029 81.5 308.789 81.5ZM318.929 85.82C320.809 86.26 322.849 86.68 322.849 89.12C322.849 91.08 321.169 92.3 318.689 92.3C315.389 92.3 313.969 90.76 313.869 88.6H315.909C316.009 89.7 316.489 90.64 318.649 90.64C320.109 90.64 320.729 89.92 320.729 89.28C320.729 88 319.509 87.9 318.009 87.54C316.389 87.16 314.189 86.84 314.189 84.52C314.189 82.84 315.669 81.5 318.229 81.5C321.009 81.5 322.329 83 322.469 84.78H320.429C320.289 83.98 319.889 83.16 318.249 83.16C316.989 83.16 316.309 83.64 316.309 84.36C316.309 85.4 317.449 85.48 318.929 85.82Z" fill="black"/>
<rect x="180" y="56" width="165" height="42" rx="20" fill="#FFB885"/>
<path d="M213.54 80.62H207.7L206.54 84H204.12L209.38 69.7H211.88L217.12 84H214.7L213.54 80.62ZM208.36 78.64H212.9L210.66 71.88H210.62L208.36 78.64ZM224.162 73.5C226.062 73.5 227.562 74.6 227.562 76.94V84H225.442V77.54C225.442 76.16 224.862 75.28 223.422 75.28C221.802 75.28 220.762 76.26 220.762 77.78V84H218.662V73.78H220.762V75.1H220.802C221.342 74.3 222.402 73.5 224.162 73.5ZM235.382 73.5C237.282 73.5 238.782 74.6 238.782 76.94V84H236.662V77.54C236.662 76.16 236.082 75.28 234.642 75.28C233.022 75.28 231.982 76.26 231.982 77.78V84H229.882V73.78H231.982V75.1H232.022C232.562 74.3 233.622 73.5 235.382 73.5ZM247.822 73.78H249.922V84H247.822V82.68H247.782C247.242 83.48 246.182 84.28 244.422 84.28C242.522 84.28 241.022 83.18 241.022 80.84V73.78H243.142V80.24C243.142 81.62 243.722 82.5 245.162 82.5C246.782 82.5 247.822 81.52 247.822 80V73.78ZM258.503 76.46C258.503 75.72 258.063 75.16 256.663 75.16C254.983 75.16 254.363 75.68 254.263 77H252.223C252.323 75.04 253.583 73.5 256.663 73.5C258.923 73.5 260.603 74.36 260.603 77.08V81.94C260.603 82.66 260.763 83.04 261.583 82.96V83.96C261.103 84.14 260.763 84.18 260.363 84.18C259.243 84.18 258.723 83.78 258.523 82.78H258.483C257.843 83.68 256.683 84.3 255.103 84.3C253.023 84.3 251.743 83.1 251.743 81.38C251.743 79.14 253.403 78.44 255.963 77.94C257.543 77.64 258.503 77.44 258.503 76.46ZM255.563 82.64C257.303 82.64 258.503 81.78 258.503 80.12V78.58C258.163 78.82 257.343 79.06 256.363 79.26C254.623 79.64 253.863 80.14 253.863 81.18C253.863 82.12 254.423 82.64 255.563 82.64ZM263.251 69.7H265.371V84H263.251V69.7ZM272.239 84V69.7H278.319C281.059 69.7 283.039 70.98 283.039 73.98C283.039 76.98 281.059 78.28 278.319 78.28H274.619V84H272.239ZM274.619 71.72V76.24H278.219C279.819 76.24 280.659 75.56 280.659 73.98C280.659 72.42 279.819 71.72 278.219 71.72H274.619ZM284.842 69.7H286.962V84H284.842V69.7ZM295.581 76.46C295.581 75.72 295.141 75.16 293.741 75.16C292.061 75.16 291.441 75.68 291.341 77H289.301C289.401 75.04 290.661 73.5 293.741 73.5C296.001 73.5 297.681 74.36 297.681 77.08V81.94C297.681 82.66 297.841 83.04 298.661 82.96V83.96C298.181 84.14 297.841 84.18 297.441 84.18C296.321 84.18 295.801 83.78 295.601 82.78H295.561C294.921 83.68 293.761 84.3 292.181 84.3C290.101 84.3 288.821 83.1 288.821 81.38C288.821 79.14 290.481 78.44 293.041 77.94C294.621 77.64 295.581 77.44 295.581 76.46ZM292.641 82.64C294.381 82.64 295.581 81.78 295.581 80.12V78.58C295.241 78.82 294.421 79.06 293.441 79.26C291.701 79.64 290.941 80.14 290.941 81.18C290.941 82.12 291.501 82.64 292.641 82.64ZM305.789 73.5C307.689 73.5 309.189 74.6 309.189 76.94V84H307.069V77.54C307.069 76.16 306.489 75.28 305.049 75.28C303.429 75.28 302.389 76.26 302.389 77.78V84H300.289V73.78H302.389V75.1H302.429C302.969 74.3 304.029 73.5 305.789 73.5ZM315.929 77.82C317.809 78.26 319.849 78.68 319.849 81.12C319.849 83.08 318.169 84.3 315.689 84.3C312.389 84.3 310.969 82.76 310.869 80.6H312.909C313.009 81.7 313.489 82.64 315.649 82.64C317.109 82.64 317.729 81.92 317.729 81.28C317.729 80 316.509 79.9 315.009 79.54C313.389 79.16 311.189 78.84 311.189 76.52C311.189 74.84 312.669 73.5 315.229 73.5C318.009 73.5 319.329 75 319.469 76.78H317.429C317.289 75.98 316.889 75.16 315.249 75.16C313.989 75.16 313.309 75.64 313.309 76.36C313.309 77.4 314.449 77.48 315.929 77.82Z" fill="black"/>
<rect x="3" y="159" width="217" height="42" rx="20" fill="#1A182B"/>
<path d="M62.54 183.62H56.7L55.54 187H53.12L58.38 172.7H60.88L66.12 187H63.7L62.54 183.62ZM57.36 181.64H61.9L59.66 174.88H59.62L57.36 181.64ZM73.1617 176.5C75.0617 176.5 76.5617 177.6 76.5617 179.94V187H74.4417V180.54C74.4417 179.16 73.8617 178.28 72.4217 178.28C70.8017 178.28 69.7617 179.26 69.7617 180.78V187H67.6617V176.78H69.7617V178.1H69.8017C70.3417 177.3 71.4017 176.5 73.1617 176.5ZM84.382 176.5C86.282 176.5 87.782 177.6 87.782 179.94V187H85.662V180.54C85.662 179.16 85.082 178.28 83.642 178.28C82.022 178.28 80.982 179.26 80.982 180.78V187H78.882V176.78H80.982V178.1H81.022C81.562 177.3 82.622 176.5 84.382 176.5ZM96.8223 176.78H98.9223V187H96.8223V185.68H96.7823C96.2423 186.48 95.1823 187.28 93.4223 187.28C91.5223 187.28 90.0223 186.18 90.0223 183.84V176.78H92.1423V183.24C92.1423 184.62 92.7223 185.5 94.1623 185.5C95.7823 185.5 96.8223 184.52 96.8223 183V176.78ZM107.503 179.46C107.503 178.72 107.063 178.16 105.663 178.16C103.983 178.16 103.363 178.68 103.263 180H101.223C101.323 178.04 102.583 176.5 105.663 176.5C107.923 176.5 109.603 177.36 109.603 180.08V184.94C109.603 185.66 109.763 186.04 110.583 185.96V186.96C110.103 187.14 109.763 187.18 109.363 187.18C108.243 187.18 107.723 186.78 107.523 185.78H107.483C106.843 186.68 105.683 187.3 104.103 187.3C102.023 187.3 100.743 186.1 100.743 184.38C100.743 182.14 102.403 181.44 104.963 180.94C106.543 180.64 107.503 180.44 107.503 179.46ZM104.563 185.64C106.303 185.64 107.503 184.78 107.503 183.12V181.58C107.163 181.82 106.343 182.06 105.363 182.26C103.623 182.64 102.863 183.14 102.863 184.18C102.863 185.12 103.423 185.64 104.563 185.64ZM112.251 172.7H114.371V187H112.251V172.7ZM121.239 187V172.7H127.319C130.059 172.7 132.039 173.98 132.039 176.98C132.039 179.98 130.059 181.28 127.319 181.28H123.619V187H121.239ZM123.619 174.72V179.24H127.219C128.819 179.24 129.659 178.56 129.659 176.98C129.659 175.42 128.819 174.72 127.219 174.72H123.619ZM133.842 172.7H135.962V187H133.842V172.7ZM144.581 179.46C144.581 178.72 144.141 178.16 142.741 178.16C141.061 178.16 140.441 178.68 140.341 180H138.301C138.401 178.04 139.661 176.5 142.741 176.5C145.001 176.5 146.681 177.36 146.681 180.08V184.94C146.681 185.66 146.841 186.04 147.661 185.96V186.96C147.181 187.14 146.841 187.18 146.441 187.18C145.321 187.18 144.801 186.78 144.601 185.78H144.561C143.921 186.68 142.761 187.3 141.181 187.3C139.101 187.3 137.821 186.1 137.821 184.38C137.821 182.14 139.481 181.44 142.041 180.94C143.621 180.64 144.581 180.44 144.581 179.46ZM141.641 185.64C143.381 185.64 144.581 184.78 144.581 183.12V181.58C144.241 181.82 143.421 182.06 142.441 182.26C140.701 182.64 139.941 183.14 139.941 184.18C139.941 185.12 140.501 185.64 141.641 185.64ZM154.789 176.5C156.689 176.5 158.189 177.6 158.189 179.94V187H156.069V180.54C156.069 179.16 155.489 178.28 154.049 178.28C152.429 178.28 151.389 179.26 151.389 180.78V187H149.289V176.78H151.389V178.1H151.429C151.969 177.3 153.029 176.5 154.789 176.5ZM164.929 180.82C166.809 181.26 168.849 181.68 168.849 184.12C168.849 186.08 167.169 187.3 164.689 187.3C161.389 187.3 159.969 185.76 159.869 183.6H161.909C162.009 184.7 162.489 185.64 164.649 185.64C166.109 185.64 166.729 184.92 166.729 184.28C166.729 183 165.509 182.9 164.009 182.54C162.389 182.16 160.189 181.84 160.189 179.52C160.189 177.84 161.669 176.5 164.229 176.5C167.009 176.5 168.329 178 168.469 179.78H166.429C166.289 178.98 165.889 178.16 164.249 178.16C162.989 178.16 162.309 178.64 162.309 179.36C162.309 180.4 163.449 180.48 164.929 180.82Z" fill="black"/>
<rect y="151" width="217" height="42" rx="20" fill="#FFF6A3"/>
<path d="M30.64 170.48C33.7 171.26 36.02 171.92 36.02 175.12C36.02 177.4 34.3 179.3 30.7 179.3C27.2 179.3 24.54 177.48 24.4 174.24H26.78C26.9 176.06 28.14 177.26 30.7 177.26C32.82 177.26 33.64 176.32 33.64 175.22C33.64 173.52 32.42 173.2 29.6 172.5C27.36 171.94 24.94 171.08 24.94 168.36C24.94 165.82 26.9 164.4 30.02 164.4C33.16 164.4 35.44 166.04 35.64 168.98H33.26C33.04 167.32 32 166.44 30.02 166.44C28.32 166.44 27.3 167.08 27.3 168.14C27.3 169.7 28.64 169.98 30.64 170.48ZM42.6153 177.58C44.3553 177.58 45.0553 176.5 45.2353 175.88H47.3353C46.8153 177.82 45.2953 179.3 42.6753 179.3C39.4953 179.3 37.5553 177.1 37.5553 173.9C37.5553 170.58 39.4953 168.5 42.5753 168.5C45.8753 168.5 47.4953 170.8 47.4953 174.44H39.6553C39.6553 176.16 40.7553 177.58 42.6153 177.58ZM42.5753 170.16C40.8753 170.16 39.6553 171.3 39.6553 172.88H45.3953C45.3953 171.3 44.2753 170.16 42.5753 170.16ZM60.6152 168.5C62.6752 168.5 63.7352 169.74 63.7352 171.94V179H61.6152V172.54C61.6152 171.16 61.3352 170.28 59.8952 170.28C58.4752 170.28 57.5952 171.26 57.5952 172.78V179H55.4752V172.54C55.4752 171.16 55.1952 170.28 53.7352 170.28C52.3352 170.28 51.4352 171.26 51.4352 172.78V179H49.3352V168.78H51.4352V170.1H51.4752C52.0152 169.3 52.9752 168.5 54.5152 168.5C55.9552 168.5 56.8152 169.16 57.2352 170.26H57.2752C58.0352 169.28 59.0352 168.5 60.6152 168.5ZM67.2628 167.06C66.6828 167.06 66.0828 166.66 66.0828 165.94C66.0828 165.22 66.6828 164.84 67.2628 164.84C67.8828 164.84 68.4628 165.22 68.4628 165.94C68.4628 166.66 67.8828 167.06 67.2628 167.06ZM66.2228 168.78H68.3228V179H66.2228V168.78ZM70.5778 172.94H75.9578V174.9H70.5778V172.94ZM86.2236 175.62H80.3836L79.2236 179H76.8036L82.0636 164.7H84.5636L89.8036 179H87.3836L86.2236 175.62ZM81.0436 173.64H85.5836L83.3436 166.88H83.3036L81.0436 173.64ZM96.8453 168.5C98.7453 168.5 100.245 169.6 100.245 171.94V179H98.1253V172.54C98.1253 171.16 97.5453 170.28 96.1053 170.28C94.4853 170.28 93.4453 171.26 93.4453 172.78V179H91.3453V168.78H93.4453V170.1H93.4853C94.0253 169.3 95.0853 168.5 96.8453 168.5ZM108.066 168.5C109.966 168.5 111.466 169.6 111.466 171.94V179H109.346V172.54C109.346 171.16 108.766 170.28 107.326 170.28C105.706 170.28 104.666 171.26 104.666 172.78V179H102.566V168.78H104.666V170.1H104.706C105.246 169.3 106.306 168.5 108.066 168.5ZM120.506 168.78H122.606V179H120.506V177.68H120.466C119.926 178.48 118.866 179.28 117.106 179.28C115.206 179.28 113.706 178.18 113.706 175.84V168.78H115.826V175.24C115.826 176.62 116.406 177.5 117.846 177.5C119.466 177.5 120.506 176.52 120.506 175V168.78ZM131.186 171.46C131.186 170.72 130.746 170.16 129.346 170.16C127.666 170.16 127.046 170.68 126.946 172H124.906C125.006 170.04 126.266 168.5 129.346 168.5C131.606 168.5 133.286 169.36 133.286 172.08V176.94C133.286 177.66 133.446 178.04 134.266 177.96V178.96C133.786 179.14 133.446 179.18 133.046 179.18C131.926 179.18 131.406 178.78 131.206 177.78H131.166C130.526 178.68 129.366 179.3 127.786 179.3C125.706 179.3 124.426 178.1 124.426 176.38C124.426 174.14 126.086 173.44 128.646 172.94C130.226 172.64 131.186 172.44 131.186 171.46ZM128.246 177.64C129.986 177.64 131.186 176.78 131.186 175.12V173.58C130.846 173.82 130.026 174.06 129.046 174.26C127.306 174.64 126.546 175.14 126.546 176.18C126.546 177.12 127.106 177.64 128.246 177.64ZM135.935 164.7H138.055V179H135.935V164.7ZM144.922 179V164.7H151.002C153.742 164.7 155.722 165.98 155.722 168.98C155.722 171.98 153.742 173.28 151.002 173.28H147.302V179H144.922ZM147.302 166.72V171.24H150.902C152.502 171.24 153.342 170.56 153.342 168.98C153.342 167.42 152.502 166.72 150.902 166.72H147.302ZM157.525 164.7H159.645V179H157.525V164.7ZM168.264 171.46C168.264 170.72 167.824 170.16 166.424 170.16C164.744 170.16 164.124 170.68 164.024 172H161.984C162.084 170.04 163.344 168.5 166.424 168.5C168.684 168.5 170.364 169.36 170.364 172.08V176.94C170.364 177.66 170.524 178.04 171.344 177.96V178.96C170.864 179.14 170.524 179.18 170.124 179.18C169.004 179.18 168.484 178.78 168.284 177.78H168.244C167.604 178.68 166.444 179.3 164.864 179.3C162.784 179.3 161.504 178.1 161.504 176.38C161.504 174.14 163.164 173.44 165.724 172.94C167.304 172.64 168.264 172.44 168.264 171.46ZM165.324 177.64C167.064 177.64 168.264 176.78 168.264 175.12V173.58C167.924 173.82 167.104 174.06 166.124 174.26C164.384 174.64 163.624 175.14 163.624 176.18C163.624 177.12 164.184 177.64 165.324 177.64ZM178.473 168.5C180.373 168.5 181.873 169.6 181.873 171.94V179H179.753V172.54C179.753 171.16 179.173 170.28 177.733 170.28C176.113 170.28 175.073 171.26 175.073 172.78V179H172.973V168.78H175.073V170.1H175.113C175.653 169.3 176.713 168.5 178.473 168.5ZM188.613 172.82C190.493 173.26 192.533 173.68 192.533 176.12C192.533 178.08 190.853 179.3 188.373 179.3C185.073 179.3 183.653 177.76 183.553 175.6H185.593C185.693 176.7 186.173 177.64 188.333 177.64C189.793 177.64 190.413 176.92 190.413 176.28C190.413 175 189.193 174.9 187.693 174.54C186.073 174.16 183.873 173.84 183.873 171.52C183.873 169.84 185.353 168.5 187.913 168.5C190.693 168.5 192.013 170 192.153 171.78H190.113C189.973 170.98 189.573 170.16 187.933 170.16C186.673 170.16 185.993 170.64 185.993 171.36C185.993 172.4 187.133 172.48 188.613 172.82Z" fill="black"/>
</svg>
