<svg width="107" height="37" viewBox="0 0 107 37" fill="none" xmlns="http://www.w3.org/2000/svg">
<path fill-rule="evenodd" clip-rule="evenodd" d="M28.1238 34.3029C33.4467 31.0544 37 25.1922 37 18.5C37 8.28273 28.7173 0 18.5 0C8.28273 0 0 8.28273 0 18.5C0 28.7173 8.28273 37 18.5 37C19.9449 37 21.3511 36.8344 22.7006 36.521L16.125 26H16L12.5 20.5H20.5C21.6046 20.5 22.5 19.6046 22.5 18.5C22.5 17.3954 21.6046 16.5 20.5 16.5H10L7 11H20.5C24.6421 11 28 14.3579 28 18.5C28 22.0534 25.5289 25.0296 22.2114 25.8039L28.1238 34.3029Z" fill="white"/>
<path d="M47.938 17.917H50.174C50.642 17.917 50.993 17.813 51.227 17.605C51.461 17.397 51.578 17.059 51.578 16.591C51.578 16.1403 51.461 15.8153 51.227 15.616C50.993 15.408 50.642 15.304 50.174 15.304H47.938V17.917ZM45.897 13.718H50.902C51.318 13.718 51.6907 13.7873 52.02 13.926C52.358 14.056 52.644 14.238 52.878 14.472C53.1207 14.706 53.3027 14.979 53.424 15.291C53.554 15.5943 53.619 15.9237 53.619 16.279C53.619 16.825 53.502 17.2973 53.268 17.696C53.0427 18.0947 52.67 18.398 52.15 18.606V18.632C52.4013 18.7013 52.6093 18.8097 52.774 18.957C52.9387 19.0957 53.073 19.2647 53.177 19.464C53.281 19.6547 53.3547 19.867 53.398 20.101C53.45 20.335 53.4847 20.569 53.502 20.803C53.5107 20.9503 53.5193 21.1237 53.528 21.323C53.5367 21.5223 53.5497 21.726 53.567 21.934C53.593 22.142 53.6277 22.3413 53.671 22.532C53.723 22.714 53.7967 22.87 53.892 23H51.851C51.7383 22.7053 51.669 22.3543 51.643 21.947C51.617 21.5397 51.578 21.1497 51.526 20.777C51.4567 20.2917 51.3093 19.9363 51.084 19.711C50.8587 19.4857 50.4903 19.373 49.979 19.373H47.938V23H45.897V13.718ZM57.6188 19.412H60.0238L58.8538 16.006H58.8278L57.6188 19.412ZM57.8138 13.718H59.9068L63.3778 23H61.2588L60.5568 20.933H57.0858L56.3578 23H54.3038L57.8138 13.718ZM64.1783 13.718H71.1203V15.434H66.2193V17.423H70.7173V19.009H66.2193V21.284H71.2243V23H64.1783V13.718ZM72.6079 13.718H74.6359L78.5099 19.945H78.5359V13.718H80.4469V23H78.4059L74.5449 16.786H74.5189V23H72.6079V13.718ZM82.2437 13.718H89.1857V15.434H84.2847V17.423H88.7827V19.009H84.2847V21.284H89.2897V23H82.2437V13.718ZM92.0644 19.919C92.0644 20.231 92.1207 20.4953 92.2334 20.712C92.346 20.9287 92.4934 21.1063 92.6754 21.245C92.866 21.375 93.087 21.4747 93.3384 21.544C93.5897 21.6047 93.8497 21.635 94.1184 21.635C94.3004 21.635 94.4954 21.622 94.7034 21.596C94.9114 21.5613 95.1064 21.5007 95.2884 21.414C95.4704 21.3273 95.622 21.2103 95.7434 21.063C95.8647 20.907 95.9254 20.712 95.9254 20.478C95.9254 20.2267 95.843 20.023 95.6784 19.867C95.5224 19.711 95.3144 19.581 95.0544 19.477C94.7944 19.373 94.4997 19.282 94.1704 19.204C93.841 19.126 93.5074 19.0393 93.1694 18.944C92.8227 18.8573 92.4847 18.7533 92.1554 18.632C91.826 18.502 91.5314 18.3373 91.2714 18.138C91.0114 17.9387 90.799 17.6917 90.6344 17.397C90.4784 17.0937 90.4004 16.7297 90.4004 16.305C90.4004 15.8283 90.5 15.4167 90.6994 15.07C90.9074 14.7147 91.176 14.42 91.5054 14.186C91.8347 13.952 92.2074 13.7787 92.6234 13.666C93.0394 13.5533 93.4554 13.497 93.8714 13.497C94.3567 13.497 94.8204 13.5533 95.2624 13.666C95.713 13.77 96.1117 13.9433 96.4584 14.186C96.805 14.4287 97.078 14.7407 97.2774 15.122C97.4854 15.4947 97.5894 15.9497 97.5894 16.487H95.6134C95.596 16.2097 95.5354 15.98 95.4314 15.798C95.336 15.616 95.206 15.473 95.0414 15.369C94.8767 15.265 94.686 15.1913 94.4694 15.148C94.2614 15.1047 94.0317 15.083 93.7804 15.083C93.6157 15.083 93.451 15.1003 93.2864 15.135C93.1217 15.1697 92.97 15.2303 92.8314 15.317C92.7014 15.4037 92.593 15.512 92.5064 15.642C92.4197 15.772 92.3764 15.9367 92.3764 16.136C92.3764 16.318 92.411 16.4653 92.4804 16.578C92.5497 16.6907 92.684 16.7947 92.8834 16.89C93.0914 16.9853 93.373 17.0807 93.7284 17.176C94.0924 17.2713 94.5647 17.3927 95.1454 17.54C95.3187 17.5747 95.557 17.6397 95.8604 17.735C96.1724 17.8217 96.48 17.9647 96.7834 18.164C97.0867 18.3633 97.3467 18.632 97.5634 18.97C97.7887 19.2993 97.9014 19.724 97.9014 20.244C97.9014 20.6687 97.819 21.063 97.6544 21.427C97.4897 21.791 97.2427 22.1073 96.9134 22.376C96.5927 22.636 96.1897 22.8397 95.7044 22.987C95.2277 23.1343 94.673 23.208 94.0404 23.208C93.529 23.208 93.0307 23.143 92.5454 23.013C92.0687 22.8917 91.644 22.6967 91.2714 22.428C90.9074 22.1593 90.617 21.817 90.4004 21.401C90.1837 20.985 90.0797 20.491 90.0884 19.919H92.0644ZM101.17 15.434H98.3878V13.718H105.993V15.434H103.211V23H101.17V15.434Z" fill="white"/>
</svg>
