<svg width="41" height="41" viewBox="0 0 41 41" fill="none" xmlns="http://www.w3.org/2000/svg">
<path d="M7.13935 0.251105C6.98208 0.415622 6.88599 0.597446 6.88599 0.753305C6.88599 0.909153 7.44507 1.93952 8.51085 3.76648C11.5073 8.875 14.5736 14.0961 15.6568 15.9231C15.9714 16.4599 16.2335 16.9275 16.2335 16.9448C16.2335 16.9708 16.3033 17.092 16.3994 17.2132C16.4867 17.3431 16.6527 17.6202 16.7751 17.8366C16.8973 18.0531 17.2031 18.5727 17.4564 19.0056C17.7098 19.4298 17.9719 19.8801 18.033 20.0013C18.5572 20.9797 19.0289 21.3954 19.457 21.2481C19.7453 21.1442 20.0248 20.7806 22.3486 17.5336C23.4318 16.0184 25.144 13.6286 26.1487 12.2172C27.1621 10.8059 28.1579 9.41183 28.3676 9.10882L28.752 8.572H31.4601C33.6091 8.572 34.142 8.59794 34.0809 8.67588C33.9586 8.83176 31.5911 12.122 31.4339 12.3472C31.364 12.4597 30.5778 13.542 29.6867 14.7715C28.7956 15.9924 27.4154 17.8972 26.6204 18.9969C25.8255 20.0965 23.8686 22.8067 22.2699 25.0233C20.6625 27.2399 19.3259 29.0581 19.291 29.0754C19.256 29.0928 18.9416 28.6772 18.5921 28.1663C14.8706 22.6854 11.4899 17.6981 9.0263 14.0702C8.24877 12.9272 6.755 10.7279 5.70667 9.17811C1.97642 3.6799 1.44353 2.90063 1.32123 2.76208C1.03294 2.4244 0.290392 2.53697 0.0719879 2.94392C0.0108454 3.05648 -0.00662688 9.03953 0.00210927 21.8456C0.0283177 39.5436 0.0370538 40.5827 0.176822 40.7299C0.264183 40.8165 0.438896 40.9117 0.569938 40.9463C0.709716 40.981 9.75137 41.007 20.6625 40.9983H40.5192L40.7551 40.7559L40.9998 40.5221V20.5727C40.9998 -1.09098 41.0259 0.259764 40.5367 0.077929C40.4231 0.034635 33.251 0 23.8686 0H7.39271L7.13935 0.251105ZM39.436 20.4342C39.436 30.7899 39.4273 39.3013 39.4098 39.3532C39.3923 39.4138 33.0063 39.4397 20.4878 39.4397L1.60077 39.4311L1.57457 22.6422L1.5571 5.84453L2.84127 7.75811C3.55762 8.80581 4.60597 10.3556 5.1825 11.1956C5.75902 12.0354 6.32692 12.884 6.44919 13.0658C6.57156 13.2563 7.64607 14.8408 8.83412 16.5984C12.0838 21.3693 13.9533 24.1141 16.347 27.6641C17.5351 29.4218 18.627 30.9717 18.7581 31.0929C19.0813 31.3873 19.5006 31.3613 19.8239 31.015C19.9462 30.8851 21.6847 28.5213 23.6764 25.7592C25.6682 22.9972 27.8435 19.984 28.5161 19.0661C29.18 18.1397 29.8353 17.2479 29.9575 17.0747C30.0799 16.8929 31.5824 14.8148 33.3034 12.4424C35.0157 10.0699 36.4396 8.01787 36.4658 7.87929C36.5357 7.54159 36.2736 7.12605 35.9503 7.04811C35.8106 7.02206 33.9935 6.99611 31.8969 6.99611L28.0968 6.98747L27.8085 7.28182C27.6512 7.44635 25.7468 10.0699 23.5716 13.1177C21.3876 16.1656 19.5444 18.7458 19.457 18.8584C19.3085 19.0488 19.291 19.0142 17.3603 15.7413C16.2945 13.9143 15.3686 12.3472 15.3161 12.2518C15.2725 12.1566 14.9405 11.5938 14.5823 10.9964C14.2329 10.399 13.735 9.55906 13.4816 9.13477C13.2283 8.70183 12.94 8.217 12.8352 8.05247C12.7391 7.88794 12.5906 7.62818 12.5119 7.4897C12.4333 7.34247 11.6209 5.96571 10.7211 4.42452C9.81255 2.88331 9.06992 1.6105 9.06992 1.59319C9.06992 1.57587 15.9015 1.56721 24.253 1.57587L39.4273 1.60185L39.436 20.4342Z" fill="white"/>
</svg>
