<?xml version="1.0" encoding="UTF-8"?>
<svg version="1.1" xmlns="http://www.w3.org/2000/svg" width="302" height="157">
<path d="M0 0 C99.66 0 199.32 0 302 0 C302 51.81 302 103.62 302 157 C202.34 157 102.68 157 0 157 C0 105.19 0 53.38 0 0 Z " fill="#FEFEFE" transform="translate(0,0)"/>
<path d="M0 0 C1.91054089 1.4142965 3.58458937 2.95854928 5.3046875 4.59765625 C7.07088514 6.25406832 7.07088514 6.25406832 10.1875 6.875 C13.48556281 8.19422512 13.708074 8.84975861 15.1875 11.9375 C15.61095703 12.97197266 15.61095703 12.97197266 16.04296875 14.02734375 C17.11626021 16.23963839 18.06242441 17.48541626 20 19 C22.13619552 19.60324112 22.13619552 19.60324112 24.4375 19.875 C27.83804233 20.54188107 28.80338773 20.80856173 31.375 23.3125 C32.38764974 24.98726688 33.37122847 26.68040084 34.30859375 28.3984375 C36.15118531 31.23253907 38.12387396 33.12041396 40.6875 35.3125 C41.49574219 36.00988281 42.30398437 36.70726562 43.13671875 37.42578125 C43.75160156 37.94527344 44.36648437 38.46476562 45 39 C49.83199973 37.14967188 51.50015484 33.45334589 54.12109375 29.21484375 C56 27 56 27 58.546875 26.05078125 C61.83369486 25.98274199 63.00321477 27.49116372 65.31640625 29.66015625 C67.22390349 31.17818769 68.95467366 31.88641866 71.25 32.6875 C75 34 75 34 77 36 C77.78158467 38.14721062 78.39481292 40.31922587 79.0234375 42.515625 C79.94947316 45.18943501 79.94947316 45.18943501 82.1015625 47.828125 C86.02600759 54.3850168 83.75575379 63.39951142 82.23828125 70.62890625 C75.38080492 96.06233111 61.54801736 118.6263247 39 133 C15.98296143 146.20509185 -9.93640344 152.60810633 -36.14794922 145.76831055 C-62.08779635 138.42442379 -83.65961906 122.71974726 -97.06835938 99.11962891 C-99.19896898 95.14997765 -101.14221199 91.10487376 -103 87 C-103.76957031 85.30423828 -103.76957031 85.30423828 -104.5546875 83.57421875 C-108.56780128 73.64989684 -110.37271882 63.42506244 -110.5 52.75 C-110.51828857 51.95239258 -110.53657715 51.15478516 -110.55541992 50.33300781 C-110.50072194 45.15935269 -109.59881499 42.8950397 -106 39 C-105.28947111 37.8431522 -104.61018788 36.66674507 -103.95703125 35.4765625 C-100.11071584 28.54712492 -96.81278697 22.87074986 -90.04296875 18.39453125 C-87.87795588 17.02439309 -87.87795588 17.02439309 -85.98828125 14.859375 C-83.78730633 12.8010959 -82.95509765 12.43172832 -80 12.4375 C-76.79164828 12.60948189 -76.22084677 12.78546314 -73.8125 15.125 C-73.214375 16.07375 -72.61625 17.0225 -72 18 C-68.6525656 22.40451894 -66.05137795 24.75494313 -61 27 C-59 29 -59 29 -58.0625 32.375 C-57.0953528 35.67467869 -56.2309897 37.46478443 -54 40 C-49.99978025 39.48441612 -48.59704998 37.69272468 -46.125 34.625 C-42.99510833 30.94926452 -40.49474533 28.89778136 -36 27 C-32.31677865 24.30495999 -29.2125339 21.23121143 -26 18 C-25.11441406 17.12601563 -24.22882813 16.25203125 -23.31640625 15.3515625 C-17.18329734 9.29576254 -17.18329734 9.29576254 -11.4375 2.875 C-7.615602 -1.6328797 -5.6763915 -1.39583397 0 0 Z " fill="#3A351B" transform="translate(164,1)"/>
<path d="M0 0 C4.56351039 0.48036952 4.56351039 0.48036952 6.3125 2.5625 C7.31210998 6.10657174 7.12259376 9.32218719 7 13 C6.01 12.67 5.02 12.34 4 12 C4.15537508 20.22075409 5.1775129 27.14972857 10 34 C11.87420108 35.87962074 11.87420108 35.87962074 14 37 C14.99 36.67 15.98 36.34 17 36 C21.18650464 41.0582152 24.98140042 45.69187631 27 52 C26.67 52.99 26.34 53.98 26 55 C24.22317752 54.09499704 22.45373409 53.1754975 20.6875 52.25 C19.70136719 51.73953125 18.71523437 51.2290625 17.69921875 50.703125 C15.00339705 49.00214344 13.61854165 47.71531658 12 45 C11.773125 43.96875 11.54625 42.9375 11.3125 41.875 C9.8755023 36.07658821 5.1469433 31.1469433 1 27 C0.92773498 25.14712498 0.9161878 23.29166122 0.9375 21.4375 C0.94652344 20.42558594 0.95554687 19.41367187 0.96484375 18.37109375 C0.97644531 17.58863281 0.98804688 16.80617188 1 16 C0.01 15.67 -0.98 15.34 -2 15 C-2.0825 15.763125 -2.165 16.52625 -2.25 17.3125 C-3.15269355 20.54715191 -4.13593461 21.35099265 -7 23 C-7.66 23 -8.32 23 -9 23 C-8.98839844 23.61488281 -8.97679687 24.22976562 -8.96484375 24.86328125 C-8.95582031 25.67152344 -8.94679688 26.47976562 -8.9375 27.3125 C-8.92589844 28.11300781 -8.91429687 28.91351562 -8.90234375 29.73828125 C-9 32 -9 32 -10 35 C-9.34 35 -8.68 35 -8 35 C-7.67 32.03 -7.34 29.06 -7 26 C-6.34 26 -5.68 26 -5 26 C-4.505 24.515 -4.505 24.515 -4 23 C-3.67 23 -3.34 23 -3 23 C-3.42014339 28.07488994 -4.07965851 32.26315766 -6 37 C-6.25086724 40.16732421 -6.25086724 40.16732421 -6 43 C-5.67 43.33 -5.34 43.66 -5 44 C-4.58970784 48.26703842 -4.55086104 50.34032715 -7 53.9375 C-7.66 54.618125 -8.32 55.29875 -9 56 C-7.68 56 -6.36 56 -5 56 C-4.505 60.95 -4.505 60.95 -4 66 C-5.65 65.67 -7.3 65.34 -9 65 C-9 66.32 -9 67.64 -9 69 C-11.92393881 68.37344168 -14.44829129 67.5838192 -17 66 C-17.33 65.01 -17.66 64.02 -18 63 C-18.66 63 -19.32 63 -20 63 C-21.80619523 58.53763531 -22.11658501 55.68965706 -21 51 C-22.98 50.34 -24.96 49.68 -27 49 C-27.061875 49.78375 -27.12375 50.5675 -27.1875 51.375 C-27.455625 52.24125 -27.72375 53.1075 -28 54 C-30.5 55.1875 -30.5 55.1875 -33 56 C-33.495 56.99 -33.495 56.99 -34 58 C-32.576875 58.185625 -32.576875 58.185625 -31.125 58.375 C-28 59 -28 59 -26 61 C-27.98 60.67 -29.96 60.34 -32 60 C-29.69296539 66.38002059 -29.69296539 66.38002059 -25.25 71.3125 C-22.13143415 72.26539512 -19.23765175 72.12452507 -16 72 C-16 73.32 -16 74.64 -16 76 C-16.66 76 -17.32 76 -18 76 C-18 78.31 -18 80.62 -18 83 C-19.32 83 -20.64 83 -22 83 C-21.566875 84.03125 -21.13375 85.0625 -20.6875 86.125 C-20 90 -20 90 -22.1875 93.3125 C-25 96 -25 96 -28 98 C-27.34 98 -26.68 98 -26 98 C-27.15173355 100.46800047 -28.04783565 102.04783565 -30 104 C-29.34 104 -28.68 104 -28 104 C-28.495 105.485 -28.495 105.485 -29 107 C-30.32 107 -31.64 107 -33 107 C-33 107.66 -33 108.32 -33 109 C-31.515 109.495 -31.515 109.495 -30 110 C-30.66 110 -31.32 110 -32 110 C-32 112.64 -32 115.28 -32 118 C-33.485 118.495 -33.485 118.495 -35 119 C-35 119.99 -35 120.98 -35 122 C-35.99 122.495 -35.99 122.495 -37 123 C-37.46651207 125.12576782 -37.46651207 125.12576782 -37.625 127.5625 C-37.69976562 128.38878906 -37.77453125 129.21507812 -37.8515625 130.06640625 C-37.90054688 130.70449219 -37.94953125 131.34257812 -38 132 C-41.36002129 133.1200071 -42.63458676 132.8208325 -46 132 C-46.763125 131.814375 -47.52625 131.62875 -48.3125 131.4375 C-49.1478125 131.2209375 -49.1478125 131.2209375 -50 131 C-50 130.34 -50 129.68 -50 129 C-49.01 128.34 -48.02 127.68 -47 127 C-47.99 126.34 -48.98 125.68 -50 125 C-50 124.34 -50 123.68 -50 123 C-55.60944292 119.85871197 -61.68146331 118.77369837 -68 118 C-68 118.66 -68 119.32 -68 120 C-67.42765625 120.26167969 -66.8553125 120.52335937 -66.265625 120.79296875 C-63.84066649 122.0848863 -61.88259256 123.58264524 -59.75 125.3125 C-55.67560884 128.54228271 -51.47237766 131.35556961 -47 134 C-47.66 134.33 -48.32 134.66 -49 135 C-51.38603885 133.58375141 -53.65433188 132.13001381 -55.9375 130.5625 C-60.54180105 127.13426934 -60.54180105 127.13426934 -66 126 C-78.65673141 115.6808679 -87.34546009 101.70353248 -94 87 C-94.76957031 85.30423828 -94.76957031 85.30423828 -95.5546875 83.57421875 C-99.56780128 73.64989684 -101.37271882 63.42506244 -101.5 52.75 C-101.51828857 51.95239258 -101.53657715 51.15478516 -101.55541992 50.33300781 C-101.50072194 45.15935269 -100.59881499 42.8950397 -97 39 C-96.28947111 37.8431522 -95.61018788 36.66674507 -94.95703125 35.4765625 C-91.11071584 28.54712492 -87.81278697 22.87074986 -81.04296875 18.39453125 C-78.87795588 17.02439309 -78.87795588 17.02439309 -76.98828125 14.859375 C-74.78730633 12.8010959 -73.95509765 12.43172832 -71 12.4375 C-67.79164828 12.60948189 -67.22084677 12.78546314 -64.8125 15.125 C-64.214375 16.07375 -63.61625 17.0225 -63 18 C-59.6525656 22.40451894 -57.05137795 24.75494313 -52 27 C-50 29 -50 29 -49.0625 32.375 C-48.0953528 35.67467869 -47.2309897 37.46478443 -45 40 C-40.99978025 39.48441612 -39.59704998 37.69272468 -37.125 34.625 C-33.99510833 30.94926452 -31.49474533 28.89778136 -27 27 C-23.31677865 24.30495999 -20.2125339 21.23121143 -17 18 C-16.11441406 17.12601563 -15.22882813 16.25203125 -14.31640625 15.3515625 C-9.31925503 10.40402838 -4.47043937 5.43702086 0 0 Z " fill="#3A3519" transform="translate(155,1)"/>
<path d="M0 0 C5.763401 0.23524086 8.16728809 1.65506712 12.3046875 5.59765625 C14.07088514 7.25406832 14.07088514 7.25406832 17.1875 7.875 C20.48556281 9.19422512 20.708074 9.84975861 22.1875 12.9375 C22.61095703 13.97197266 22.61095703 13.97197266 23.04296875 15.02734375 C24.11626021 17.23963839 25.06242441 18.48541626 27 20 C29.13619552 20.60324112 29.13619552 20.60324112 31.4375 20.875 C34.83804233 21.54188107 35.80338773 21.80856173 38.375 24.3125 C39.38949031 25.99031089 40.3753823 27.68615875 41.31640625 29.40625 C43.12751774 32.19645425 45.03612183 34.03570838 47.5625 36.1875 C51.98837209 39.98837209 51.98837209 39.98837209 54 42 C43.89088196 53.70428306 43.89088196 53.70428306 37.75 57.625 C33.08919828 60.63864041 30.51180669 64.09398672 27.50390625 68.70703125 C23.59118481 74.67266109 18.37849599 78.05511482 12 81 C11.34 81 10.68 81 10 81 C10 81.66 10 82.32 10 83 C9.34 83 8.68 83 8 83 C7.505 84.98 7.505 84.98 7 87 C8.65 87 10.3 87 12 87 C12.144375 87.598125 12.28875 88.19625 12.4375 88.8125 C12.8872439 90.56150404 13.42892341 92.28677023 14 94 C14.66 94 15.32 94 16 94 C16 94.99 16 95.98 16 97 C14 97 14 97 11.76953125 94.89453125 C10.84450628 93.93145898 9.92147437 92.96647006 9 92 C7.96488607 90.95959982 6.92704232 89.92190967 5.88671875 88.88671875 C2.92447917 85.92447917 -0.03776042 82.96223958 -3 80 C-7.13211732 81.37981893 -9.6669732 83.26200362 -12.8125 86.25 C-17.01484875 90.14993085 -21.33278629 93.675588 -26 97 C-26.66 96.67 -27.32 96.34 -28 96 C-27.154375 95.13375 -26.30875 94.2675 -25.4375 93.375 C-23.17846588 90.70984739 -22.98160412 90.33112587 -23.1875 86.625 C-23.455625 85.75875 -23.72375 84.8925 -24 84 C-22.68 84 -21.36 84 -20 84 C-20 81.69 -20 79.38 -20 77 C-19.34 77 -18.68 77 -18 77 C-18 75.68 -18 74.36 -18 73 C-19.03125 73.2475 -20.0625 73.495 -21.125 73.75 C-25.92403346 74.05961506 -27.40792309 73.10224824 -31 70 C-33.57702109 66.56397188 -34 65.39927132 -34 61 C-32.68 61 -31.36 61 -30 61 C-31.98 60.34 -33.96 59.68 -36 59 C-35.67 58.01 -35.34 57.02 -35 56 C-34.175 55.690625 -33.35 55.38125 -32.5 55.0625 C-31.675 54.711875 -30.85 54.36125 -30 54 C-29.11306697 51.95894361 -29.11306697 51.95894361 -29 50 C-27.02 50.66 -25.04 51.32 -23 52 C-23.020625 52.86625 -23.04125 53.7325 -23.0625 54.625 C-23.00261044 57.85903648 -22.60419067 60.82799897 -22 64 C-20.515 63.505 -20.515 63.505 -19 63 C-18.979375 63.598125 -18.95875 64.19625 -18.9375 64.8125 C-18.09543384 67.43314602 -18.09543384 67.43314602 -14.4375 68.75 C-13.303125 69.1625 -12.16875 69.575 -11 70 C-11 68.68 -11 67.36 -11 66 C-9.68 66 -8.36 66 -7 66 C-7 63.03 -7 60.06 -7 57 C-8.32 57 -9.64 57 -11 57 C-9.125 53.125 -9.125 53.125 -8 52 C-7.83333333 48.5 -7.83333333 48.5 -8 45 C-8.495 44.505 -8.495 44.505 -9 44 C-9.45555889 39.33052137 -8.39466295 36.12585398 -6.66796875 31.90234375 C-5.83802798 29.53871126 -5.7671887 27.48332053 -6 25 C-6.33 25.66 -6.66 26.32 -7 27 C-7.66 27 -8.32 27 -9 27 C-8.690625 27.8353125 -8.690625 27.8353125 -8.375 28.6875 C-7.89304789 31.659538 -8.73434972 33.31979941 -10 36 C-10.66 36 -11.32 36 -12 36 C-11.93989582 34.06164034 -11.85108283 32.12415509 -11.75 30.1875 C-11.70359375 29.10855469 -11.6571875 28.02960937 -11.609375 26.91796875 C-11 24 -11 24 -9.078125 22.11328125 C-7 21 -7 21 -5 21 C-4.67 19.35 -4.34 17.7 -4 16 C-2.68 16.33 -1.36 16.66 0 17 C-0.13921875 18.03447266 -0.13921875 18.03447266 -0.28125 19.08984375 C-0.62653258 23.58468306 -0.80725725 26.75962528 1.7109375 30.62890625 C3.7333536 32.8448026 5.84086454 34.91890558 8 37 C10.19696964 40.29545446 10.91799194 43.21297178 12 47 C14.22323773 50.33485659 15.5791441 51.00549143 19.125 52.6875 C20.03507812 53.12449219 20.94515625 53.56148437 21.8828125 54.01171875 C22.58148438 54.33785156 23.28015625 54.66398437 24 55 C22.45423042 49.02031241 20.53431873 44.86378789 16.20703125 40.41015625 C15 39 15 39 15 37 C13.68 37.66 12.36 38.32 11 39 C3.99687872 31.54360226 1.62869516 25.69587845 1.89453125 15.37890625 C1.92933594 14.59386719 1.96414062 13.80882812 2 13 C2.66 13 3.32 13 4 13 C4.27480702 7.18492013 4.27480702 7.18492013 2 2 C1.34 1.34 0.68 0.68 0 0 Z " fill="#405338" transform="translate(157,0)"/>
<path d="M0 0 C4.56351039 0.48036952 4.56351039 0.48036952 6.3125 2.5625 C7.31210998 6.10657174 7.12259376 9.32218719 7 13 C6.01 12.67 5.02 12.34 4 12 C4.15537508 20.22075409 5.1775129 27.14972857 10 34 C11.87420108 35.87962074 11.87420108 35.87962074 14 37 C14.99 36.67 15.98 36.34 17 36 C21.18650464 41.0582152 24.98140042 45.69187631 27 52 C26.67 52.99 26.34 53.98 26 55 C24.22317752 54.09499704 22.45373409 53.1754975 20.6875 52.25 C19.70136719 51.73953125 18.71523437 51.2290625 17.69921875 50.703125 C15.00339705 49.00214344 13.61854165 47.71531658 12 45 C11.6596875 43.453125 11.6596875 43.453125 11.3125 41.875 C9.8755023 36.07658821 5.1469433 31.1469433 1 27 C0.92773498 25.14712498 0.9161878 23.29166122 0.9375 21.4375 C0.94652344 20.42558594 0.95554688 19.41367187 0.96484375 18.37109375 C0.97644531 17.58863281 0.98804688 16.80617188 1 16 C0.01 15.67 -0.98 15.34 -2 15 C-2.0825 15.763125 -2.165 16.52625 -2.25 17.3125 C-3.15269355 20.54715191 -4.13593461 21.35099265 -7 23 C-7.66 23 -8.32 23 -9 23 C-8.98839844 23.61488281 -8.97679687 24.22976562 -8.96484375 24.86328125 C-8.95582031 25.67152344 -8.94679687 26.47976562 -8.9375 27.3125 C-8.92589844 28.11300781 -8.91429687 28.91351562 -8.90234375 29.73828125 C-9 32 -9 32 -10 35 C-9.34 35 -8.68 35 -8 35 C-7.67 32.03 -7.34 29.06 -7 26 C-6.34 26 -5.68 26 -5 26 C-4.505 24.515 -4.505 24.515 -4 23 C-3.67 23 -3.34 23 -3 23 C-3.42014339 28.07488994 -4.07965851 32.26315766 -6 37 C-6.25086724 40.16732421 -6.25086724 40.16732421 -6 43 C-5.67 43.33 -5.34 43.66 -5 44 C-4.58970784 48.26703842 -4.55086104 50.34032715 -7 53.9375 C-7.66 54.618125 -8.32 55.29875 -9 56 C-7.68 56 -6.36 56 -5 56 C-4.505 60.95 -4.505 60.95 -4 66 C-5.65 65.67 -7.3 65.34 -9 65 C-9 66.32 -9 67.64 -9 69 C-11.92393881 68.37344168 -14.44829129 67.5838192 -17 66 C-17.33 65.01 -17.66 64.02 -18 63 C-18.66 63 -19.32 63 -20 63 C-21.80619523 58.53763531 -22.11658501 55.68965706 -21 51 C-22.98 50.34 -24.96 49.68 -27 49 C-27.061875 49.78375 -27.12375 50.5675 -27.1875 51.375 C-27.455625 52.24125 -27.72375 53.1075 -28 54 C-30.5 55.1875 -30.5 55.1875 -33 56 C-33.33 56.66 -33.66 57.32 -34 58 C-32.576875 58.185625 -32.576875 58.185625 -31.125 58.375 C-28 59 -28 59 -26 61 C-27.98 60.67 -29.96 60.34 -32 60 C-29.69170863 66.41253327 -29.69170863 66.41253327 -25.1875 71.3125 C-22.39313203 72.19072993 -19.91020204 72.13228191 -17 72 C-17 72.99 -17 73.98 -17 75 C-17.66 75 -18.32 75 -19 75 C-19 77.31 -19 79.62 -19 82 C-22.53508103 81.70540991 -23.76203444 81.25118587 -26.25 78.625 C-28 76 -28 76 -29 73 C-29.33 73.99 -29.66 74.98 -30 76 C-35.48927264 75.86276818 -38.38104126 73.56747568 -42.23046875 69.9609375 C-45.820125 65.98299614 -46.92956773 62.47907764 -47.1875 57.0625 C-47.125625 56.051875 -47.06375 55.04125 -47 54 C-46.67 54 -46.34 54 -46 54 C-46 49.71 -46 45.42 -46 41 C-44.35 40.34 -42.7 39.68 -41 39 C-38.91736238 36.95459946 -38.91736238 36.95459946 -37.0625 34.5625 C-33.95711314 30.90841697 -31.46570972 28.88552188 -27 27 C-23.31677865 24.30495999 -20.2125339 21.23121143 -17 18 C-15.67162109 16.68902344 -15.67162109 16.68902344 -14.31640625 15.3515625 C-9.31925503 10.40402838 -4.47043937 5.43702086 0 0 Z " fill="#2A2C17" transform="translate(155,1)"/>
<path d="M0 0 C0.763125 0.20625 1.52625 0.4125 2.3125 0.625 C3.51113967 4.37074898 3.79218076 7.71902809 3.3125 11.625 C0.3125 14.125 0.3125 14.125 -2.6875 16.625 C-3.10326711 20.1293228 -3.27689347 22.44621306 -1.6875 25.625 C-1.45891886 27.6624763 -1.27725722 29.70540303 -1.125 31.75 C-1.04121094 32.84570312 -0.95742187 33.94140625 -0.87109375 35.0703125 C-0.81050781 35.91335937 -0.74992187 36.75640625 -0.6875 37.625 C-1.6775 38.12 -1.6775 38.12 -2.6875 38.625 C-3.61772926 41.96744606 -3.61772926 41.96744606 -3.6875 45.625 C-2.2958124 47.75844768 -2.2958124 47.75844768 -0.6875 49.625 C-0.5 52.375 -0.5 52.375 -0.6875 54.625 C-1.6775 54.625 -2.6675 54.625 -3.6875 54.625 C-5.875 52.125 -5.875 52.125 -7.6875 49.625 C-7.0275 49.625 -6.3675 49.625 -5.6875 49.625 C-6.0175 48.965 -6.3475 48.305 -6.6875 47.625 C-7.09204244 42.36594829 -6.34916853 39.17201708 -3.6875 34.625 C-4.6775 34.295 -5.6675 33.965 -6.6875 33.625 C-6.6875 30.325 -6.6875 27.025 -6.6875 23.625 C-7.6775 24.12 -7.6775 24.12 -8.6875 24.625 C-8.66429687 25.28886719 -8.64109375 25.95273437 -8.6171875 26.63671875 C-8.51716745 31.53055699 -8.62635562 35.11624666 -10.6875 39.625 C-11.04335134 43.27247625 -10.55323518 45.47657189 -8.6875 48.625 C-10.6675 47.965 -12.6475 47.305 -14.6875 46.625 C-15.1825 47.615 -15.1825 47.615 -15.6875 48.625 C-18.39974618 47.01231308 -21.06102812 45.37598126 -23.6875 43.625 C-23.6875 42.965 -23.6875 42.305 -23.6875 41.625 C-24.3475 41.625 -25.0075 41.625 -25.6875 41.625 C-25.378125 42.32625 -25.06875 43.0275 -24.75 43.75 C-23.6875 46.625 -23.6875 46.625 -23.25 49.75 C-22.65469658 52.79266193 -22.0802955 53.75237744 -19.6875 55.625 C-20.1825 53.645 -20.1825 53.645 -20.6875 51.625 C-18.6629262 53.55754772 -17.26644208 55.25658688 -15.6875 57.625 C-15.71893293 60.36490408 -16.24228337 62.90917854 -16.6875 65.625 C-19.18111571 64.42118552 -21.36893083 63.17071278 -23.6875 61.625 C-24.6775 62.12 -24.6775 62.12 -25.6875 62.625 C-25.6875 61.965 -25.6875 61.305 -25.6875 60.625 C-28.1625 61.12 -28.1625 61.12 -30.6875 61.625 C-30.0275 59.975 -29.3675 58.325 -28.6875 56.625 C-29.3475 56.625 -30.0075 56.625 -30.6875 56.625 C-30.3575 54.315 -30.0275 52.005 -29.6875 49.625 C-31.1725 50.12 -31.1725 50.12 -32.6875 50.625 C-32.3575 48.975 -32.0275 47.325 -31.6875 45.625 C-32.3475 45.625 -33.0075 45.625 -33.6875 45.625 C-33.6875 43.975 -33.6875 42.325 -33.6875 40.625 C-34.6775 41.12 -34.6775 41.12 -35.6875 41.625 C-36.43232287 44.29759973 -37.09072078 46.92194119 -37.6875 49.625 C-38.01703642 50.95927682 -38.34923853 52.29290839 -38.6875 53.625 C-39.3475 53.625 -40.0075 53.625 -40.6875 53.625 C-40.6875 54.553125 -40.6875 55.48125 -40.6875 56.4375 C-40.6875 58.5 -40.6875 60.5625 -40.6875 62.625 C-41.3475 62.295 -42.0075 61.965 -42.6875 61.625 C-41.3675 63.275 -40.0475 64.925 -38.6875 66.625 C-39.3475 66.625 -40.0075 66.625 -40.6875 66.625 C-41.3475 67.945 -42.0075 69.265 -42.6875 70.625 C-43.3475 70.625 -44.0075 70.625 -44.6875 70.625 C-44.0275 71.945 -43.3675 73.265 -42.6875 74.625 C-43.6775 75.12 -43.6775 75.12 -44.6875 75.625 C-44.0275 76.945 -43.3675 78.265 -42.6875 79.625 C-43.6775 79.625 -44.6675 79.625 -45.6875 79.625 C-45.6875 80.285 -45.6875 80.945 -45.6875 81.625 C-43.9859375 81.810625 -43.9859375 81.810625 -42.25 82 C-41.074375 82.20625 -39.89875 82.4125 -38.6875 82.625 C-38.1925 83.615 -38.1925 83.615 -37.6875 84.625 C-39.5 86.1875 -39.5 86.1875 -41.6875 87.625 C-43.1725 87.13 -43.1725 87.13 -44.6875 86.625 C-47.58682357 89.02009338 -48.18918276 90.93745243 -48.6875 94.625 C-49.0175 94.625 -49.3475 94.625 -49.6875 94.625 C-49.6875 90.665 -49.6875 86.705 -49.6875 82.625 C-49.0275 82.625 -48.3675 82.625 -47.6875 82.625 C-47.6875 81.965 -47.6875 81.305 -47.6875 80.625 C-49.3375 79.965 -50.9875 79.305 -52.6875 78.625 C-52.73648438 77.91472656 -52.78546875 77.20445313 -52.8359375 76.47265625 C-52.91070312 75.55355469 -52.98546875 74.63445312 -53.0625 73.6875 C-53.16691406 72.31271484 -53.16691406 72.31271484 -53.2734375 70.91015625 C-53.41007813 70.15605469 -53.54671875 69.40195313 -53.6875 68.625 C-54.3475 68.295 -55.0075 67.965 -55.6875 67.625 C-55.3575 66.305 -55.0275 64.985 -54.6875 63.625 C-54.0275 64.945 -53.3675 66.265 -52.6875 67.625 C-52.0275 67.625 -51.3675 67.625 -50.6875 67.625 C-50.6875 66.635 -50.6875 65.645 -50.6875 64.625 C-51.3475 64.625 -52.0075 64.625 -52.6875 64.625 C-54.375 62.25 -54.375 62.25 -55.6875 59.625 C-55.3575 58.965 -55.0275 58.305 -54.6875 57.625 C-56.3375 57.625 -57.9875 57.625 -59.6875 57.625 C-59.3575 56.305 -59.0275 54.985 -58.6875 53.625 C-58.0275 53.625 -57.3675 53.625 -56.6875 53.625 C-56.6875 52.965 -56.6875 52.305 -56.6875 51.625 C-55.95144531 51.24988281 -55.21539062 50.87476563 -54.45703125 50.48828125 C-47.17570784 46.66967439 -42.32540869 43.27778872 -37.9375 36.25 C-34.66805357 31.17264262 -30.54468182 28.09682909 -25.6875 24.625 C-21.99290522 21.85982672 -19.13519563 18.97506585 -16.25 15.375 C-15.47527344 14.41207031 -14.70054687 13.44914062 -13.90234375 12.45703125 C-11.52292107 9.41455957 -9.21466031 6.3313278 -6.9765625 3.18359375 C-4.78613759 0.53517091 -3.44756738 -0.48105591 0 0 Z " fill="#2B2C16" transform="translate(223.6875,29.375)"/>
<path d="M0 0 C4.43751914 0.43840551 7.01397367 3.49370831 10.0625 6.4375 C14.31067232 10.4809307 14.31067232 10.4809307 19 14 C19.29296875 16.3828125 19.29296875 16.3828125 19.1875 19.125 C19.14689453 20.49011719 19.14689453 20.49011719 19.10546875 21.8828125 C19.07066406 22.58148438 19.03585938 23.28015625 19 24 C21.475 24.99 21.475 24.99 24 26 C24 26.66 24 27.32 24 28 C23.34 28 22.68 28 22 28 C22 31.63 22 35.26 22 39 C16.06 39 10.12 39 4 39 C4 36.69 4 34.38 4 32 C2.02 32 0.04 32 -2 32 C-2 34.31 -2 36.62 -2 39 C-3.65 39 -5.3 39 -7 39 C-7 35.7 -7 32.4 -7 29 C-9.31 29 -11.62 29 -14 29 C-14 29.66 -14 30.32 -14 31 C-15.65 31.33 -17.3 31.66 -19 32 C-19 33.98 -19 35.96 -19 38 C-18.01 38.33 -17.02 38.66 -16 39 C-18.64 39 -21.28 39 -24 39 C-24 35.37 -24 31.74 -24 28 C-24.66 28 -25.32 28 -26 28 C-26 27.34 -26 26.68 -26 26 C-23.19636464 23.91357369 -20.56781024 22.22448312 -17.3125 20.9375 C-14.92733682 20.1611523 -14.92733682 20.1611523 -13.4375 18.3125 C-12.963125 17.879375 -12.48875 17.44625 -12 17 C-9.8125 17.3125 -9.8125 17.3125 -8 18 C-8 17.01 -8 16.02 -8 15 C-8.66 15 -9.32 15 -10 15 C-9.875 13.1875 -9.875 13.1875 -9 11 C-5.58893688 8.69951557 -3.75454424 7.93013479 0.375 8.3125 C1.24125 8.539375 2.1075 8.76625 3 9 C2.65555119 6.52733235 2.65555119 6.52733235 2 4 C1.34 3.67 0.68 3.34 0 3 C0 2.01 0 1.02 0 0 Z " fill="#836439" transform="translate(152,84)"/>
<path d="M0 0 C3 0.5 3 0.5 4.67578125 2.57421875 C6.31439684 6.19464081 6.29845634 8.85505708 6.1875 12.8125 C6.16042969 14.06675781 6.13335937 15.32101563 6.10546875 16.61328125 C6.07066406 17.56589844 6.03585938 18.51851562 6 19.5 C5.34 19.17 4.68 18.84 4 18.5 C3.60689586 16.17711188 3.49250305 13.88154824 3.34375 11.53125 C3.2303125 10.8609375 3.116875 10.190625 3 9.5 C2.34 9.17 1.68 8.84 1 8.5 C1 9.16 1 9.82 1 10.5 C0.01 10.83 -0.98 11.16 -2 11.5 C-2.33 13.15 -2.66 14.8 -3 16.5 C-2.01 16.83 -1.02 17.16 0 17.5 C0.66 20.8 1.32 24.1 2 27.5 C0.68 26.84 -0.64 26.18 -2 25.5 C-1.92065521 28.19772283 -1.48118655 29.96565913 0.34375 31.9921875 C4.0381601 35.23319273 8.00493152 37.81208163 12.20703125 40.33984375 C14.45760637 41.79609824 16.21478478 43.50879841 18 45.5 C18.66 46.16 19.32 46.82 20 47.5 C16.62537285 46.95276317 14.91765 46.4451 12 44.5 C9.94290404 44.25944532 9.94290404 44.25944532 7.8125 44.375 C6.554375 44.41625 5.29625 44.4575 4 44.5 C4.14308594 45.49580078 4.14308594 45.49580078 4.2890625 46.51171875 C5.39015817 55.28207381 5.39015817 55.28207381 3 59.5 C2.34 59.5 1.68 59.5 1 59.5 C-3.89795918 54.60204082 -3.89795918 54.60204082 -4.3125 50.125 C-4.209375 49.25875 -4.10625 48.3925 -4 47.5 C-3.34 47.5 -2.68 47.5 -2 47.5 C-1.4254048 43.76513121 -1 40.28706732 -1 36.5 C-0.34 36.5 0.32 36.5 1 36.5 C1 35.84 1 35.18 1 34.5 C0.34 34.5 -0.32 34.5 -1 34.5 C-2.2890625 32.96875 -2.2890625 32.96875 -3.625 31 C-4.07101563 30.3503125 -4.51703125 29.700625 -4.9765625 29.03125 C-5.31429687 28.5259375 -5.65203125 28.020625 -6 27.5 C-6.66 27.83 -7.32 28.16 -8 28.5 C-7.33484375 29.03109375 -6.6696875 29.5621875 -5.984375 30.109375 C-4 32.5 -4 32.5 -3.828125 35.515625 C-3.96734375 36.58296875 -4.1065625 37.6503125 -4.25 38.75 C-4.37890625 39.82765625 -4.5078125 40.9053125 -4.640625 42.015625 C-4.75921875 42.83546875 -4.8778125 43.6553125 -5 44.5 C-5.33 43.18 -5.66 41.86 -6 40.5 C-9.465 40.995 -9.465 40.995 -13 41.5 C-12.67 43.15 -12.34 44.8 -12 46.5 C-16.00410788 45.16529737 -16.70666202 42.94000697 -19 39.5 C-19.99 39.17 -20.98 38.84 -22 38.5 C-23.125 35.1875 -23.125 35.1875 -24 31.5 C-24.21962402 30.84362549 -24.43924805 30.18725098 -24.66552734 29.51098633 C-25.31481833 25.60718349 -22.57514843 22.43413923 -20.625 19.1875 C-20.17181396 18.4229248 -19.71862793 17.65834961 -19.25170898 16.87060547 C-15.64471471 11.03142677 -11.77766003 7.20999029 -6 3.5 C-5.48308594 2.96117187 -4.96617188 2.42234375 -4.43359375 1.8671875 C-3 0.5 -3 0.5 0 0 Z " fill="#2A2C16" transform="translate(82,14.5)"/>
<path d="M0 0 C5.763401 0.23524086 8.16728809 1.65506712 12.3046875 5.59765625 C14.07088514 7.25406832 14.07088514 7.25406832 17.1875 7.875 C20.48556281 9.19422512 20.708074 9.84975861 22.1875 12.9375 C22.46980469 13.62714844 22.75210938 14.31679687 23.04296875 15.02734375 C24.10666327 17.21985694 25.09615055 18.48243884 27 20 C30.61023099 20.73041853 30.61023099 20.73041853 34 21 C34 21.66 34 22.32 34 23 C32.35 22.67 30.7 22.34 29 22 C28.73729783 26.33458585 29.51117562 29.92532275 31 34 C31.99 34.33 32.98 34.66 34 35 C33.01 35.33 32.02 35.66 31 36 C26.58935631 33.39885116 25.06440578 30.34948104 23.0390625 25.87890625 C22.01211984 23.73418802 22.01211984 23.73418802 19.375 21.9375 C16.20185293 19.34888002 15.9393838 16.90205577 15 13 C14.34 12.34 13.68 11.68 13 11 C14.57562607 16.99506504 15.79916748 20.32136236 21 24 C22.39355764 25.95851344 23.74282547 27.95127113 25 30 C24.67 30.66 24.34 31.32 24 32 C22.29115995 30.37660195 20.62553283 28.70680947 19 27 C19 26.34 19 25.68 19 25 C18.34 25 17.68 25 17 25 C17.66 26.65 18.32 28.3 19 30 C18.01 30 17.02 30 16 30 C16.66 32.97 17.32 35.94 18 39 C17.236875 38.835 16.47375 38.67 15.6875 38.5 C12.96403764 37.90854604 12.96403764 37.90854604 10 38 C4.18406197 32.03866352 1.83206518 26.8874848 1.8125 18.5625 C1.86028735 16.70789582 1.9178296 14.85339912 2 13 C2.66 13 3.32 13 4 13 C4.27480702 7.18492013 4.27480702 7.18492013 2 2 C1.34 1.34 0.68 0.68 0 0 Z " fill="#455F43" transform="translate(157,0)"/>
<path d="M0 0 C0.66 0 1.32 0 2 0 C2 1.65 2 3.3 2 5 C2.66 5 3.32 5 4 5 C4 6.32 4 7.64 4 9 C4.66 9 5.32 9 6 9 C5.67 11.31 5.34 13.62 5 16 C5.66 16 6.32 16 7 16 C6.67 17.32 6.34 18.64 6 20 C6.99 20 7.98 20 9 20 C9 22.31 9 24.62 9 27 C8.34 27.33 7.68 27.66 7 28 C7.2475 28.86625 7.2475 28.86625 7.5 29.75 C8 32 8 32 8 36 C7.01 36.495 7.01 36.495 6 37 C6.66 37.33 7.32 37.66 8 38 C6.84826645 40.46800047 5.95216435 42.04783565 4 44 C4.66 44.33 5.32 44.66 6 45 C6 45.66 6 46.32 6 47 C3.17116253 48.41441874 1.12623255 48.31900332 -2 48 C-3.875 46 -3.875 46 -5 44 C-4.01 43.505 -4.01 43.505 -3 43 C-5.31 42.34 -7.62 41.68 -10 41 C-10 40.34 -10 39.68 -10 39 C-9.01 38.505 -9.01 38.505 -8 38 C-8.66 36.68 -9.32 35.36 -10 34 C-9.01 33.505 -9.01 33.505 -8 33 C-8 31.68 -8 30.36 -8 29 C-7.34 28.67 -6.68 28.34 -6 28 C-4.66695302 25.10813214 -4.66695302 25.10813214 -5.9375 22.8125 C-6.288125 22.214375 -6.63875 21.61625 -7 21 C-6.34 20.67 -5.68 20.34 -5 20 C-5.185625 19.236875 -5.37125 18.47375 -5.5625 17.6875 C-6 15 -6 15 -5 12 C-4.34 12.33 -3.68 12.66 -3 13 C-3.309375 11.8553125 -3.309375 11.8553125 -3.625 10.6875 C-4 8 -4 8 -2 5 C-1.30686092 3.34416775 -0.63525576 1.67889021 0 0 Z " fill="#DFBD82" transform="translate(188,70)"/>
<path d="M0 0 C0.99 0.33 1.98 0.66 3 1 C3.82957945 6.39226645 4 11.56103467 4 17 C4.66 17 5.32 17 6 17 C4.125 20.875 4.125 20.875 3 22 C3.66 22 4.32 22 5 22 C4.67 22.99 4.34 23.98 4 25 C2.68 25 1.36 25 0 25 C0 25.66 0 26.32 0 27 C0.99 27.33 1.98 27.66 3 28 C2.34 28 1.68 28 1 28 C1 30.31 1 32.62 1 35 C-2.465 35.495 -2.465 35.495 -6 36 C-11.74031891 26.77448747 -11.74031891 26.77448747 -11 21 C-11.66 21 -12.32 21 -13 21 C-13 20.01 -13 19.02 -13 18 C-12.34 18 -11.68 18 -11 18 C-11.495 17.38125 -11.99 16.7625 -12.5 16.125 C-14 14 -14 14 -14 12 C-12.35 11.67 -10.7 11.34 -9 11 C-9.66 11 -10.32 11 -11 11 C-10.34 7.7 -9.68 4.4 -9 1 C-8.01 1 -7.02 1 -6 1 C-5.67 3.97 -5.34 6.94 -5 10 C-4.34 10 -3.68 10 -3 10 C-3 7.69 -3 5.38 -3 3 C-2.34 3 -1.68 3 -1 3 C-0.67 2.01 -0.34 1.02 0 0 Z " fill="#F0C98A" transform="translate(122,83)"/>
<path d="M0 0 C3.87321093 1.57630677 6.24735163 4.07747669 9.125 7.0625 C12.24105765 10.46453483 12.24105765 10.46453483 16 13 C15.67 14.32 15.34 15.64 15 17 C13.75283203 15.82630859 13.75283203 15.82630859 12.48046875 14.62890625 C11.38304559 13.60652057 10.28537648 12.58439887 9.1875 11.5625 C8.64029297 11.04623047 8.09308594 10.52996094 7.52929688 9.99804688 C5.03940058 7.68923395 3.25924458 6.08641486 0 5 C0 5.99 0 6.98 0 8 C0.99 8.33 1.98 8.66 3 9 C3 10.65 3 12.3 3 14 C1.88625 13.95875 0.7725 13.9175 -0.375 13.875 C-4.04366025 13.58878141 -4.04366025 13.58878141 -6 16 C-6.99 16 -7.98 16 -9 16 C-9.33 17.32 -9.66 18.64 -10 20 C-9.34 20 -8.68 20 -8 20 C-8 20.99 -8 21.98 -8 23 C-8.99 23 -9.98 23 -11 23 C-11.33 23.99 -11.66 24.98 -12 26 C-12.33 25.01 -12.66 24.02 -13 23 C-13.66 23.99 -14.32 24.98 -15 26 C-16.65438613 26.69658363 -18.32254318 27.36096883 -20 28 C-21.33790641 28.99387334 -22.67218122 29.9926892 -24 31 C-24.66 31 -25.32 31 -26 31 C-26 31.66 -26 32.32 -26 33 C-25.34 33 -24.68 33 -24 33 C-24 36.96 -24 40.92 -24 45 C-24.33 45 -24.66 45 -25 45 C-25.33 42.69 -25.66 40.38 -26 38 C-26.99 38 -27.98 38 -29 38 C-30 36 -30 36 -29.5 34.0625 C-28.76397597 31.82334576 -28.76397597 31.82334576 -30 29 C-29.360625 28.87625 -28.72125 28.7525 -28.0625 28.625 C-27.381875 28.41875 -26.70125 28.2125 -26 28 C-25.67 27.34 -25.34 26.68 -25 26 C-26.32 26.33 -27.64 26.66 -29 27 C-27.02 24.69 -25.04 22.38 -23 20 C-23.66 20 -24.32 20 -25 20 C-24 18 -24 18 -21.76953125 17.171875 C-18.37298951 15.73469232 -16.35010786 13.79315657 -13.6875 11.25 C-9.32151542 7.1679819 -4.88327762 3.44208107 0 0 Z " fill="#3F2A0E" transform="translate(152,79)"/>
<path d="M0 0 C2.31 0 4.62 0 7 0 C7 3.3 7 6.6 7 10 C8.65 10 10.3 10 12 10 C12 7.69 12 5.38 12 3 C13.98 3 15.96 3 18 3 C18 5.31 18 7.62 18 10 C23.94 10 29.88 10 36 10 C36.495 12.475 36.495 12.475 37 15 C20.83 15 4.66 15 -12 15 C-11.34 13.35 -10.68 11.7 -10 10 C-7.375 9.1875 -7.375 9.1875 -5 9 C-5 7.02 -5 5.04 -5 3 C-3.35 2.67 -1.7 2.34 0 2 C0 1.34 0 0.68 0 0 Z " fill="#6B4B25" transform="translate(138,113)"/>
<path d="M0 0 C4.43751914 0.43840551 7.01397367 3.49370831 10.0625 6.4375 C14.31067232 10.4809307 14.31067232 10.4809307 19 14 C19.29296875 16.3828125 19.29296875 16.3828125 19.1875 19.125 C19.16042969 20.03507812 19.13335937 20.94515625 19.10546875 21.8828125 C19.07066406 22.58148438 19.03585938 23.28015625 19 24 C20.32 24.66 21.64 25.32 23 26 C22.01 26.495 22.01 26.495 21 27 C14.29540481 21.9059081 14.29540481 21.9059081 13.0625 18.125 C13.041875 17.42375 13.02125 16.7225 13 16 C10.525 15.505 10.525 15.505 8 15 C8 16.98 8 18.96 8 21 C6.68 21 5.36 21 4 21 C4 19.02 4 17.04 4 15 C2.02 15 0.04 15 -2 15 C-2 16.65 -2 18.3 -2 20 C-3.65 20.66 -5.3 21.32 -7 22 C-7.33 21.34 -7.66 20.68 -8 20 C-8.66 20 -9.32 20 -10 20 C-10 19.34 -10 18.68 -10 18 C-9.34 18 -8.68 18 -8 18 C-8 17.01 -8 16.02 -8 15 C-8.66 15 -9.32 15 -10 15 C-9.875 13.1875 -9.875 13.1875 -9 11 C-5.58893688 8.69951557 -3.75454424 7.93013479 0.375 8.3125 C1.24125 8.539375 2.1075 8.76625 3 9 C2.65555119 6.52733235 2.65555119 6.52733235 2 4 C1.34 3.67 0.68 3.34 0 3 C0 2.01 0 1.02 0 0 Z " fill="#EDC58A" transform="translate(152,84)"/>
<path d="M0 0 C1.98 0 3.96 0 6 0 C6 1.98 6 3.96 6 6 C7.32 6 8.64 6 10 6 C10 4.02 10 2.04 10 0 C11.65 0 13.3 0 15 0 C15.65104167 1.66015625 16.30208333 3.3203125 16.953125 4.98046875 C18.25430094 7.65140997 18.25430094 7.65140997 22 12 C8.14 12 -5.72 12 -20 12 C-14.38769671 6.38769671 -14.38769671 6.38769671 -9.4375 6.25 C-6.1318687 6.12162597 -3.18369333 5.92888935 0 5 C0 3.35 0 1.7 0 0 Z " fill="#361F08" transform="translate(150,99)"/>
<path d="M0 0 C2.475 0.99 2.475 0.99 5 2 C5.33 11.24 5.66 20.48 6 30 C8.51083114 28.74458443 8.87125446 27.49936512 10 25 C11.32 25.33 12.64 25.66 14 26 C12.84826645 28.46800047 11.95216435 30.04783565 10 32 C10.66 32.33 11.32 32.66 12 33 C12 33.66 12 34.32 12 35 C9.17116253 36.41441874 7.12623255 36.31900332 4 36 C2.125 34 2.125 34 1 32 C1.66 31.67 2.32 31.34 3 31 C0.69 30.34 -1.62 29.68 -4 29 C-4 28.34 -4 27.68 -4 27 C-3.34 26.67 -2.68 26.34 -2 26 C-2.66 24.68 -3.32 23.36 -4 22 C-3.34 21.67 -2.68 21.34 -2 21 C-2 19.68 -2 18.36 -2 17 C-1.34 16.67 -0.68 16.34 0 16 C1.33304698 13.10813214 1.33304698 13.10813214 0.0625 10.8125 C-0.288125 10.214375 -0.63875 9.61625 -1 9 C-0.34 8.67 0.32 8.34 1 8 C0.7525 6.8553125 0.7525 6.8553125 0.5 5.6875 C0 3 0 3 0 0 Z " fill="#C59E62" transform="translate(182,82)"/>
<path d="M0 0 C9.24 0 18.48 0 28 0 C28 2.97 28 5.94 28 9 C22.39 9 16.78 9 11 9 C11 6.69 11 4.38 11 2 C9.02 2 7.04 2 5 2 C5 4.31 5 6.62 5 9 C3.35 9 1.7 9 0 9 C0 6.03 0 3.06 0 0 Z " fill="#D2A96D" transform="translate(145,114)"/>
<path d="M0 0 C2.97 0.495 2.97 0.495 6 1 C6.98142381 5.24733832 7.30920379 9.47324533 7.5625 13.8125 C7.60568359 14.50537109 7.64886719 15.19824219 7.69335938 15.91210938 C7.79861453 17.60788686 7.89972863 19.30392052 8 21 C7.34 20.34 6.68 19.68 6 19 C6 21.31 6 23.62 6 26 C6.66 26 7.32 26 8 26 C8 26.66 8 27.32 8 28 C8.556875 28.226875 9.11375 28.45375 9.6875 28.6875 C12.66159588 30.37550036 14.72008865 32.46676517 17 35 C17 35.66 17 36.32 17 37 C14.04590299 35.62845496 11.55991624 34.01136276 9 32 C8.01 32.495 8.01 32.495 7 33 C7 33.99 7 34.98 7 36 C6.34 35.67 5.68 35.34 5 35 C5 33.68 5 32.36 5 31 C4.67 31.66 4.34 32.32 4 33 C3.34 33 2.68 33 2 33 C-0.37441953 28.15222679 -1.8170473 24.51506924 -1 19 C1.375 16.0625 1.375 16.0625 4 14 C4.66 14 5.32 14 6 14 C5.34 10.37 4.68 6.74 4 3 C1.69 3.33 -0.62 3.66 -3 4 C-2.01 2.68 -1.02 1.36 0 0 Z " fill="#3F5238" transform="translate(221,27)"/>
<path d="M0 0 C2.74249395 0.42192215 4.59144633 0.71786044 7 2 C8.34355538 3.94395669 9.20882828 5.83359967 10.078125 8.02734375 C11.11348638 10.24284162 12.0880635 11.47966495 14 13 C17.61023099 13.73041853 17.61023099 13.73041853 21 14 C21 14.66 21 15.32 21 16 C18.525 15.505 18.525 15.505 16 15 C15.73729783 19.33458585 16.51117562 22.92532275 18 27 C18.99 27.33 19.98 27.66 21 28 C20.01 28.33 19.02 28.66 18 29 C13.58935631 26.39885116 12.06440578 23.34948104 10.0390625 18.87890625 C9.01211984 16.73418802 9.01211984 16.73418802 6.375 14.9375 C3.19244015 12.34120117 2.92715003 9.92255781 2 6 C1.34 5.01 0.68 4.02 0 3 C0 2.01 0 1.02 0 0 Z " fill="#4F6C50" transform="translate(170,7)"/>
<path d="M0 0 C6.05303352 -0.24706259 11.19654642 0.2747978 16.4375 3.5 C16.953125 3.995 17.46875 4.49 18 5 C18 5.66 18 6.32 18 7 C18.639375 7.28875 19.27875 7.5775 19.9375 7.875 C22 9 22 9 23 11 C21.35 11 19.7 11 18 11 C18 11.66 18 12.32 18 13 C20.31 13.33 22.62 13.66 25 14 C25 14.99 25 15.98 25 17 C20.29336262 16.46616589 16.9217322 14.31728256 13.0625 11.75 C12.46759766 11.36714844 11.87269531 10.98429688 11.25976562 10.58984375 C7.26374218 7.97823498 3.53366375 5.21536426 0 2 C0 1.34 0 0.68 0 0 Z " fill="#311D05" transform="translate(87,119)"/>
<path d="M0 0 C3.0282483 0.4588255 5.40158914 1.18005637 8.21484375 2.44140625 C11.89929732 4.04945781 15.54273877 4.88096948 19.5 5.625 C20.7478125 5.86476562 21.995625 6.10453125 23.28125 6.3515625 C30.10505522 7.5414277 36.52663662 8.13489422 43.4375 8.0625 C44.67790039 8.05573242 44.67790039 8.05573242 45.94335938 8.04882812 C47.96227146 8.03715811 49.98114574 8.01922718 52 8 C52 8.33 52 8.66 52 9 C50.35 9.33 48.7 9.66 47 10 C47.99 10.66 48.98 11.32 50 12 C31.96314086 12.65433004 16.82744691 10.83274302 0 4 C0 2.66666667 0 1.33333333 0 0 Z " fill="#4A311D" transform="translate(111,137)"/>
<path d="M0 0 C16.83 0 33.66 0 51 0 C51 0.33 51 0.66 51 1 C49.3603125 1.2165625 49.3603125 1.2165625 47.6875 1.4375 C44.06877013 1.88288104 44.06877013 1.88288104 41 3 C41 2.34 41 1.68 41 1 C34.565 1.495 34.565 1.495 28 2 C28 2.33 28 2.66 28 3 C26.35 3 24.7 3 23 3 C22.67 3.99 22.34 4.98 22 6 C18.4375 7.6875 18.4375 7.6875 15 9 C15 7 15 5 15 3 C11.75016865 4.08784968 11.75016865 4.08784968 9 6 C7.33382885 6.04063832 5.66611905 6.042721 4 6 C5.32 5.67 6.64 5.34 8 5 C8 4.34 8 3.68 8 3 C6.68 3 5.36 3 4 3 C4 2.34 4 1.68 4 1 C2.68 0.67 1.36 0.34 0 0 Z " fill="#2A1402" transform="translate(125,128)"/>
<path d="M0 0 C0.44730469 0.38671875 0.89460938 0.7734375 1.35546875 1.171875 C2.60999089 2.25252947 3.86798374 3.32916423 5.12890625 4.40234375 C6.63937194 5.69207333 8.13465235 6.99957469 9.625 8.3125 C12.15381643 10.10929062 13.94460847 10.6508124 17 11 C17.144375 11.598125 17.28875 12.19625 17.4375 12.8125 C17.8872439 14.56150404 18.42892341 16.28677023 19 18 C19.66 18 20.32 18 21 18 C21 18.99 21 19.98 21 21 C19 21 19 21 16.76953125 18.89453125 C15.84450628 17.93145898 14.92147437 16.96647006 14 16 C12.96488607 14.95959982 11.92704232 13.92190967 10.88671875 12.88671875 C7.92447917 9.92447917 4.96223958 6.96223958 2 4 C-2.13211732 5.37981893 -4.6669732 7.26200362 -7.8125 10.25 C-12.01484875 14.14993085 -16.33278629 17.675588 -21 21 C-21.66 20.67 -22.32 20.34 -23 20 C-21.69791667 18.56770833 -20.39583333 17.13541667 -19.09375 15.703125 C-17.63975508 13.77639485 -17.63975508 13.77639485 -18 10 C-17.01 10 -16.02 10 -15 10 C-14.67 10.66 -14.34 11.32 -14 12 C-13.24074219 11.30132812 -12.48148438 10.60265625 -11.69921875 9.8828125 C-10.69540947 8.96343578 -9.69149785 8.04417079 -8.6875 7.125 C-8.18798828 6.66480469 -7.68847656 6.20460938 -7.17382812 5.73046875 C-4.85790957 3.61393392 -2.61710426 1.74473617 0 0 Z " fill="#BC9F6A" transform="translate(152,76)"/>
<path d="M0 0 C0.66 0.33 1.32 0.66 2 1 C1.67 1.99 1.34 2.98 1 4 C1.66 4 2.32 4 3 4 C3.37125 5.5159375 3.37125 5.5159375 3.75 7.0625 C4.89660638 11.13378354 6.79741473 14.40244406 9 18 C10.98 18 12.96 18 15 18 C14.01 18.66 13.02 19.32 12 20 C12 20.99 12 21.98 12 23 C11.34 23.33 10.68 23.66 10 24 C9.53348793 26.12576782 9.53348793 26.12576782 9.375 28.5625 C9.30023438 29.38878906 9.22546875 30.21507812 9.1484375 31.06640625 C9.09945312 31.70449219 9.05046875 32.34257812 9 33 C8.34 33 7.68 33 7 33 C6.67 28.38 6.34 23.76 6 19 C3.69 18.67 1.38 18.34 -1 18 C-1.33 14.37 -1.66 10.74 -2 7 C-0.68 7 0.64 7 2 7 C2 6.34 2 5.68 2 5 C1.01 4.67 0.02 4.34 -1 4 C-0.67 2.68 -0.34 1.36 0 0 Z " fill="#95774E" transform="translate(108,100)"/>
<path d="M0 0 C0 3.23045018 -0.31955209 4.31128335 -2 7 C-6.93153399 11.69320707 -14.76789253 19 -22 19 C-23.33199808 19.47549423 -24.64934372 19.9924857 -25.95703125 20.53125 C-26.74013672 20.84707031 -27.52324219 21.16289062 -28.33007812 21.48828125 C-29.97498161 22.15866678 -31.61824172 22.83309993 -33.25976562 23.51171875 C-40.68227996 26.49045096 -40.68227996 26.49045096 -45 26 C-42.62844111 23.62844111 -41.07711918 23.30858788 -37.875 22.375 C-26.19600336 18.5944343 -15.26648508 13.10571519 -6 5 C-4.81375919 4.01930823 -3.62639379 3.03997388 -2.4375 2.0625 C-1.633125 1.381875 -0.82875 0.70125 0 0 Z " fill="#654D2F" transform="translate(217,118)"/>
<path d="M0 0 C0.12375 0.53625 0.2475 1.0725 0.375 1.625 C1.12206016 4.4638286 2.05303364 7.22223202 3 10 C3.66 10 4.32 10 5 10 C5 12.64 5 15.28 5 18 C5.66 18.33 6.32 18.66 7 19 C6.34 19.99 5.68 20.98 5 22 C8.04134491 20.33075929 8.04134491 20.33075929 9 18 C9.99 18.66 10.98 19.32 12 20 C12 20.66 12 21.32 12 22 C9.17116253 23.41441874 7.12623255 23.31900332 4 23 C2.125 21 2.125 21 1 19 C1.66 18.67 2.32 18.34 3 18 C0.69 17.34 -1.62 16.68 -4 16 C-4 15.34 -4 14.68 -4 14 C-3.34 13.67 -2.68 13.34 -2 13 C-2.66 11.68 -3.32 10.36 -4 9 C-3.34 8.67 -2.68 8.34 -2 8 C-2 6.68 -2 5.36 -2 4 C-1.34 3.67 -0.68 3.34 0 3 C0 2.01 0 1.02 0 0 Z " fill="#A47944" transform="translate(182,95)"/>
<path d="M0 0 C0.99 0.33 1.98 0.66 3 1 C3.33 3.31 3.66 5.62 4 8 C3.34 7.67 2.68 7.34 2 7 C2 5.35 2 3.7 2 2 C1.34 2 0.68 2 0 2 C0.020625 2.9075 0.04125 3.815 0.0625 4.75 C-0.03355705 9.74496644 -0.03355705 9.74496644 -1 12 C-4.51962373 14.27072499 -6.81807487 14 -11 14 C-11.33 14.66 -11.66 15.32 -12 16 C-12.66 14.68 -13.32 13.36 -14 12 C-12.35 11.67 -10.7 11.34 -9 11 C-9.66 11 -10.32 11 -11 11 C-10.34 7.7 -9.68 4.4 -9 1 C-8.01 1 -7.02 1 -6 1 C-5.67 3.97 -5.34 6.94 -5 10 C-4.34 10 -3.68 10 -3 10 C-3 7.69 -3 5.38 -3 3 C-2.34 3 -1.68 3 -1 3 C-0.67 2.01 -0.34 1.02 0 0 Z " fill="#D8B57E" transform="translate(122,83)"/>
<path d="M0 0 C1.32 0.33 2.64 0.66 4 1 C3.0409375 1.433125 3.0409375 1.433125 2.0625 1.875 C-0.15206079 2.82823451 -0.15206079 2.82823451 -1 5 C-1.07194869 7.88370333 -1.09291708 10.74239664 -1.0625 13.625 C-1.05798828 14.42679688 -1.05347656 15.22859375 -1.04882812 16.0546875 C-1.03703168 18.03649006 -1.01909605 20.01825433 -1 22 C-0.04287109 22.43119141 -0.04287109 22.43119141 0.93359375 22.87109375 C3.44966495 24.24565817 3.7811706 25.48108591 5 28 C5.99 28.33 6.98 28.66 8 29 C8 29.66 8 30.32 8 31 C4.63279613 29.60667426 3.0140476 28.0210714 1 25 C1.33 25.515625 1.66 26.03125 2 26.5625 C3.32010877 29.78026512 3.13242105 32.5570528 3 36 C2.01 36 1.02 36 0 36 C-0.13277344 35.28972656 -0.26554688 34.57945313 -0.40234375 33.84765625 C-0.66724609 32.46900391 -0.66724609 32.46900391 -0.9375 31.0625 C-1.19853516 29.68771484 -1.19853516 29.68771484 -1.46484375 28.28515625 C-1.77714988 26.04710156 -1.77714988 26.04710156 -3 25 C-5.54564061 7.46336472 -5.54564061 7.46336472 -2 1.8125 C-1.34 1.214375 -0.68 0.61625 0 0 Z " fill="#2D331C" transform="translate(158,41)"/>
<path d="M0 0 C0 0.66 0 1.32 0 2 C-0.66 2 -1.32 2 -2 2 C-2 5.63 -2 9.26 -2 13 C-2.33 13 -2.66 13 -3 13 C-3 10.03 -3 7.06 -3 4 C-4.21731812 4.01571045 -4.21731812 4.01571045 -5.45922852 4.03173828 C-9.16028711 4.0734865 -12.86129601 4.09938613 -16.5625 4.125 C-18.47772461 4.15013672 -18.47772461 4.15013672 -20.43164062 4.17578125 C-26.65522259 4.20811155 -32.14953928 4.23461206 -38 2 C-38 1.67 -38 1.34 -38 1 C-33.23114211 0.85682765 -28.46226186 0.7144331 -23.69335938 0.57275391 C-22.07160823 0.52446435 -20.44986335 0.47596364 -18.828125 0.42724609 C-16.49480792 0.35718939 -14.16146921 0.28789635 -11.828125 0.21875 C-11.10506165 0.19687622 -10.38199829 0.17500244 -9.63702393 0.15246582 C-6.42215327 0.05786882 -3.21673398 0 0 0 Z " fill="#806339" transform="translate(176,110)"/>
<path d="M0 0 C0 0.99 0 1.98 0 3 C-2.38956297 4.11962835 -4.78543437 5.22025241 -7.1875 6.3125 C-8.16879883 6.7755957 -8.16879883 6.7755957 -9.16992188 7.24804688 C-20.28348282 12.25178285 -31.22985553 13.44513977 -43.3125 13.1875 C-44.54162109 13.17396484 -45.77074219 13.16042969 -47.03710938 13.14648438 C-50.02522513 13.11160365 -53.01235873 13.06259698 -56 13 C-56 12.67 -56 12.34 -56 12 C-54.77023438 11.95101562 -53.54046875 11.90203125 -52.2734375 11.8515625 C-50.64060434 11.77648971 -49.00779288 11.70094385 -47.375 11.625 C-46.56675781 11.5940625 -45.75851563 11.563125 -44.92578125 11.53125 C-40.23496174 11.30242954 -36.45894483 10.56377079 -32 9 C-30.08576352 8.88503887 -28.16764348 8.82518283 -26.25 8.8125 C-18.79137103 8.37223371 -5.51896078 5.51896078 0 0 Z " fill="#432917" transform="translate(196,135)"/>
<path d="M0 0 C2.90826555 2.42355463 3.94026495 3.77698915 4.9375 7.5 C6.21612055 11.71192652 7.62031759 12.32769298 11 15 C11.86140964 16.45122834 12.66992149 17.93453176 13.4375 19.4375 C15.68994825 23.78458165 18.04756954 26.15057339 22 29 C21.67 29.99 21.34 30.98 21 32 C15.52744037 28.93102115 11.84592914 25.94476604 8 21 C7.01 20.34 6.02 19.68 5 19 C5 18.01 5 17.02 5 16 C7 16 7 16 9.125 18 C9.74375 18.66 10.3625 19.32 11 20 C9.4343471 17.03349977 8.27672827 15.19370979 5.5 13.25 C1.99260284 10.09334256 1.07217949 6.51535752 0 2 C0 1.34 0 0.68 0 0 Z " fill="#2D311C" transform="translate(169,9)"/>
<path d="M0 0 C0.33 0 0.66 0 1 0 C0.46048934 6.68993219 -0.88706171 12.63460728 -3 19 C-3.66 18.01 -4.32 17.02 -5 16 C-5.66 17.32 -6.32 18.64 -7 20 C-7.66 20 -8.32 20 -9 20 C-12.42857143 11.57142857 -12.42857143 11.57142857 -12 7 C-10 8 -8 9 -6 10 C-6 10.66 -6 11.32 -6 12 C-5.34 12 -4.68 12 -4 12 C-3.67 9.03 -3.34 6.06 -3 3 C-2.34 3 -1.68 3 -1 3 C-0.67 2.01 -0.34 1.02 0 0 Z " fill="#2B321A" transform="translate(151,24)"/>
<path d="M0 0 C0.66 0 1.32 0 2 0 C2.04898438 0.71027344 2.09796875 1.42054687 2.1484375 2.15234375 C2.22320312 3.07144531 2.29796875 3.99054687 2.375 4.9375 C2.44460937 5.85402344 2.51421875 6.77054688 2.5859375 7.71484375 C2.72257813 8.46894531 2.85921875 9.22304688 3 10 C3.66 10.33 4.32 10.66 5 11 C4.125 15.875 4.125 15.875 3 17 C2.76924918 18.34747084 2.58846937 19.70377565 2.4375 21.0625 C2.293125 22.361875 2.14875 23.66125 2 25 C0 25 0 25 -1.6875 23.5625 C-3.65849504 19.71436683 -2.90727203 16.14152882 -2 12 C-1.67 11.67 -1.34 11.34 -1 11 C-0.95372155 9.33397597 -0.96213099 7.66623639 -1 6 C-1.03786901 4.33376361 -1.04627845 2.66602403 -1 1 C-0.67 0.67 -0.34 0.34 0 0 Z " fill="#3B492F" transform="translate(215,53)"/>
<path d="M0 0 C2.5592805 0.34584872 4.52075586 0.68050391 6.6875 2.125 C8.59359579 4.84799398 9.12038115 7.81138167 10 11 C11.51462733 13.8334743 11.51462733 13.8334743 13 16 C7.60091083 14.83549057 4.37348059 13.66334082 1 9 C0.32014824 5.99858037 0.07363086 3.07241491 0 0 Z " fill="#537054" transform="translate(97,26)"/>
<path d="M0 0 C-0.66 1.32 -1.32 2.64 -2 4 C-1.34 4 -0.68 4 0 4 C0.82638376 6.89234315 1 8.88742431 1 12 C-0.32 12 -1.64 12 -3 12 C-3.33 13.98 -3.66 15.96 -4 18 C-4.99 18 -5.98 18 -7 18 C-6.34 14.7 -5.68 11.4 -5 8 C-5.66 8 -6.32 8 -7 8 C-7 5.36 -7 2.72 -7 0 C-2.25 -1.125 -2.25 -1.125 0 0 Z " fill="#E8C589" transform="translate(195,94)"/>
<path d="M0 0 C5.28 0 10.56 0 16 0 C16 2.31 16 4.62 16 7 C15.34 6.34 14.68 5.68 14 5 C13.67 5.99 13.34 6.98 13 8 C12.34 8 11.68 8 11 8 C11 6.02 11 4.04 11 2 C9.02 2 7.04 2 5 2 C5 4.31 5 6.62 5 9 C3.35 9 1.7 9 0 9 C0 6.03 0 3.06 0 0 Z " fill="#DDB579" transform="translate(145,114)"/>
<path d="M0 0 C-0.33 1.98 -0.66 3.96 -1 6 C-1.99 6 -2.98 6 -4 6 C-3.67 9.3 -3.34 12.6 -3 16 C-7 17 -7 17 -9.25 15.875 C-11 14 -11 14 -11.25 11.3125 C-11.1675 10.549375 -11.085 9.78625 -11 9 C-9.68 9.99 -8.36 10.98 -7 12 C-7.495 11.38125 -7.99 10.7625 -8.5 10.125 C-10 8 -10 8 -10 6 C-9.01 5.67 -8.02 5.34 -7 5 C-6.67 4.34 -6.34 3.68 -6 3 C-4.60722783 0.21445565 -3.01148006 0 0 0 Z " fill="#3F5137" transform="translate(138,33)"/>
<path d="M0 0 C2.31 0 4.62 0 7 0 C6.67 2.97 6.34 5.94 6 9 C2.37 9 -1.26 9 -5 9 C-5 7.02 -5 5.04 -5 3 C-3.35 2.67 -1.7 2.34 0 2 C0 1.34 0 0.68 0 0 Z " fill="#301A03" transform="translate(138,113)"/>
<path d="M0 0 C0.66 0 1.32 0 2 0 C2.86114699 3.91430448 3.22345413 6.36687997 1.875 10.1875 C-0.12220541 13.18330812 -2.01220215 15.00813477 -5 17 C-5.66 17 -6.32 17 -7 17 C-7.66 18.32 -8.32 19.64 -9 21 C-9.66 18.03 -10.32 15.06 -11 12 C-7.38026598 10.68373308 -4.90432869 10 -1 10 C-1.33 9.01 -1.66 8.02 -2 7 C-1.40206327 4.64811553 -0.74118205 2.31074405 0 0 Z " fill="#E9C383" transform="translate(122,85)"/>
<path d="M0 0 C1.98 0 3.96 0 6 0 C6 1.98 6 3.96 6 6 C7.32 6 8.64 6 10 6 C10 4.02 10 2.04 10 0 C11.65 0 13.3 0 15 0 C15.66 2.31 16.32 4.62 17 7 C13.04 7 9.08 7 5 7 C5 5.02 5 3.04 5 1 C3.68 1 2.36 1 1 1 C1 2.65 1 4.3 1 6 C1.99 6.33 2.98 6.66 4 7 C1.36 7 -1.28 7 -4 7 C-2.68 6.34 -1.36 5.68 0 5 C0 3.35 0 1.7 0 0 Z " fill="#9B7C4B" transform="translate(150,99)"/>
<path d="M0 0 C3.71368887 1.23789629 4.77354181 2.85224877 7 6 C7 6.66 7 7.32 7 8 C7.66 8 8.32 8 9 8 C9 8.66 9 9.32 9 10 C8.34 10 7.68 10 7 10 C7.33 12.64 7.66 15.28 8 18 C7.01 18.66 6.02 19.32 5 20 C3 18 3 18 2.9453125 15.35546875 C3.03425781 13.78732422 3.03425781 13.78732422 3.125 12.1875 C3.24154129 7.19475849 3.24154129 7.19475849 1 2.75 C0.34 2.1725 -0.32 1.595 -1 1 C-0.67 0.67 -0.34 0.34 0 0 Z " fill="#3A462A" transform="translate(74,41)"/>
<path d="M0 0 C0.80179688 0.0721875 1.60359375 0.144375 2.4296875 0.21875 C12.30692861 1.0250554 22.09624155 1.10105876 32 1 C32 1.33 32 1.66 32 2 C30.35 2.33 28.7 2.66 27 3 C27.99 3.66 28.98 4.32 30 5 C26.41673499 5.05814085 22.83359162 5.09364357 19.25 5.125 C18.23421875 5.14175781 17.2184375 5.15851563 16.171875 5.17578125 C15.1921875 5.18222656 14.2125 5.18867188 13.203125 5.1953125 C11.85202637 5.21102295 11.85202637 5.21102295 10.47363281 5.22705078 C6.1550418 4.83065425 3.3405031 2.62468101 0 0 Z " fill="#725A41" transform="translate(131,144)"/>
<path d="M0 0 C2.47709607 0.34166842 3.77141885 0.78900202 5.625 2.5 C7.62460016 6.13563666 8.2632145 9.94334571 9 14 C8.34 13.67 7.68 13.34 7 13 C7 12.34 7 11.68 7 11 C5.35 11.33 3.7 11.66 2 12 C-1.57142857 4.71428571 -1.57142857 4.71428571 0 0 Z " fill="#3B4E35" transform="translate(186,22)"/>
<path d="M0 0 C0.66 0 1.32 0 2 0 C2 1.65 2 3.3 2 5 C2.66 5 3.32 5 4 5 C4 6.32 4 7.64 4 9 C4.66 9 5.32 9 6 9 C5.67 11.31 5.34 13.62 5 16 C5.66 16 6.32 16 7 16 C7 16.66 7 17.32 7 18 C5.68 18 4.36 18 3 18 C2.67 16.02 2.34 14.04 2 12 C1.01 11.67 0.02 11.34 -1 11 C-2.0257259 6.58937864 -2.03684712 4.07369424 0 0 Z " fill="#D1B584" transform="translate(188,70)"/>
<path d="M0 0 C0.67095703 0.58007812 0.67095703 0.58007812 1.35546875 1.171875 C2.60999089 2.25252947 3.86798374 3.32916423 5.12890625 4.40234375 C6.63937194 5.69207333 8.13465235 6.99957469 9.625 8.3125 C12.15381643 10.10929062 13.94460847 10.6508124 17 11 C17.144375 11.598125 17.28875 12.19625 17.4375 12.8125 C17.8872439 14.56150404 18.42892341 16.28677023 19 18 C19.66 18 20.32 18 21 18 C21 18.99 21 19.98 21 21 C19 21 19 21 16.75 18.890625 C15.38875 17.45976563 15.38875 17.45976563 14 16 C12.00807835 13.90875073 10.00622993 11.82751728 8 9.75 C7.49210938 9.20859375 6.98421875 8.6671875 6.4609375 8.109375 C3.45683634 5.0282456 1.36691686 3.28898714 -3 3 C-2.01 2.01 -1.02 1.02 0 0 Z " fill="#CEB27C" transform="translate(152,76)"/>
<path d="M0 0 C0.99 0.33 1.98 0.66 3 1 C3 1.66 3 2.32 3 3 C4.134375 3.12375 5.26875 3.2475 6.4375 3.375 C7.613125 3.58125 8.78875 3.7875 10 4 C10.33 4.66 10.66 5.32 11 6 C9.1875 7.5625 9.1875 7.5625 7 9 C6.01 8.67 5.02 8.34 4 8 C1.10067643 10.39509338 0.49831724 12.31245243 0 16 C-0.33 16 -0.66 16 -1 16 C-1 12.04 -1 8.08 -1 4 C-0.34 4 0.32 4 1 4 C1 3.34 1 2.68 1 2 C0.34 1.67 -0.32 1.34 -1 1 C-0.67 0.67 -0.34 0.34 0 0 Z " fill="#2D210B" transform="translate(175,108)"/>
<path d="M0 0 C0.33 0 0.66 0 1 0 C1.33 8.25 1.66 16.5 2 25 C4.51083114 23.74458443 4.87125446 22.49936512 6 20 C7.32 20.33 8.64 20.66 10 21 C9.25 22.9375 9.25 22.9375 8 25 C5.875 25.75 5.875 25.75 4 26 C4.33 26.99 4.66 27.98 5 29 C3.68 29.33 2.36 29.66 1 30 C1 26 1 22 1 18 C0.34 17.67 -0.32 17.34 -1 17 C-0.67 11.39 -0.34 5.78 0 0 Z " fill="#BA9B64" transform="translate(186,87)"/>
<path d="M0 0 C0.99 0.99 1.98 1.98 3 3 C3.66 2.67 4.32 2.34 5 2 C5 6.95 5 11.9 5 17 C1.92056849 14.94704566 1.20706879 14.34265205 0 11 C-0.125 7.75 -0.125 7.75 0 5 C-0.66 5 -1.32 5 -2 5 C-2 4.01 -2 3.02 -2 2 C-1.34 2 -0.68 2 0 2 C0 1.34 0 0.68 0 0 Z " fill="#C79E65" transform="translate(111,99)"/>
<path d="M0 0 C0.99 0.33 1.98 0.66 3 1 C3 4.3 3 7.6 3 11 C4.32 11.66 5.64 12.32 7 13 C6.01 13.495 6.01 13.495 5 14 C-1.70459519 9.06345733 -1.70459519 9.06345733 -2.9375 4.625 C-2.9684375 3.325625 -2.9684375 3.325625 -3 2 C-2.01 1.34 -1.02 0.68 0 0 Z " fill="#D6B175" transform="translate(168,97)"/>
<path d="M0 0 C4.21200802 3.13318308 8.38670452 6.30047784 12.5 9.5625 C16.49336302 12.68774063 20.63746688 15.42051856 25 18 C24.34 18.33 23.68 18.66 23 19 C20.61396115 17.58375141 18.34566812 16.13001381 16.0625 14.5625 C11.45819895 11.13426934 11.45819895 11.13426934 6 10 C4.94228261 8.36935236 3.94726954 6.69719127 3 5 C2.443125 4.443125 1.88625 3.88625 1.3125 3.3125 C0.879375 2.879375 0.44625 2.44625 0 2 C0 1.34 0 0.68 0 0 Z " fill="#6A4C2D" transform="translate(83,117)"/>
<path d="M0 0 C0.66 0 1.32 0 2 0 C2.66 1.32 3.32 2.64 4 4 C4.66 4 5.32 4 6 4 C5.67 4.99 5.34 5.98 5 7 C3.68 7 2.36 7 1 7 C1 7.66 1 8.32 1 9 C1.99 9.33 2.98 9.66 4 10 C3.34 10 2.68 10 2 10 C2 12.31 2 14.62 2 17 C0.68 16.67 -0.64 16.34 -2 16 C-1.34 14.35 -0.68 12.7 0 11 C-0.66 10.34 -1.32 9.68 -2 9 C-1.34 9 -0.68 9 0 9 C-0.33 8.01 -0.66 7.02 -1 6 C-0.67 5.67 -0.34 5.34 0 5 C-0.66 4.67 -1.32 4.34 -2 4 C-1.34 2.68 -0.68 1.36 0 0 Z " fill="#C3A572" transform="translate(121,101)"/>
<path d="M0 0 C1.32 0 2.64 0 4 0 C3.67 0.66 3.34 1.32 3 2 C2.34 1.67 1.68 1.34 1 1 C2.32 2.65 3.64 4.3 5 6 C4.34 6 3.68 6 3 6 C2.34 7.32 1.68 8.64 1 10 C0.34 10 -0.32 10 -1 10 C-0.34 11.32 0.32 12.64 1 14 C-0.65 13.67 -2.3 13.34 -4 13 C-3.67 12.113125 -3.34 11.22625 -3 10.3125 C-1.86753956 7.1379169 -1.86753956 7.1379169 -2 4.25 C-2 2 -2 2 0 0 Z " fill="#483E1C" transform="translate(180,90)"/>
<path d="M0 0 C4.74908547 2.80627778 7.19372222 5.25091453 10 10 C10.66 9.67 11.32 9.34 12 9 C11.67 10.32 11.34 11.64 11 13 C6.2465968 11.60194023 2.88992411 8.97972714 0 5 C-0.375 2.125 -0.375 2.125 0 0 Z " fill="#3E4E35" transform="translate(79,39)"/>
<path d="M0 0 C2.90826555 2.42355463 3.94026495 3.77698915 4.9375 7.5 C6.19930046 11.65651915 7.61833381 12.44313044 11 15 C12.8125 18.25 12.8125 18.25 14 21 C11 20 11 20 9.625 17.6875 C8.16564857 14.86493715 8.16564857 14.86493715 5.5 13.25 C1.99260284 10.09334256 1.07217949 6.51535752 0 2 C0 1.34 0 0.68 0 0 Z " fill="#303922" transform="translate(169,9)"/>
<path d="M0 0 C1.32 0.66 2.64 1.32 4 2 C4 3.65 4 5.3 4 7 C2.88625 6.95875 1.7725 6.9175 0.625 6.875 C-3.04366025 6.58878141 -3.04366025 6.58878141 -5 9 C-5.99 8.67 -6.98 8.34 -8 8 C-6.71034824 6.62437146 -5.37310707 5.29233607 -4 4 C-3.34 4 -2.68 4 -2 4 C-1.34 2.68 -0.68 1.36 0 0 Z " fill="#B39465" transform="translate(151,86)"/>
<path d="M0 0 C0.70125 0.45890625 1.4025 0.9178125 2.125 1.390625 C6.5361977 4.24351917 10.85636856 7.03041882 15.625 9.25 C19 11 19 11 20 14 C15.02426363 12.23441613 10.54657946 9.64818312 6 7 C5.36835937 6.63390625 4.73671875 6.2678125 4.0859375 5.890625 C2.4375 4.875 2.4375 4.875 0 3 C0 2.01 0 1.02 0 0 Z " fill="#4C3624" transform="translate(91,126)"/>
<path d="M0 0 C2.31 0 4.62 0 7 0 C7 0.66 7 1.32 7 2 C6.01 2 5.02 2 4 2 C4 3.98 4 5.96 4 8 C4.99 8.33 5.98 8.66 7 9 C4.69 9 2.38 9 0 9 C0 6.03 0 3.06 0 0 Z " fill="#D8B27A" transform="translate(129,114)"/>
<path d="M0 0 C1.98 0.66 3.96 1.32 6 2 C5.34 4.31 4.68 6.62 4 9 C3.01 9 2.02 9 1 9 C0.67 8.01 0.34 7.02 0 6 C-0.33 6.66 -0.66 7.32 -1 8 C-1.99 7.67 -2.98 7.34 -4 7 C-3.525625 6.5875 -3.05125 6.175 -2.5625 5.75 C-0.83733482 3.817815 -0.43415125 2.51807725 0 0 Z " fill="#394B30" transform="translate(128,50)"/>
<path d="M0 0 C0.99 0.33 1.98 0.66 3 1 C3.33 3.31 3.66 5.62 4 8 C3.34 7.67 2.68 7.34 2 7 C2 5.35 2 3.7 2 2 C1.34 2 0.68 2 0 2 C0.020625 2.9075 0.04125 3.815 0.0625 4.75 C-0.03355705 9.74496644 -0.03355705 9.74496644 -1 12 C-3.0625 13.25 -3.0625 13.25 -5 14 C-5 12.68 -5 11.36 -5 10 C-4.34 10 -3.68 10 -3 10 C-3 7.69 -3 5.38 -3 3 C-2.34 3 -1.68 3 -1 3 C-0.67 2.01 -0.34 1.02 0 0 Z " fill="#C5AA72" transform="translate(122,83)"/>
<path d="M0 0 C2.97 0.495 2.97 0.495 6 1 C6.98142381 5.24733832 7.30920379 9.47324533 7.5625 13.8125 C7.60568359 14.50537109 7.64886719 15.19824219 7.69335938 15.91210938 C7.79861453 17.60788686 7.89972863 19.30392052 8 21 C7.01 20.34 6.02 19.68 5 19 C4.7421875 16.3203125 4.7421875 16.3203125 4.875 13.125 C5.00777477 9.52237803 5.08536726 6.45647728 4 3 C1.69 3.33 -0.62 3.66 -3 4 C-2.01 2.68 -1.02 1.36 0 0 Z " fill="#495B43" transform="translate(221,27)"/>
<path d="M0 0 C1.98 0.99 1.98 0.99 4 2 C4 3.65 4 5.3 4 7 C4.66 7 5.32 7 6 7 C6 8.65 6 10.3 6 12 C5.01 12.33 4.02 12.66 3 13 C-0.42857143 4.57142857 -0.42857143 4.57142857 0 0 Z " fill="#3A4B32" transform="translate(139,31)"/>
<path d="M0 0 C-1.3125 2 -1.3125 2 -4 4 C-7.68855385 4.36089448 -11.3051649 4.22933459 -15 4 C-11.3460697 -1.5678938 -5.94143168 -0.36877852 0 0 Z " fill="#2F1A05" transform="translate(145,107)"/>
<path d="M0 0 C1.2065625 0.0309375 1.2065625 0.0309375 2.4375 0.0625 C2.4375 2.3725 2.4375 4.6825 2.4375 7.0625 C0.4575 7.0625 -1.5225 7.0625 -3.5625 7.0625 C-3.60504356 5.06295254 -3.60330783 3.06208364 -3.5625 1.0625 C-2.5625 0.0625 -2.5625 0.0625 0 0 Z " fill="#584325" transform="translate(165.5625,114.9375)"/>
<path d="M0 0 C0.7425 0.78375 1.485 1.5675 2.25 2.375 C4.61170902 4.62935861 6.05854919 5.80503561 9 7 C9.9075 7.37125 10.815 7.7425 11.75 8.125 C12.86375 8.558125 12.86375 8.558125 14 9 C13.67 9.66 13.34 10.32 13 11 C9.625 11.125 9.625 11.125 6 11 C5.34 10.34 4.68 9.68 4 9 C3.46375 8.525625 2.9275 8.05125 2.375 7.5625 C1 6 1 6 1 3 C0.34 2.67 -0.32 2.34 -1 2 C-0.67 1.34 -0.34 0.68 0 0 Z " fill="#3D5137" transform="translate(95,33)"/>
<path d="M0 0 C0.33 0 0.66 0 1 0 C1 2.64 1 5.28 1 8 C1.66 8.33 2.32 8.66 3 9 C2.01 10.485 2.01 10.485 1 12 C4.04134491 10.33075929 4.04134491 10.33075929 5 8 C5.99 8.66 6.98 9.32 8 10 C8 10.66 8 11.32 8 12 C5.17116253 13.41441874 3.12623255 13.31900332 0 13 C-1.875 11 -1.875 11 -3 9 C-2.34 8.67 -1.68 8.34 -1 8 C-1.33 7.34 -1.66 6.68 -2 6 C-1.34 6 -0.68 6 0 6 C0 4.02 0 2.04 0 0 Z " fill="#87673A" transform="translate(186,105)"/>
<path d="M0 0 C2.25 0.25 2.25 0.25 4 1 C3.44271087 4.34373475 2.64826111 7.03312999 1 10 C0.01 10 -0.98 10 -2 10 C-1.67 8.35 -1.34 6.7 -1 5 C-1.99 4.67 -2.98 4.34 -4 4 C-2.25 1.9375 -2.25 1.9375 0 0 Z " fill="#423113" transform="translate(195,110)"/>
<path d="M0 0 C1.32 0 2.64 0 4 0 C4 1.98 4 3.96 4 6 C7.63 6 11.26 6 15 6 C15 6.33 15 6.66 15 7 C8.73 7 2.46 7 -4 7 C-2.68 6.34 -1.36 5.68 0 5 C0 3.35 0 1.7 0 0 Z " fill="#543918" transform="translate(151,100)"/>
<path d="M0 0 C3.60389763 3.4036811 6.29826716 6.85734297 9 11 C10.62351109 12.79394446 10.62351109 12.79394446 12 14 C8.17168246 14 7.54950403 13.01002796 4.875 10.375 C1.64926751 7.05474055 0 4.80650713 0 0 Z " fill="#4B331B" transform="translate(77,110)"/>
<path d="M0 0 C1.98 0 3.96 0 6 0 C6 2.31 6 4.62 6 7 C4.68 7.33 3.36 7.66 2 8 C1.34 5.36 0.68 2.72 0 0 Z " fill="#EBC18A" transform="translate(167,114)"/>
<path d="M0 0 C1.98 0 3.96 0 6 0 C6 2.31 6 4.62 6 7 C5.34 6.34 4.68 5.68 4 5 C3.67 5.99 3.34 6.98 3 8 C2.34 8 1.68 8 1 8 C0.67 5.36 0.34 2.72 0 0 Z " fill="#EFC487" transform="translate(155,114)"/>
<path d="M0 0 C0.99 0.33 1.98 0.66 3 1 C3 1.99 3 2.98 3 4 C3.66 4.33 4.32 4.66 5 5 C5 5.66 5 6.32 5 7 C4.01 7.33 3.02 7.66 2 8 C2 9.98 2 11.96 2 14 C-0.12568191 10.45719682 -0.62857754 7.08564707 -1 3 C-0.67 2.01 -0.34 1.02 0 0 Z " fill="#50411E" transform="translate(105,100)"/>
<path d="M0 0 C0.5775 0.763125 1.155 1.52625 1.75 2.3125 C3.73902087 4.68827493 5.37399424 6.3905126 8 8 C8.99 8 9.98 8 11 8 C10.54625 8.5775 10.0925 9.155 9.625 9.75 C8.15886484 11.7800333 7.05142216 13.73539843 6 16 C5.62875 14.4221875 5.62875 14.4221875 5.25 12.8125 C4.23335465 9.15847033 2.38518797 6.94173183 0 4 C0 2.68 0 1.36 0 0 Z " fill="#303822" transform="translate(161,30)"/>
<path d="M0 0 C0.66 0 1.32 0 2 0 C4.84450614 3.71973879 5.3227506 6.37390802 5 11 C3.68 11 2.36 11 1 11 C0.67 7.37 0.34 3.74 0 0 Z " fill="#876336" transform="translate(106,107)"/>
<path d="M0 0 C2.47709607 0.34166842 3.77141885 0.78900202 5.625 2.5 C7.62460016 6.13563666 8.2632145 9.94334571 9 14 C5.27023241 10.78468312 3.81244211 7.53110528 2 3 C1.34 2.01 0.68 1.02 0 0 Z " fill="#2B301B" transform="translate(186,22)"/>
<path d="M0 0 C0.66 0 1.32 0 2 0 C3.19876651 5.44893869 2.91360308 8.22169095 0 13 C-0.66 12.67 -1.32 12.34 -2 12 C-2.26252625 7.66831683 -1.29243536 4.1196377 0 0 Z " fill="#F5D090" transform="translate(122,85)"/>
<path d="M0 0 C2.0625 0.4375 2.0625 0.4375 4 1 C4 1.66 4 2.32 4 3 C4.61875 3.2475 5.2375 3.495 5.875 3.75 C8.35068687 5.20628639 8.95125002 6.37812506 10 9 C8.68 8.67 7.36 8.34 6 8 C6 7.34 6 6.68 6 6 C5.401875 5.731875 4.80375 5.46375 4.1875 5.1875 C2.02775192 4.01506533 0.64209744 2.80630718 -1 1 C-0.67 0.67 -0.34 0.34 0 0 Z " fill="#8F6B3D" transform="translate(99,118)"/>
<path d="M0 0 C0.66 0.33 1.32 0.66 2 1 C1.67 1.99 1.34 2.98 1 4 C1.66 4 2.32 4 3 4 C3.66 7.3 4.32 10.6 5 14 C4.01 14.495 4.01 14.495 3 15 C0 9.25 0 9.25 0 7 C0.66 7 1.32 7 2 7 C2 6.34 2 5.68 2 5 C1.01 4.67 0.02 4.34 -1 4 C-0.67 2.68 -0.34 1.36 0 0 Z " fill="#AA844E" transform="translate(108,100)"/>
<path d="M0 0 C1.32 0 2.64 0 4 0 C4 4.29 4 8.58 4 13 C3.34 13 2.68 13 2 13 C2 9.37 2 5.74 2 2 C1.34 2 0.68 2 0 2 C0 1.34 0 0.68 0 0 Z " fill="#745B3B" transform="translate(184,120)"/>
<path d="M0 0 C-0.33 1.98 -0.66 3.96 -1 6 C-5.455 6.495 -5.455 6.495 -10 7 C-9.01 6.34 -8.02 5.68 -7 5 C-6.505 3.9790625 -6.505 3.9790625 -6 2.9375 C-4.59304238 0.21151962 -2.96266324 0 0 0 Z " fill="#3A4A31" transform="translate(138,33)"/>
<path d="M0 0 C0.66 0.33 1.32 0.66 2 1 C0.75482035 2.13033298 -0.49636652 3.25405036 -1.75 4.375 C-2.44609375 5.00148437 -3.1421875 5.62796875 -3.859375 6.2734375 C-5.88181088 7.90467228 -7.56570641 9.09950928 -10 10 C-10.99 9.67 -11.98 9.34 -13 9 C-11.71802734 8.15115234 -11.71802734 8.15115234 -10.41015625 7.28515625 C-9.2942305 6.54433159 -8.17834728 5.80344286 -7.0625 5.0625 C-6.49853516 4.68931641 -5.93457031 4.31613281 -5.35351562 3.93164062 C-2.53966389 2.14034283 -2.53966389 2.14034283 0 0 Z " fill="#362416" transform="translate(211,125)"/>
<path d="M0 0 C1.65 0 3.3 0 5 0 C5 1.98 5 3.96 5 6 C3.35 5.67 1.7 5.34 0 5 C0 3.35 0 1.7 0 0 Z " fill="#544426" transform="translate(160,99)"/>
<path d="M0 0 C2.97 0.495 2.97 0.495 6 1 C6 2.32 6 3.64 6 5 C4.35 5.66 2.7 6.32 1 7 C0.67 6.34 0.34 5.68 0 5 C-0.66 5 -1.32 5 -2 5 C-2 4.34 -2 3.68 -2 3 C-1.34 3 -0.68 3 0 3 C0 2.01 0 1.02 0 0 Z " fill="#D9AF74" transform="translate(144,99)"/>
<path d="M0 0 C0.66 0 1.32 0 2 0 C4.125 4.625 4.125 4.625 3 8 C3 7.34 3 6.68 3 6 C-0.16666667 7.83333333 -0.16666667 7.83333333 -2 11 C-2.33 9.68 -2.66 8.36 -3 7 C-2.34 7 -1.68 7 -1 7 C-0.67 4.69 -0.34 2.38 0 0 Z " fill="#36270B" transform="translate(69,68)"/>
<path d="M0 0 C3.20135072 3.96357709 5.39002275 8.17006825 7 13 C3.95091476 11.98363825 2.93094539 11.46515507 1 9 C0.48828125 6.73828125 0.48828125 6.73828125 0.3125 4.3125 C0.24675781 3.50425781 0.18101562 2.69601563 0.11328125 1.86328125 C0.07589844 1.24839844 0.03851563 0.63351563 0 0 Z " fill="#2D341D" transform="translate(162,49)"/>
<path d="M0 0 C4.38889325 0.66498383 7.9811485 2.18757677 12 4 C8.61401171 5.04184255 5.53318313 5.23042499 2 5 C1.34 4.34 0.68 3.68 0 3 C0 2.01 0 1.02 0 0 Z " fill="#644C31" transform="translate(111,137)"/>
<path d="M0 0 C0 3.19219704 -0.23605791 4.39608549 -2 7 C-4.5 8.1875 -4.5 8.1875 -7 9 C-7.99 9.495 -7.99 9.495 -9 10 C-7.61811547 6.78956118 -6.07578097 4.95063635 -3.375 2.75 C-2.74335938 2.22921875 -2.11171875 1.7084375 -1.4609375 1.171875 C-0.73777344 0.59179688 -0.73777344 0.59179688 0 0 Z " fill="#534029" transform="translate(217,118)"/>
<path d="M0 0 C1.32 0 2.64 0 4 0 C4 3.96 4 7.92 4 12 C3.67 12 3.34 12 3 12 C2.67 9.69 2.34 7.38 2 5 C1.01 5 0.02 5 -1 5 C-1 2 -1 2 0 0 Z " fill="#241305" transform="translate(124,112)"/>
<path d="M0 0 C2.88575819 0.39803561 3.82189513 0.79009069 5.75 3.0625 C6.1625 3.701875 6.575 4.34125 7 5 C6.34 5 5.68 5 5 5 C5 6.32 5 7.64 5 9 C4.34 9 3.68 9 3 9 C2.87625 8.195625 2.7525 7.39125 2.625 6.5625 C2.315625 5.2940625 2.315625 5.2940625 2 4 C1.34 3.67 0.68 3.34 0 3 C0 2.01 0 1.02 0 0 Z " fill="#CEAB78" transform="translate(152,84)"/>
<path d="M0 0 C0.99 0.33 1.98 0.66 3 1 C3.26218749 4.14624993 3.24754367 5.61837017 1.5 8.3125 C0.7575 9.1478125 0.7575 9.1478125 0 10 C-1.60339848 6.88228073 -2.18974141 5.60988311 -1.125 2.1875 C-0.75375 1.465625 -0.3825 0.74375 0 0 Z " fill="#3B482E" transform="translate(107,50)"/>
<path d="M0 0 C0.66 0 1.32 0 2 0 C2.33 2.31 2.66 4.62 3 7 C1.35 7 -0.3 7 -2 7 C-1.125 1.125 -1.125 1.125 0 0 Z " fill="#39280A" transform="translate(198,93)"/>
<path d="M0 0 C0.99 0 1.98 0 3 0 C2.649375 0.5775 2.29875 1.155 1.9375 1.75 C0.85082593 4.35801776 1.06934867 5.39417629 2 8 C2.66 8 3.32 8 4 8 C3.34 9.32 2.68 10.64 2 12 C1.67 12 1.34 12 1 12 C1 10.02 1 8.04 1 6 C0.34 6 -0.32 6 -1 6 C-1.042721 4.33388095 -1.04063832 2.66617115 -1 1 C-0.67 0.67 -0.34 0.34 0 0 Z " fill="#C0A36E" transform="translate(124,92)"/>
<path d="M0 0 C0.0825 0.61875 0.165 1.2375 0.25 1.875 C1.23825442 4.67505419 2.40359985 4.74113932 5 6 C5.68268138 7.32520503 6.3507041 8.65812182 7 10 C7.99 10.33 8.98 10.66 10 11 C10 11.66 10 12.32 10 13 C6.62101619 11.55186408 4.50368068 9.67059273 2 7 C1.34 6.34 0.68 5.68 0 5 C-0.125 2.375 -0.125 2.375 0 0 Z " fill="#323C25" transform="translate(156,59)"/>
<path d="M0 0 C0.474375 0.495 0.94875 0.99 1.4375 1.5 C2.75923698 3.11542197 2.75923698 3.11542197 4 3 C4 4.98 4 6.96 4 9 C3.01 9 2.02 9 1 9 C1 7.68 1 6.36 1 5 C0.01 5 -0.98 5 -2 5 C-2 4.01 -2 3.02 -2 2 C-1.34 2 -0.68 2 0 2 C0 1.34 0 0.68 0 0 Z " fill="#DAAD6E" transform="translate(111,99)"/>
<path d="M0 0 C2.7839183 1.39195915 2.97898997 3.15575779 4 6 C4.66 6 5.32 6 6 6 C6 6.99 6 7.98 6 9 C4 9 4 9 1.5 6.6875 C-1 4 -1 4 -3 1 C-2.01 0.67 -1.02 0.34 0 0 Z " fill="#AA9566" transform="translate(167,88)"/>
<path d="M0 0 C1.31611677 0.95336021 2.62778961 1.91285774 3.9375 2.875 C4.66839844 3.40867187 5.39929688 3.94234375 6.15234375 4.4921875 C8 6 8 6 9 8 C8.01 9.485 8.01 9.485 7 11 C6.401875 10.071875 5.80375 9.14375 5.1875 8.1875 C3.22220454 5.11550825 3.22220454 5.11550825 1.25 3.25 C0.8375 2.8375 0.425 2.425 0 2 C0 1.34 0 0.68 0 0 Z " fill="#5D432A" transform="translate(83,117)"/>
<path d="M0 0 C1.32 0 2.64 0 4 0 C3.67 2.31 3.34 4.62 3 7 C3.66 7 4.32 7 5 7 C5 7.66 5 8.32 5 9 C3.68 9 2.36 9 1 9 C0.67 6.03 0.34 3.06 0 0 Z " fill="#C0A874" transform="translate(190,79)"/>
<path d="M0 0 C1.32 0 2.64 0 4 0 C4 1.98 4 3.96 4 6 C2.68 6 1.36 6 0 6 C0 4.02 0 2.04 0 0 Z " fill="#332513" transform="translate(151,116)"/>
<path d="M0 0 C2 3.75 2 3.75 2 6 C0.68 6 -0.64 6 -2 6 C-2.33 6.66 -2.66 7.32 -3 8 C-3.66 6.68 -4.32 5.36 -5 4 C-3.35 3.67 -1.7 3.34 0 3 C-0.66 3 -1.32 3 -2 3 C-2 2.34 -2 1.68 -2 1 C-1.34 0.67 -0.68 0.34 0 0 Z " fill="#CCAA75" transform="translate(113,91)"/>
<path d="M0 0 C1.32 0.33 2.64 0.66 4 1 C3.34 1.66 2.68 2.32 2 3 C1.53513282 6.12196336 1.53513282 6.12196336 1.375 9.625 C1.30023438 10.81351563 1.22546875 12.00203125 1.1484375 13.2265625 C1.09945312 14.14179688 1.05046875 15.05703125 1 16 C0.67 16 0.34 16 0 16 C0 10.72 0 5.44 0 0 Z " fill="#220D01" transform="translate(188,118)"/>
<path d="M0 0 C2.31 0.66 4.62 1.32 7 2 C5.68 3.32 4.36 4.64 3 6 C2.01 5.34 1.02 4.68 0 4 C0 2.68 0 1.36 0 0 Z " fill="#3E2B0C" transform="translate(179,111)"/>
<path d="M0 0 C0.66 0 1.32 0 2 0 C2 3.3 2 6.6 2 10 C1.01 10.495 1.01 10.495 0 11 C-0.19406478 9.35492782 -0.38007935 7.70890406 -0.5625 6.0625 C-0.66691406 5.14597656 -0.77132812 4.22945312 -0.87890625 3.28515625 C-0.91886719 2.53105469 -0.95882812 1.77695312 -1 1 C-0.67 0.67 -0.34 0.34 0 0 Z " fill="#364229" transform="translate(215,53)"/>
<path d="M0 0 C1.60080151 4.00200378 0.29279692 7.04556236 -1 11 C-1.66 11 -2.32 11 -3 11 C-2.88590407 9.54077307 -2.75834456 8.08259402 -2.625 6.625 C-2.55539063 5.81289063 -2.48578125 5.00078125 -2.4140625 4.1640625 C-2 2 -2 2 0 0 Z " fill="#445D40" transform="translate(148,25)"/>
<path d="M0 0 C1.5 1.375 1.5 1.375 3 3 C3 3.66 3 4.32 3 5 C2.67 5.33 2.34 5.66 2 6 C1.67 6.66 1.34 7.32 1 8 C0.34 7.67 -0.32 7.34 -1 7 C-1 6.01 -1 5.02 -1 4 C-1.66 3.67 -2.32 3.34 -3 3 C-2.01 2.01 -1.02 1.02 0 0 Z " fill="#524823" transform="translate(127,93)"/>
<path d="M0 0 C0.66 0 1.32 0 2 0 C2.66 2.64 3.32 5.28 4 8 C3.01 7.34 2.02 6.68 1 6 C0.34 6.66 -0.32 7.32 -1 8 C-1 5.16032769 -0.59732819 2.76264289 0 0 Z " fill="#392B0E" transform="translate(94,87)"/>
<path d="M0 0 C4.05388445 2.70258963 4.50347441 5.51042324 6 10 C3.54896452 9.01958581 2.23241214 8.3486182 0.75 6.125 C0 4 0 4 0 0 Z " fill="#384025" transform="translate(199,76)"/>
<path d="M0 0 C2.125 0.9375 2.125 0.9375 4 2 C3.34 2 2.68 2 2 2 C2 4.31 2 6.62 2 9 C0.68 8.67 -0.64 8.34 -2 8 C-1.34 6.35 -0.68 4.7 0 3 C-0.66 2.34 -1.32 1.68 -2 1 C-1.34 0.67 -0.68 0.34 0 0 Z " fill="#B08E5C" transform="translate(121,109)"/>
<path d="M0 0 C1.0625 1.8125 1.0625 1.8125 2 4 C1.02391783 6.92824652 -0.10786631 8.61426621 -2 11 C-1.85957123 9.35369672 -1.71250671 7.70795821 -1.5625 6.0625 C-1.48128906 5.14597656 -1.40007812 4.22945313 -1.31640625 3.28515625 C-1 1 -1 1 0 0 Z " fill="#372C0E" transform="translate(208,98)"/>
<path d="M0 0 C0.99 0.33 1.98 0.66 3 1 C3 3.31 3 5.62 3 8 C1.68 7.01 0.36 6.02 -1 5 C-0.67 3.35 -0.34 1.7 0 0 Z " fill="#DAAD6C" transform="translate(183,96)"/>
<path d="M0 0 C1.32 0 2.64 0 4 0 C3.67 0.66 3.34 1.32 3 2 C2.34 1.67 1.68 1.34 1 1 C2.32 2.65 3.64 4.3 5 6 C4.34 6 3.68 6 3 6 C2.67 6.66 2.34 7.32 2 8 C1.34 7.67 0.68 7.34 0 7 C0.33 6.34 0.66 5.68 1 5 C0.34 5 -0.32 5 -1 5 C-0.67 3.35 -0.34 1.7 0 0 Z " fill="#715C33" transform="translate(180,90)"/>
<path d="M0 0 C0 0.33 0 0.66 0 1 C-1.65 1 -3.3 1 -5 1 C-5.33 1.99 -5.66 2.98 -6 4 C-7.32 3.67 -8.64 3.34 -10 3 C-10 2.34 -10 1.68 -10 1 C-6.42181037 -1.33958553 -4.07775191 -0.9267618 0 0 Z " fill="#3C250C" transform="translate(153,130)"/>
<path d="M0 0 C1.65 0 3.3 0 5 0 C5 1.32 5 2.64 5 4 C3.35 4 1.7 4 0 4 C0 2.68 0 1.36 0 0 Z " fill="#452E0F" transform="translate(138,118)"/>
<path d="M0 0 C0.33 1.32 0.66 2.64 1 4 C2.65 4 4.3 4 6 4 C5.01 4.33 4.02 4.66 3 5 C3.33 5.99 3.66 6.98 4 8 C2.68 8.33 1.36 8.66 0 9 C0 6 0 3 0 0 Z " fill="#C2A068" transform="translate(187,108)"/>
<path d="M0 0 C1.32 0 2.64 0 4 0 C2.98590222 2.53524446 2.38502734 3.77139002 0 5.1875 C-0.66 5.455625 -1.32 5.72375 -2 6 C-2.99 6.495 -2.99 6.495 -4 7 C-2.79618552 4.50638429 -1.54571278 2.31856917 0 0 Z " fill="#4D3922" transform="translate(224,109)"/>
<path d="M0 0 C1.32 0 2.64 0 4 0 C4 1.65 4 3.3 4 5 C2.68 5 1.36 5 0 5 C0 3.35 0 1.7 0 0 Z " fill="#3A2C18" transform="translate(151,100)"/>
<path d="M0 0 C1.32 0 2.64 0 4 0 C4 1.65 4 3.3 4 5 C2.68 5 1.36 5 0 5 C0 3.35 0 1.7 0 0 Z " fill="#433A21" transform="translate(151,88)"/>
<path d="M0 0 C0.99 0.33 1.98 0.66 3 1 C3 3.31 3 5.62 3 8 C2.34 7.01 1.68 6.02 1 5 C0.34 5 -0.32 5 -1 5 C-0.67 3.35 -0.34 1.7 0 0 Z " fill="#2F3720" transform="translate(136,59)"/>
<path d="M0 0 C2.31 0 4.62 0 7 0 C6.67 0.66 6.34 1.32 6 2 C5.34 2 4.68 2 4 2 C4 2.66 4 3.32 4 4 C3.34 4 2.68 4 2 4 C1.67 4.66 1.34 5.32 1 6 C0.67 4.02 0.34 2.04 0 0 Z " fill="#4C3B1E" transform="translate(122,108)"/>
<path d="M0 0 C1.17571451 3.67410785 1.07366746 7.16929183 1 11 C0.34 11 -0.32 11 -1 11 C-1.73080266 9.02253397 -2.39421747 7.01927511 -3 5 C-2.67 4.34 -2.34 3.68 -2 3 C-1.34 3 -0.68 3 0 3 C0 2.01 0 1.02 0 0 Z " fill="#A9824D" transform="translate(182,95)"/>
<path d="M0 0 C0.33 0 0.66 0 1 0 C1.33 3.63 1.66 7.26 2 11 C1.34 11 0.68 11 0 11 C-1.28571429 3.57142857 -1.28571429 3.57142857 0 0 Z " fill="#282B15" transform="translate(227,42)"/>
<path d="M0 0 C0.99 0 1.98 0 3 0 C3 1.98 3 3.96 3 6 C2.01 6 1.02 6 0 6 C0 4.02 0 2.04 0 0 Z " fill="#4D371B" transform="translate(133,116)"/>
<path d="M0 0 C0.99 0.33 1.98 0.66 3 1 C-1.455 3.97 -1.455 3.97 -6 7 C-6.33 6.34 -6.66 5.68 -7 5 C-6.030625 4.360625 -5.06125 3.72125 -4.0625 3.0625 C-1.23963731 1.3034741 -1.23963731 1.3034741 0 0 Z " fill="#A18156" transform="translate(133,105)"/>
<path d="M0 0 C-0.33 0.99 -0.66 1.98 -1 3 C-3.35171131 2.40138258 -5.6859378 1.73075648 -8 1 C-8.33 0.34 -8.66 -0.32 -9 -1 C-5.79937313 -2.60031344 -3.27728194 -1.03173691 0 0 Z " fill="#2F3A22" transform="translate(136,50)"/>
<path d="M0 0 C0.66 0 1.32 0 2 0 C2 0.99 2 1.98 2 3 C4.475 3.99 4.475 3.99 7 5 C5.1875 5.625 5.1875 5.625 3 6 C2.01 5.34 1.02 4.68 0 4 C0 2.68 0 1.36 0 0 Z " fill="#323E28" transform="translate(94,36)"/>
<path d="M0 0 C2.64 1.65 5.28 3.3 8 5 C5 6 5 6 2.3125 4.75 C1.549375 4.1725 0.78625 3.595 0 3 C0 2.01 0 1.02 0 0 Z " fill="#3E2A17" transform="translate(91,126)"/>
<path d="M0 0 C1.4540625 0.0309375 1.4540625 0.0309375 2.9375 0.0625 C2.9375 0.3925 2.9375 0.7225 2.9375 1.0625 C1.2875 1.0625 -0.3625 1.0625 -2.0625 1.0625 C-2.18625 1.701875 -2.31 2.34125 -2.4375 3 C-2.64375 3.680625 -2.85 4.36125 -3.0625 5.0625 C-4.0525 5.5575 -4.0525 5.5575 -5.0625 6.0625 C-3.98897059 0.08140756 -3.98897059 0.08140756 0 0 Z " fill="#7D623E" transform="translate(120.0625,117.9375)"/>
<path d="M0 0 C0.66 0 1.32 0 2 0 C3 3 3 3 2 6 C-0.0625 6.6875 -0.0625 6.6875 -2 7 C-1.42415568 4.61435923 -0.77772405 2.33317216 0 0 Z " fill="#DAB57A" transform="translate(118,112)"/>
<path d="M0 0 C1.485 0.99 1.485 0.99 3 2 C3 2.66 3 3.32 3 4 C3.66 4 4.32 4 5 4 C5.33 5.32 5.66 6.64 6 8 C2.57701423 6.85900474 1.85241234 5.99914379 0 3 C0 2.01 0 1.02 0 0 Z " fill="#333E27" transform="translate(93,46)"/>
<path d="M0 0 C0.33 0 0.66 0 1 0 C1 1.98 1 3.96 1 6 C0.01 6.33 -0.98 6.66 -2 7 C-2.33 5.68 -2.66 4.36 -3 3 C-2.34 3 -1.68 3 -1 3 C-0.67 2.01 -0.34 1.02 0 0 Z " fill="#303921" transform="translate(151,24)"/>
<path d="M0 0 C1.27875 -0.061875 2.5575 -0.12375 3.875 -0.1875 C4.95394531 -0.23970703 4.95394531 -0.23970703 6.0546875 -0.29296875 C6.69664063 -0.19628906 7.33859375 -0.09960938 8 0 C8.66 0.99 9.32 1.98 10 3 C9.01 3.33 8.02 3.66 7 4 C6.34 3.34 5.68 2.68 5 2 C2.42938689 1.35232207 2.42938689 1.35232207 0 1 C0 0.67 0 0.34 0 0 Z " fill="#748874" transform="translate(80,14)"/>
</svg>
