<svg width="56" height="56" viewBox="0 0 56 56" fill="none" xmlns="http://www.w3.org/2000/svg">
<circle cx="28" cy="28" r="28" fill="#E7F0FF"/>
<path d="M41.1173 27.6194C40.9183 22.4809 36.6483 18.375 31.5066 18.375C29.7179 18.3753 27.9647 18.8734 26.4431 19.8135C24.9215 20.7537 23.6916 22.0988 22.8911 23.6983C22.2258 25.0243 21.8779 26.4869 21.875 27.9705C21.8784 28.1959 21.7966 28.4143 21.646 28.582C21.4953 28.7497 21.2868 28.8544 21.0623 28.875C20.9423 28.8836 20.8218 28.8673 20.7083 28.8272C20.5949 28.7871 20.4909 28.724 20.4029 28.6418C20.3149 28.5597 20.2449 28.4603 20.197 28.3499C20.1492 28.2395 20.1247 28.1203 20.125 28C20.1241 26.7761 20.3213 25.5602 20.7091 24.3994C20.7346 24.3249 20.7396 24.245 20.7235 24.168C20.7075 24.0909 20.6709 24.0197 20.6177 23.9617C20.5645 23.9037 20.4967 23.8611 20.4213 23.8384C20.346 23.8157 20.2659 23.8138 20.1895 23.8328C18.6734 24.2107 17.327 25.0843 16.3641 26.3149C15.4013 27.5455 14.8771 29.0625 14.875 30.625C14.875 34.4739 18.1289 37.625 21.9844 37.625H31.5C32.7956 37.6236 34.0776 37.3609 35.2694 36.8527C36.4611 36.3444 37.5381 35.601 38.4359 34.6669C39.3338 33.7328 40.034 32.6273 40.4947 31.4164C40.9554 30.2054 41.1672 28.914 41.1173 27.6194ZM34.7441 30.3691C34.6628 30.4504 34.5663 30.515 34.4601 30.559C34.3539 30.603 34.24 30.6257 34.125 30.6257C34.01 30.6257 33.8962 30.603 33.7899 30.559C33.6837 30.515 33.5872 30.4504 33.5059 30.3691L31.5 28.362V35C31.5 35.2321 31.4078 35.4546 31.2437 35.6187C31.0796 35.7828 30.8571 35.875 30.625 35.875C30.3929 35.875 30.1704 35.7828 30.0063 35.6187C29.8422 35.4546 29.75 35.2321 29.75 35V28.362L27.7441 30.3691C27.6628 30.4504 27.5663 30.5148 27.46 30.5588C27.3538 30.6028 27.24 30.6255 27.125 30.6255C27.01 30.6255 26.8962 30.6028 26.79 30.5588C26.6837 30.5148 26.5872 30.4504 26.5059 30.3691C26.4246 30.2878 26.3602 30.1913 26.3162 30.085C26.2722 29.9788 26.2495 29.865 26.2495 29.75C26.2495 29.635 26.2722 29.5212 26.3162 29.415C26.3602 29.3087 26.4246 29.2122 26.5059 29.1309L30.0059 25.6309C30.0872 25.5496 30.1837 25.485 30.2899 25.441C30.3962 25.397 30.51 25.3743 30.625 25.3743C30.74 25.3743 30.8539 25.397 30.9601 25.441C31.0663 25.485 31.1628 25.5496 31.2441 25.6309L34.7441 29.1309C34.8254 29.2122 34.89 29.3087 34.934 29.4149C34.978 29.5212 35.0007 29.635 35.0007 29.75C35.0007 29.865 34.978 29.9789 34.934 30.0851C34.89 30.1913 34.8254 30.2878 34.7441 30.3691Z" fill="#0D6EFD"/>
</svg>
