<svg width="32" height="32" viewBox="0 0 32 32" fill="none" xmlns="http://www.w3.org/2000/svg">
<path d="M16 32C24.8366 32 32 24.8366 32 16C32 7.16344 24.8366 0 16 0C7.16344 0 0 7.16344 0 16C0 24.8366 7.16344 32 16 32Z" fill="url(#paint0_radial_5001_804)"/>
<path opacity="0.5" d="M16 32C24.8366 32 32 24.8366 32 16C32 7.16344 24.8366 0 16 0C7.16344 0 0 7.16344 0 16C0 24.8366 7.16344 32 16 32Z" fill="url(#paint1_radial_5001_804)"/>
<path d="M5.61082 7.41921C5.58105 8.05921 6.25082 8.49084 7.44151 8.55037C8.45361 8.59502 10.701 8.14851 12.3308 6.25084C12.6285 5.90107 12.2043 5.67781 11.9141 5.90107C10.9317 6.6527 8.3643 7.56061 6.40709 7.25549C5.6257 7.13642 5.61082 7.41921 5.61082 7.41921Z" fill="url(#paint2_linear_5001_804)"/>
<path d="M5.10544 11.4383C5.09055 11.2448 5.21706 11.0885 5.40311 11.0513C6.40032 10.8727 8.23102 10.9322 10.0766 11.2001C11.5352 11.4085 13.6115 12.5992 13.6785 13.2541C13.7529 13.9834 12.0859 15.2113 11.3715 15.7025C10.2478 16.4764 8.70729 17.3397 7.75474 17.429C7.50171 17.4513 7.36776 17.3248 7.31567 17.1983C7.24869 17.0197 7.34543 16.8113 7.56125 16.6699C9.86822 15.1815 11.2971 13.8941 11.1706 13.4997C11.1706 13.4997 11.0589 12.8597 9.07939 12.4578C7.87381 12.2122 6.60869 12.0857 5.83474 12.0262C5.3659 11.9741 5.12776 11.7136 5.10544 11.4383Z" fill="url(#paint3_radial_5001_804)"/>
<path d="M5.4101 11.0589C6.40731 10.8803 8.21568 10.7314 10.0836 11.2077C11.7952 11.6468 13.6185 12.6068 13.6854 13.2616C13.7301 13.6858 13.1868 14.2737 12.5841 14.7947C12.5617 14.817 12.5394 14.8319 12.5171 14.8542L12.5096 14.8616C12.9636 14.0877 13.1199 13.2914 12.0259 12.6589C11.3338 12.257 9.26498 11.0291 5.11987 11.4384C5.09754 11.2449 5.21661 11.0886 5.4101 11.0589Z" fill="url(#paint4_linear_5001_804)"/>
<path d="M7.31587 17.2054C7.24889 17.0268 7.34564 16.8185 7.56145 16.6771C9.86843 15.1887 11.2973 13.9013 11.1708 13.5068C11.3866 14.1692 11.4759 14.504 9.58564 15.7915C8.17913 16.744 7.50192 17.1608 7.75494 17.4361C7.50192 17.4659 7.36052 17.3394 7.31587 17.2054Z" fill="url(#paint5_linear_5001_804)"/>
<path d="M10.5763 28.3079C13.0321 27.5935 14.2823 27.1246 16.0014 27.1246C17.7205 27.1246 18.9707 27.5935 21.4265 28.3079C23.7037 28.9702 24.9912 27.586 24.7307 25.5767C23.8377 21.3498 20.0126 18.0977 16.0088 18.0977C12.1168 18.0977 8.40326 21.0893 7.36884 25.1153C6.82559 27.3702 8.12791 29.0223 10.5763 28.3079Z" fill="url(#paint6_radial_5001_804)"/>
<path d="M7.36206 25.7553C8.39648 22.4958 12.11 21.387 16.0021 21.387C20.0058 21.387 23.8309 22.7042 24.7239 26.1274C24.7314 26.1721 24.7388 26.2242 24.7537 26.2763C24.7686 26.053 24.7537 25.8223 24.7239 25.5767C23.8309 21.3498 20.0058 18.0977 16.0021 18.0977C12.11 18.0977 8.39648 21.0893 7.36206 25.1153C7.2802 25.4651 7.23555 25.8074 7.24299 26.12C7.29508 25.986 7.33229 25.8595 7.36206 25.7553Z" fill="url(#paint7_linear_5001_804)"/>
<path d="M26.39 7.41921C26.4198 8.05921 25.75 8.49084 24.5593 8.55037C23.5472 8.59502 21.2998 8.14851 19.67 6.25084C19.3723 5.90107 19.7965 5.67781 20.0868 5.90107C21.0691 6.6527 23.6365 7.56061 25.5937 7.25549C26.3751 7.13642 26.39 7.41921 26.39 7.41921Z" fill="url(#paint8_linear_5001_804)"/>
<path d="M26.8962 11.4373C26.9111 11.2438 26.7846 11.0875 26.5986 11.0503C25.6014 10.8717 23.7707 10.9313 21.9251 11.1992C20.4665 11.4075 18.3902 12.5982 18.3232 13.2531C18.2488 13.9824 19.9158 15.2103 20.6302 15.7015C21.7539 16.4754 23.2944 17.3387 24.2469 17.428C24.5 17.4503 24.6339 17.3238 24.686 17.1973C24.753 17.0187 24.6562 16.8103 24.4404 16.6689C22.1334 15.1806 20.7046 13.8931 20.8311 13.4987C20.8311 13.4987 20.9427 12.8587 22.9223 12.4568C24.1279 12.2113 25.393 12.0848 26.1669 12.0252C26.6358 11.9731 26.8739 11.7127 26.8962 11.4373Z" fill="url(#paint9_radial_5001_804)"/>
<path d="M26.5912 11.0579C25.5939 10.8793 23.7856 10.7304 21.9177 11.2067C20.206 11.6458 18.3828 12.6058 18.3158 13.2607C18.2712 13.6849 18.8144 14.2728 19.4172 14.7937C19.4395 14.816 19.4619 14.8309 19.4842 14.8532L19.4916 14.8607C19.0377 14.0867 18.8814 13.2904 19.9753 12.6579C20.6674 12.256 22.7363 11.0281 26.8814 11.4374C26.9037 11.2439 26.7846 11.0876 26.5912 11.0579Z" fill="url(#paint10_linear_5001_804)"/>
<path d="M24.6867 17.2054C24.7537 17.0268 24.6569 16.8185 24.4411 16.6771C22.1341 15.1887 20.7053 13.9013 20.8318 13.5068C20.616 14.1692 20.5267 14.504 22.4169 15.7915C23.8234 16.744 24.5006 17.1608 24.2476 17.4361C24.5006 17.4659 24.642 17.3394 24.6867 17.2054Z" fill="url(#paint11_linear_5001_804)"/>
<path d="M16.0012 20.5694C18.2933 20.5694 20.5333 21.1871 22.416 22.214C20.8533 20.1675 18.4644 18.8057 16.0012 18.8057C13.5156 18.8057 11.1119 20.1452 9.54907 22.1992C11.4393 21.1796 13.6942 20.5694 16.0012 20.5694Z" fill="url(#paint12_radial_5001_804)"/>
<path d="M23.1312 27.6686C22.0447 25.6965 19.2987 24.29 16.0764 24.29C12.8317 24.29 10.0782 25.704 9.00659 27.691C9.38613 27.7952 9.85496 27.7803 10.3908 27.6314C10.7852 27.5198 11.1424 27.4082 11.4847 27.3114C13.2782 26.7756 14.4689 26.4184 16.0094 26.4184C17.5498 26.4184 18.7405 26.7756 20.534 27.3114C20.8689 27.4156 21.2336 27.5198 21.628 27.6314C22.2085 27.81 22.7294 27.8175 23.1312 27.6686Z" fill="url(#paint13_radial_5001_804)"/>
<defs>
<radialGradient id="paint0_radial_5001_804" cx="0" cy="0" r="1" gradientUnits="userSpaceOnUse" gradientTransform="translate(12.852 9.51574) scale(19.3019)">
<stop stop-color="#FFDF30"/>
<stop offset="1" stop-color="#FFB82E"/>
</radialGradient>
<radialGradient id="paint1_radial_5001_804" cx="0" cy="0" r="1" gradientUnits="userSpaceOnUse" gradientTransform="translate(12.852 9.51574) scale(15.1857)">
<stop stop-color="#FFE95F"/>
<stop offset="1" stop-color="#FFBB47" stop-opacity="0"/>
</radialGradient>
<linearGradient id="paint2_linear_5001_804" x1="8.11833" y1="9.20893" x2="9.28444" y2="6.02804" gradientUnits="userSpaceOnUse">
<stop offset="0.00132565" stop-color="#3C2200"/>
<stop offset="1" stop-color="#7A4400"/>
</linearGradient>
<radialGradient id="paint3_radial_5001_804" cx="0" cy="0" r="1" gradientUnits="userSpaceOnUse" gradientTransform="translate(9.55753 13.948) rotate(-79.5901) scale(3.76335 2.43462)">
<stop offset="0.00132565" stop-color="#7A4400"/>
<stop offset="1" stop-color="#643800"/>
</radialGradient>
<linearGradient id="paint4_linear_5001_804" x1="13.6043" y1="12.4769" x2="5.29794" y2="13.3105" gradientUnits="userSpaceOnUse">
<stop offset="0.00132565" stop-color="#3C2200"/>
<stop offset="1" stop-color="#512D00"/>
</linearGradient>
<linearGradient id="paint5_linear_5001_804" x1="11.5805" y1="14.793" x2="7.01104" y2="16.2631" gradientUnits="userSpaceOnUse">
<stop offset="0.00132565" stop-color="#3C2200"/>
<stop offset="1" stop-color="#512D00"/>
</linearGradient>
<radialGradient id="paint6_radial_5001_804" cx="0" cy="0" r="1" gradientUnits="userSpaceOnUse" gradientTransform="translate(15.2643 23.3873) scale(5.6597 4.5553)">
<stop offset="0.00132565" stop-color="#7A4400"/>
<stop offset="1" stop-color="#643800"/>
</radialGradient>
<linearGradient id="paint7_linear_5001_804" x1="7.24358" y1="22.1898" x2="24.7592" y2="22.1898" gradientUnits="userSpaceOnUse">
<stop offset="0.00132565" stop-color="#3C2200"/>
<stop offset="1" stop-color="#512D00"/>
</linearGradient>
<linearGradient id="paint8_linear_5001_804" x1="23.8821" y1="9.20965" x2="22.716" y2="6.02876" gradientUnits="userSpaceOnUse">
<stop offset="0.00132565" stop-color="#3C2200"/>
<stop offset="1" stop-color="#7A4400"/>
</linearGradient>
<radialGradient id="paint9_radial_5001_804" cx="0" cy="0" r="1" gradientUnits="userSpaceOnUse" gradientTransform="translate(22.446 13.9458) rotate(-100.41) scale(3.76335 2.43462)">
<stop offset="0.00132565" stop-color="#7A4400"/>
<stop offset="1" stop-color="#643800"/>
</radialGradient>
<linearGradient id="paint10_linear_5001_804" x1="18.3986" y1="12.4762" x2="26.705" y2="13.3098" gradientUnits="userSpaceOnUse">
<stop offset="0.00132565" stop-color="#3C2200"/>
<stop offset="1" stop-color="#512D00"/>
</linearGradient>
<linearGradient id="paint11_linear_5001_804" x1="20.4217" y1="14.7937" x2="24.9912" y2="16.2639" gradientUnits="userSpaceOnUse">
<stop offset="0.00132565" stop-color="#3C2200"/>
<stop offset="1" stop-color="#512D00"/>
</linearGradient>
<radialGradient id="paint12_radial_5001_804" cx="0" cy="0" r="1" gradientUnits="userSpaceOnUse" gradientTransform="translate(15.9813 20.5061) scale(7.61132 7.61133)">
<stop offset="0.00132565" stop-color="white"/>
<stop offset="1" stop-color="#A8BBBD"/>
</radialGradient>
<radialGradient id="paint13_radial_5001_804" cx="0" cy="0" r="1" gradientUnits="userSpaceOnUse" gradientTransform="translate(16.0346 25.8793) scale(6.89401 1.53874)">
<stop offset="0.2479" stop-color="#FF0000"/>
<stop offset="1" stop-color="#C10000"/>
</radialGradient>
</defs>
</svg>
