<svg width="32" height="32" viewBox="0 0 32 32" fill="none" xmlns="http://www.w3.org/2000/svg">
<path d="M16 32C24.8366 32 32 24.8366 32 16C32 7.16344 24.8366 0 16 0C7.16344 0 0 7.16344 0 16C0 24.8366 7.16344 32 16 32Z" fill="url(#paint0_radial_5001_2520)"/>
<path opacity="0.5" d="M16 32C24.8366 32 32 24.8366 32 16C32 7.16344 24.8366 0 16 0C7.16344 0 0 7.16344 0 16C0 24.8366 7.16344 32 16 32Z" fill="url(#paint1_radial_5001_2520)"/>
<path d="M12.4802 7.70992C12.4802 7.06992 11.7902 6.66992 10.5902 6.66992C9.58024 6.66992 7.35024 7.22992 5.82024 9.19992C5.54024 9.55992 5.97024 9.75992 6.25024 9.52992C7.19024 8.72992 9.72024 7.69992 11.6902 7.91992C12.4802 7.99992 12.4802 7.70992 12.4802 7.70992Z" fill="url(#paint2_linear_5001_2520)"/>
<path d="M10.7707 15.4793C11.6212 15.4793 12.3107 14.4362 12.3107 13.1493C12.3107 11.8625 11.6212 10.8193 10.7707 10.8193C9.9202 10.8193 9.23071 11.8625 9.23071 13.1493C9.23071 14.4362 9.9202 15.4793 10.7707 15.4793Z" fill="url(#paint3_radial_5001_2520)"/>
<path d="M10.7707 11.6095C11.4307 11.6095 12.0107 12.1895 12.3107 13.0395C12.2907 11.7795 11.6107 10.7695 10.7707 10.7695C9.93072 10.7695 9.25071 11.7795 9.23071 13.0395C9.53071 12.1895 10.1107 11.6095 10.7707 11.6095Z" fill="url(#paint4_linear_5001_2520)"/>
<path d="M19.5205 7.70992C19.5205 7.06992 20.2105 6.66992 21.4105 6.66992C22.4205 6.66992 24.6505 7.22992 26.1805 9.19992C26.4605 9.55992 26.0305 9.75992 25.7505 9.52992C24.8105 8.72992 22.2805 7.69992 20.3105 7.91992C19.5105 7.99992 19.5205 7.70992 19.5205 7.70992Z" fill="url(#paint5_linear_5001_2520)"/>
<path d="M23.0704 20.6799C22.9404 20.6599 22.8004 20.6999 22.7104 20.7899C20.9904 22.3999 18.3404 23.2699 16.3404 23.2699H16.0004H15.6604C13.6604 23.2699 11.0104 22.3999 9.2904 20.7899C9.1904 20.6999 9.0604 20.6599 8.9304 20.6799C8.7904 20.7099 8.7204 20.8599 8.7904 20.9799C10.2604 23.5199 12.9704 25.0899 15.9204 25.0899H16.0104H16.1004C19.0504 25.0899 21.7604 23.5199 23.2304 20.9799C23.2804 20.8599 23.2104 20.7099 23.0704 20.6799Z" fill="#643800"/>
<path d="M21.2199 15.4793C22.0705 15.4793 22.7599 14.4362 22.7599 13.1493C22.7599 11.8625 22.0705 10.8193 21.2199 10.8193C20.3694 10.8193 19.6799 11.8625 19.6799 13.1493C19.6799 14.4362 20.3694 15.4793 21.2199 15.4793Z" fill="url(#paint6_radial_5001_2520)"/>
<path d="M21.2199 11.6095C20.5599 11.6095 19.9799 12.1895 19.6799 13.0395C19.6999 11.7795 20.3799 10.7695 21.2199 10.7695C22.0599 10.7695 22.7399 11.7795 22.7599 13.0395C22.4599 12.1895 21.8799 11.6095 21.2199 11.6095Z" fill="url(#paint7_linear_5001_2520)"/>
<path d="M23.0704 20.6799C22.9404 20.6599 22.8004 20.6999 22.7104 20.7899C20.9904 22.3999 18.3404 23.2699 16.3404 23.2699H16.0004H15.6604C13.6604 23.2699 11.0104 22.3999 9.2904 20.7899C9.1904 20.6999 9.0604 20.6599 8.9304 20.6799C8.7904 20.7099 8.7204 20.8599 8.7904 20.9799C8.8004 21.0099 8.8204 21.0299 8.8404 21.0499C8.9804 20.9699 9.1304 20.8899 9.2804 21.0599C10.9104 22.8899 13.3304 23.9899 15.9204 23.9899H16.0104H16.1004C18.7104 23.9899 21.1404 22.8799 22.7704 21.0199C22.9204 20.8499 23.0604 20.9299 23.1904 21.0199C23.2004 20.9999 23.2104 20.9899 23.2204 20.9699C23.2804 20.8599 23.2104 20.7099 23.0704 20.6799Z" fill="url(#paint8_linear_5001_2520)"/>
<defs>
<radialGradient id="paint0_radial_5001_2520" cx="0" cy="0" r="1" gradientUnits="userSpaceOnUse" gradientTransform="translate(12.848 9.51574) scale(19.3019)">
<stop stop-color="#FFE030"/>
<stop offset="1" stop-color="#FFB92E"/>
</radialGradient>
<radialGradient id="paint1_radial_5001_2520" cx="0" cy="0" r="1" gradientUnits="userSpaceOnUse" gradientTransform="translate(12.848 9.51574) scale(15.1857)">
<stop stop-color="#FFEA5F"/>
<stop offset="1" stop-color="#FFBC47" stop-opacity="0"/>
</radialGradient>
<linearGradient id="paint2_linear_5001_2520" x1="9.10236" y1="8.78233" x2="9.10236" y2="7.09637" gradientUnits="userSpaceOnUse">
<stop offset="0.00132565" stop-color="#3C2200"/>
<stop offset="1" stop-color="#7A4400"/>
</linearGradient>
<radialGradient id="paint3_radial_5001_2520" cx="0" cy="0" r="1" gradientUnits="userSpaceOnUse" gradientTransform="translate(10.3109 13.2155) rotate(73.8539) scale(2.26068 1.46263)">
<stop offset="0.00132565" stop-color="#7A4400"/>
<stop offset="1" stop-color="#643800"/>
</radialGradient>
<linearGradient id="paint4_linear_5001_2520" x1="10.773" y1="10.8105" x2="10.773" y2="12.9819" gradientUnits="userSpaceOnUse">
<stop offset="0.00132565" stop-color="#3C2200"/>
<stop offset="1" stop-color="#512D00"/>
</linearGradient>
<linearGradient id="paint5_linear_5001_2520" x1="22.8905" y1="8.78233" x2="22.8905" y2="7.09637" gradientUnits="userSpaceOnUse">
<stop offset="0.00132565" stop-color="#3C2200"/>
<stop offset="1" stop-color="#7A4400"/>
</linearGradient>
<radialGradient id="paint6_radial_5001_2520" cx="0" cy="0" r="1" gradientUnits="userSpaceOnUse" gradientTransform="translate(20.7582 13.2158) rotate(73.8539) scale(2.26068 1.46263)">
<stop offset="0.00132565" stop-color="#7A4400"/>
<stop offset="1" stop-color="#643800"/>
</radialGradient>
<linearGradient id="paint7_linear_5001_2520" x1="21.2198" y1="10.8105" x2="21.2198" y2="12.9819" gradientUnits="userSpaceOnUse">
<stop offset="0.00132565" stop-color="#3C2200"/>
<stop offset="1" stop-color="#512D00"/>
</linearGradient>
<linearGradient id="paint8_linear_5001_2520" x1="15.9964" y1="21.8108" x2="15.9964" y2="24.1994" gradientUnits="userSpaceOnUse">
<stop offset="0.00132565" stop-color="#3C2200"/>
<stop offset="1" stop-color="#512D00"/>
</linearGradient>
</defs>
</svg>
