<svg width="690" height="129" viewBox="0 0 690 129" fill="none" xmlns="http://www.w3.org/2000/svg">
<line x1="23.7109" y1="128.508" x2="23.7109" y2="0.492188" stroke="#F0F2F5"/>
<line x1="63.7109" y1="128.508" x2="63.7109" y2="0.492188" stroke="#F0F2F5"/>
<line x1="103.711" y1="128.508" x2="103.711" y2="0.492188" stroke="#F0F2F5"/>
<line x1="143.711" y1="128.508" x2="143.711" y2="0.492188" stroke="#F0F2F5"/>
<line x1="183.711" y1="128.508" x2="183.711" y2="0.492188" stroke="#F0F2F5"/>
<line x1="223.711" y1="128.508" x2="223.711" y2="0.492188" stroke="#F0F2F5"/>
<line x1="263.711" y1="128.508" x2="263.711" y2="0.492188" stroke="#F0F2F5"/>
<line x1="303.711" y1="128.508" x2="303.711" y2="0.492188" stroke="#F0F2F5"/>
<line x1="343.711" y1="128.508" x2="343.711" y2="0.492188" stroke="#F0F2F5"/>
<line x1="383.711" y1="128.508" x2="383.711" y2="0.492188" stroke="#F0F2F5"/>
<line x1="423.711" y1="128.508" x2="423.711" y2="0.492188" stroke="#F0F2F5"/>
<line x1="463.711" y1="128.508" x2="463.711" y2="0.492188" stroke="#F0F2F5"/>
<line x1="503.711" y1="128.508" x2="503.711" y2="0.492188" stroke="#F0F2F5"/>
<line x1="543.711" y1="128.508" x2="543.711" y2="0.492188" stroke="#F0F2F5"/>
<line x1="583.711" y1="128.508" x2="583.711" y2="0.492188" stroke="#F0F2F5"/>
<line x1="623.711" y1="128.508" x2="623.711" y2="0.492188" stroke="#F0F2F5"/>
<line x1="663.711" y1="128.508" x2="663.711" y2="0.492188" stroke="#F0F2F5"/>
<line x1="-0.0078125" y1="15.5" x2="690.01" y2="15.5" stroke="#F0F2F5"/>
<line x1="-0.0078125" y1="47.5" x2="690.01" y2="47.5" stroke="#F0F2F5"/>
<line x1="-0.0078125" y1="79.5" x2="690.01" y2="79.5" stroke="#F0F2F5"/>
<line x1="-0.0078125" y1="111.5" x2="690.01" y2="111.5" stroke="#F0F2F5"/>
</svg>
